<svg width="1979" height="142" viewBox="0 0 1979 142" fill="none" xmlns="http://www.w3.org/2000/svg">
<path d="M78.5537 88.9995C81.0531 88.9995 83.5525 88.9995 88.0514 92.9994C92.1925 92.9994 93.55 93.4177 93.55 88.9995C93.55 84.5814 84.6943 73 80.5532 73C76.412 73 78.5537 84.5814 78.5537 88.9995Z" fill="#FFDBA5"/>
<path d="M76.5714 84.7932C79.1428 84.7932 81.7143 84.7932 86.3428 87.9915C90.6033 87.9915 92 88.326 92 84.7932C92 81.2605 82.2621 71 78.0016 71C73.7411 71 76.5714 81.2605 76.5714 84.7932Z" fill="white"/>
<rect x="39" y="71" width="46" height="33" rx="10" fill="#FFDBA5"/>
<rect x="48" y="100" width="9" height="10" fill="#FFDBA5"/>
<rect x="68" y="100" width="9" height="10" fill="#FFDBA5"/>
<path d="M45 89C42.5 89 40 89 35.5 93C31.3579 93 30 93.4183 30 89C30 84.5817 38.8579 73 43 73C47.1421 73 45 84.5817 45 89Z" fill="#FFDBA5"/>
<path d="M47.4304 84.7932C44.8586 84.7932 42.2869 84.7932 37.6578 87.9915C33.3968 87.9915 32 88.326 32 84.7932C32 81.2605 41.739 71 46 71C50.261 71 47.4304 81.2605 47.4304 84.7932Z" fill="white"/>
<path d="M38 81C38 75.4772 42.4772 71 48 71H75C80.5228 71 85 75.4772 85 81V98H38V81Z" fill="white"/>
<path d="M38 95H85V101C85 103.761 82.7614 106 80 106H43C40.2386 106 38 103.761 38 101V95Z" fill="#0C3666"/>
<path d="M73 71H77V81H73V71Z" fill="black"/>
<path d="M47 71H51V81H47V71Z" fill="black"/>
<path d="M86.5 53.5C86.5 65.602 75.5818 75.5 62 75.5C48.4182 75.5 37.5 65.602 37.5 53.5C37.5 41.398 48.4182 31.5 62 31.5C75.5818 31.5 86.5 41.398 86.5 53.5Z" fill="#FFDBA5" stroke="black"/>
<ellipse cx="62" cy="35.5" rx="26" ry="16.5" fill="black"/>
<rect x="32" y="34" width="60" height="21" rx="5" fill="black"/>
<rect x="54.9337" y="34.7639" width="9.23875" height="1" transform="rotate(-34.7736 54.9337 34.7639)" fill="#FFDF35"/>
<rect x="59.0642" y="29.6194" width="18.4595" height="1" transform="rotate(57.0268 59.0642 29.6194)" fill="#FFDF35"/>
<rect x="68.8484" y="33.958" width="14.449" height="1" transform="rotate(122.094 68.8484 33.958)" fill="#FFDF35"/>
<rect x="68.9841" y="40.729" width="9.68231" height="1" transform="rotate(141.622 68.9841 40.729)" fill="#FFDF35"/>
<rect x="69.3998" y="40.6113" width="14.726" height="1" transform="rotate(163.433 69.3998 40.6113)" fill="#FFDF35"/>
<rect x="55.5963" y="42" width="6.58402" height="1" transform="rotate(36.6062 55.5963 42)" fill="#FFDF35"/>
<rect x="55.3001" y="40.5435" width="13.0533" height="1" transform="rotate(23.4073 55.3001 40.5435)" fill="#FFDF35"/>
<rect x="55.3664" y="38.5171" width="12.9298" height="1" transform="rotate(35.1 55.3664 38.5171)" fill="#FFDF35"/>
<rect x="63.7025" y="29.7896" width="10.8347" height="1" transform="rotate(57.0268 63.7025 29.7896)" fill="#FFDF35"/>
<rect x="55.054" y="35.104" width="12.5963" height="1" transform="rotate(-20.4007 55.054 35.104)" fill="#FFDF35"/>
<rect x="55.0889" y="35.6653" width="14.9771" height="1" transform="rotate(15.6029 55.0889 35.6653)" fill="#FFDF35"/>
<path d="M57 33V33C55.8954 33 55 33.8954 55 35V39.72V43.44C55 45.0969 56.3431 46.44 58 46.44H66.28C67.9369 46.44 69.28 45.0969 69.28 43.44V35.28C69.28 34.0208 68.2592 33 67 33V33" stroke="white"/>
<path d="M67 33.5V31C67 30.4477 66.5523 30 66 30H58C57.4477 30 57 30.4477 57 31V33.5" stroke="white"/>
<rect x="49" y="55" width="8" height="2" fill="white"/>
<rect x="67" y="55" width="8" height="2" fill="white"/>
<path d="M57 57.25C57 59.3211 55.2091 61 53 61C50.7909 61 49 59.3211 49 57.25C49 55.179 50.7909 55 53 55C55.2091 55 57 55.179 57 57.25Z" fill="white"/>
<path d="M75 57.25C75 59.3211 73.2091 61 71 61C68.7909 61 67 59.3211 67 57.25C67 55.179 68.7909 55 71 55C73.2091 55 75 55.179 75 57.25Z" fill="white"/>
<rect x="36" y="87" width="52" height="17" fill="black"/>
<path d="M47.4412 77.5L37.25 86.5H86.75L76.5588 77.5H47.4412Z" fill="black" stroke="black"/>
<rect x="48" y="107" width="9" height="2" fill="white"/>
<ellipse cx="52.5" cy="110" rx="4.5" ry="1" fill="black"/>
<rect x="48" y="108" width="9" height="2" fill="black"/>
<rect x="68" y="107" width="9" height="2" fill="white"/>
<ellipse cx="72.5" cy="110" rx="4.5" ry="1" fill="black"/>
<rect x="68" y="108" width="9" height="2" fill="black"/>
<circle cx="53" cy="59" r="2" fill="black"/>
<circle cx="71" cy="59" r="2" fill="black"/>
<path d="M326.554 88.9995C329.053 88.9995 331.552 88.9995 336.051 92.9994C340.193 92.9994 341.55 93.4177 341.55 88.9995C341.55 84.5814 332.694 73 328.553 73C324.412 73 326.554 84.5814 326.554 88.9995Z" fill="#FFDBA5"/>
<path d="M324.571 84.7932C327.143 84.7932 329.714 84.7932 334.343 87.9915C338.603 87.9915 340 88.326 340 84.7932C340 81.2605 330.262 71 326.002 71C321.741 71 324.571 81.2605 324.571 84.7932Z" fill="white"/>
<rect x="287" y="71" width="46" height="33" rx="10" fill="#FFDBA5"/>
<rect x="296" y="100" width="9" height="10" fill="#FFDBA5"/>
<rect x="316" y="100" width="9" height="10" fill="#FFDBA5"/>
<path d="M293 89C290.5 89 288 89 283.5 93C279.358 93 278 93.4183 278 89C278 84.5817 286.858 73 291 73C295.142 73 293 84.5817 293 89Z" fill="#FFDBA5"/>
<path d="M295.43 84.7932C292.859 84.7932 290.287 84.7932 285.658 87.9915C281.397 87.9915 280 88.326 280 84.7932C280 81.2605 289.739 71 294 71C298.261 71 295.43 81.2605 295.43 84.7932Z" fill="white"/>
<path d="M286 81C286 75.4772 290.477 71 296 71H323C328.523 71 333 75.4772 333 81V98H286V81Z" fill="white"/>
<path d="M286 95H333V101C333 103.761 330.761 106 328 106H291C288.239 106 286 103.761 286 101V95Z" fill="#0C3666"/>
<path d="M321 71H325V81H321V71Z" fill="black"/>
<path d="M295 71H299V81H295V71Z" fill="black"/>
<path d="M334.5 53.5C334.5 65.602 323.582 75.5 310 75.5C296.418 75.5 285.5 65.602 285.5 53.5C285.5 41.398 296.418 31.5 310 31.5C323.582 31.5 334.5 41.398 334.5 53.5Z" fill="#FFDBA5" stroke="black"/>
<ellipse cx="310" cy="35.5" rx="26" ry="16.5" fill="black"/>
<rect x="280" y="34" width="60" height="21" rx="5" fill="black"/>
<rect x="302.934" y="34.7639" width="9.23875" height="1" transform="rotate(-34.7736 302.934 34.7639)" fill="#FFDF35"/>
<rect x="307.064" y="29.6194" width="18.4595" height="1" transform="rotate(57.0268 307.064 29.6194)" fill="#FFDF35"/>
<rect x="316.848" y="33.958" width="14.449" height="1" transform="rotate(122.094 316.848 33.958)" fill="#FFDF35"/>
<rect x="316.984" y="40.729" width="9.68231" height="1" transform="rotate(141.622 316.984 40.729)" fill="#FFDF35"/>
<rect x="317.4" y="40.6113" width="14.726" height="1" transform="rotate(163.433 317.4 40.6113)" fill="#FFDF35"/>
<rect x="303.596" y="42" width="6.58402" height="1" transform="rotate(36.6062 303.596 42)" fill="#FFDF35"/>
<rect x="303.3" y="40.5435" width="13.0533" height="1" transform="rotate(23.4073 303.3 40.5435)" fill="#FFDF35"/>
<rect x="303.366" y="38.5171" width="12.9298" height="1" transform="rotate(35.1 303.366 38.5171)" fill="#FFDF35"/>
<rect x="311.702" y="29.7896" width="10.8347" height="1" transform="rotate(57.0268 311.702 29.7896)" fill="#FFDF35"/>
<rect x="303.054" y="35.104" width="12.5963" height="1" transform="rotate(-20.4007 303.054 35.104)" fill="#FFDF35"/>
<rect x="303.089" y="35.6653" width="14.9771" height="1" transform="rotate(15.6029 303.089 35.6653)" fill="#FFDF35"/>
<path d="M305 33V33C303.895 33 303 33.8954 303 35V39.72V43.44C303 45.0969 304.343 46.44 306 46.44H314.28C315.937 46.44 317.28 45.0969 317.28 43.44V35.28C317.28 34.0208 316.259 33 315 33V33" stroke="white"/>
<path d="M315 33.5V31C315 30.4477 314.552 30 314 30H306C305.448 30 305 30.4477 305 31V33.5" stroke="white"/>
<rect x="297" y="55" width="8" height="2" fill="white"/>
<rect x="315" y="55" width="8" height="2" fill="white"/>
<path d="M305 57.25C305 59.3211 303.209 61 301 61C298.791 61 297 59.3211 297 57.25C297 55.179 298.791 55 301 55C303.209 55 305 55.179 305 57.25Z" fill="white"/>
<path d="M323 57.25C323 59.3211 321.209 61 319 61C316.791 61 315 59.3211 315 57.25C315 55.179 316.791 55 319 55C321.209 55 323 55.179 323 57.25Z" fill="white"/>
<rect x="284" y="87" width="52" height="17" fill="black"/>
<path d="M295.441 77.5L285.25 86.5H334.75L324.559 77.5H295.441Z" fill="black" stroke="black"/>
<rect x="296" y="107" width="9" height="2" fill="white"/>
<ellipse cx="300.5" cy="110" rx="4.5" ry="1" fill="black"/>
<rect x="296" y="108" width="9" height="2" fill="black"/>
<rect x="316" y="107" width="9" height="2" fill="white"/>
<ellipse cx="320.5" cy="110" rx="4.5" ry="1" fill="black"/>
<rect x="316" y="108" width="9" height="2" fill="black"/>
<circle cx="301" cy="59" r="2" fill="black"/>
<circle cx="319" cy="59" r="2" fill="black"/>
<rect x="163" y="71" width="46" height="33" rx="10" fill="#FFDBA5"/>
<rect x="172" y="100" width="9" height="10" fill="#FFDBA5"/>
<rect x="192" y="100" width="9" height="7" fill="#FFDBA5"/>
<path d="M166.5 83C164.334 81.7508 161.707 84.3088 155.81 85.525C152.222 83.4552 150.837 83.1389 153.045 79.3118C155.253 75.4847 168.713 69.8789 172.301 71.9487C175.889 74.0185 168.708 79.1729 166.5 83Z" fill="#FFDBA5"/>
<path d="M167.815 84.7097C165.588 83.4248 163.36 82.1399 157.752 82.5975C154.061 80.4686 152.684 80.0605 154.449 77.0003C156.214 73.94 169.777 69.9179 173.468 72.0468C177.159 74.1757 169.58 81.6495 167.815 84.7097Z" fill="white"/>
<path d="M162 81C162 75.4772 166.477 71 172 71H199C204.523 71 209 75.4772 209 81V98H162V81Z" fill="white"/>
<path d="M162 95H209V101C209 103.761 206.761 106 204 106H167C164.239 106 162 103.761 162 101V95Z" fill="#0C3666"/>
<path d="M171 71H175V81H171V71Z" fill="black"/>
<path d="M197 71H201V81H197V71Z" fill="black"/>
<path d="M210.5 53.5C210.5 65.602 199.582 75.5 186 75.5C172.418 75.5 161.5 65.602 161.5 53.5C161.5 41.398 172.418 31.5 186 31.5C199.582 31.5 210.5 41.398 210.5 53.5Z" fill="#FFDBA5" stroke="black"/>
<ellipse cx="186" cy="35.5" rx="26" ry="16.5" fill="black"/>
<rect x="156" y="34" width="60" height="21" rx="5" fill="black"/>
<rect x="178.934" y="34.7639" width="9.23875" height="1" transform="rotate(-34.7736 178.934 34.7639)" fill="#FFDF35"/>
<rect x="183.064" y="29.6194" width="18.4595" height="1" transform="rotate(57.0268 183.064 29.6194)" fill="#FFDF35"/>
<rect x="192.848" y="33.958" width="14.449" height="1" transform="rotate(122.094 192.848 33.958)" fill="#FFDF35"/>
<rect x="192.984" y="40.729" width="9.68231" height="1" transform="rotate(141.622 192.984 40.729)" fill="#FFDF35"/>
<rect x="193.4" y="40.6113" width="14.726" height="1" transform="rotate(163.433 193.4 40.6113)" fill="#FFDF35"/>
<rect x="179.596" y="42" width="6.58402" height="1" transform="rotate(36.6062 179.596 42)" fill="#FFDF35"/>
<rect x="179.3" y="40.5435" width="13.0533" height="1" transform="rotate(23.4073 179.3 40.5435)" fill="#FFDF35"/>
<rect x="179.366" y="38.5171" width="12.9298" height="1" transform="rotate(35.1 179.366 38.5171)" fill="#FFDF35"/>
<rect x="187.702" y="29.7896" width="10.8347" height="1" transform="rotate(57.0268 187.702 29.7896)" fill="#FFDF35"/>
<rect x="179.054" y="35.104" width="12.5963" height="1" transform="rotate(-20.4007 179.054 35.104)" fill="#FFDF35"/>
<rect x="179.089" y="35.6653" width="14.9771" height="1" transform="rotate(15.6029 179.089 35.6653)" fill="#FFDF35"/>
<path d="M181 33V33C179.895 33 179 33.8954 179 35V39.72V43.44C179 45.0969 180.343 46.44 182 46.44H190.28C191.937 46.44 193.28 45.0969 193.28 43.44V35.28C193.28 34.0208 192.259 33 191 33V33" stroke="white"/>
<path d="M191 33.5V31C191 30.4477 190.552 30 190 30H182C181.448 30 181 30.4477 181 31V33.5" stroke="white"/>
<rect x="173" y="55" width="8" height="2" fill="white"/>
<rect x="191" y="55" width="8" height="2" fill="white"/>
<path d="M181 57.25C181 59.3211 179.209 61 177 61C174.791 61 173 59.3211 173 57.25C173 55.179 174.791 55 177 55C179.209 55 181 55.179 181 57.25Z" fill="white"/>
<path d="M199 57.25C199 59.3211 197.209 61 195 61C192.791 61 191 59.3211 191 57.25C191 55.179 192.791 55 195 55C197.209 55 199 55.179 199 57.25Z" fill="white"/>
<rect x="172" y="107" width="9" height="2" fill="white"/>
<ellipse cx="176.5" cy="110" rx="4.5" ry="1" fill="black"/>
<ellipse cx="196.5" cy="107" rx="4.5" ry="1" fill="black"/>
<rect x="192" y="106" width="9" height="1" fill="black"/>
<rect x="172" y="108" width="9" height="2" fill="black"/>
<circle cx="177" cy="59" r="2" fill="black"/>
<circle cx="195" cy="59" r="2" fill="black"/>
<path d="M170.676 78L161 87H208L198.324 78H170.676Z" fill="black" stroke="black"/>
<rect x="160" y="87" width="48" height="17" fill="black"/>
<path d="M200.5 80C202.914 80.6469 203.077 90.2201 206.387 95.248C210.387 96.3199 211.59 97.0752 212.734 92.8076C213.877 88.54 208.321 75.0612 204.321 73.9894C200.32 72.9176 201.644 75.7324 200.5 80Z" fill="#FFDBA5"/>
<path d="M199.5 81C201.984 81.6655 202.416 86.0666 206.059 90.3539C210.175 91.4566 211.437 92.1411 212.351 88.7287C213.266 85.3164 206.515 72.8852 202.4 71.7825C198.285 70.6798 200.414 77.5876 199.5 81Z" fill="white"/>
<rect width="46" height="33" rx="10" transform="matrix(-1 0 0 1 457 71)" fill="#FFDBA5"/>
<rect width="9" height="10" transform="matrix(-1 0 0 1 448 100)" fill="#FFDBA5"/>
<rect width="9" height="7" transform="matrix(-1 0 0 1 428 100)" fill="#FFDBA5"/>
<path d="M453.5 83C455.666 81.7508 458.293 84.3088 464.19 85.525C467.778 83.4552 469.163 83.1389 466.955 79.3118C464.747 75.4847 451.287 69.8789 447.699 71.9487C444.111 74.0185 451.292 79.1729 453.5 83Z" fill="#FFDBA5"/>
<path d="M452.185 84.7097C454.412 83.4248 456.64 82.1399 462.248 82.5975C465.939 80.4686 467.316 80.0605 465.551 77.0003C463.786 73.94 450.223 69.9179 446.532 72.0468C442.841 74.1757 450.42 81.6495 452.185 84.7097Z" fill="white"/>
<path d="M458 81C458 75.4772 453.523 71 448 71H421C415.477 71 411 75.4772 411 81V98H458V81Z" fill="white"/>
<path d="M458 95H411V101C411 103.761 413.239 106 416 106H453C455.761 106 458 103.761 458 101V95Z" fill="#0C3666"/>
<path d="M449 71H445V81H449V71Z" fill="black"/>
<path d="M423 71H419V81H423V71Z" fill="black"/>
<path d="M409.5 53.5C409.5 65.602 420.418 75.5 434 75.5C447.582 75.5 458.5 65.602 458.5 53.5C458.5 41.398 447.582 31.5 434 31.5C420.418 31.5 409.5 41.398 409.5 53.5Z" fill="#FFDBA5" stroke="black"/>
<rect width="8" height="2" transform="matrix(-1 0 0 1 447 55)" fill="white"/>
<rect width="8" height="2" transform="matrix(-1 0 0 1 429 55)" fill="white"/>
<path d="M439 57.25C439 59.3211 440.791 61 443 61C445.209 61 447 59.3211 447 57.25C447 55.179 445.209 55 443 55C440.791 55 439 55.179 439 57.25Z" fill="white"/>
<path d="M421 57.25C421 59.3211 422.791 61 425 61C427.209 61 429 59.3211 429 57.25C429 55.179 427.209 55 425 55C422.791 55 421 55.179 421 57.25Z" fill="white"/>
<rect width="9" height="2" transform="matrix(-1 0 0 1 448 107)" fill="white"/>
<ellipse rx="4.5" ry="1" transform="matrix(-1 0 0 1 443.5 110)" fill="black"/>
<ellipse rx="4.5" ry="1" transform="matrix(-1 0 0 1 423.5 107)" fill="black"/>
<rect width="9" height="1" transform="matrix(-1 0 0 1 428 106)" fill="black"/>
<rect width="9" height="2" transform="matrix(-1 0 0 1 448 108)" fill="black"/>
<circle r="2" transform="matrix(-1 0 0 1 443 59)" fill="black"/>
<circle r="2" transform="matrix(-1 0 0 1 425 59)" fill="black"/>
<path d="M449.324 78L459 87H412L421.676 78H449.324Z" fill="black" stroke="black"/>
<rect width="48" height="17" transform="matrix(-1 0 0 1 460 87)" fill="black"/>
<path d="M419.5 80C417.086 80.6469 416.923 90.2201 413.613 95.248C409.613 96.3199 408.41 97.0752 407.266 92.8076C406.123 88.54 411.679 75.0612 415.679 73.9894C419.68 72.9176 418.356 75.7324 419.5 80Z" fill="#FFDBA5"/>
<path d="M420.5 81C418.016 81.6655 417.584 86.0666 413.941 90.3539C409.825 91.4566 408.563 92.1411 407.649 88.7287C406.734 85.3164 413.485 72.8852 417.6 71.7825C421.715 70.6798 419.586 77.5876 420.5 81Z" fill="white"/>
<ellipse cx="434" cy="35.5" rx="26" ry="16.5" fill="black"/>
<rect x="404" y="34" width="60" height="21" rx="5" fill="black"/>
<rect x="426.934" y="34.7639" width="9.23875" height="1" transform="rotate(-34.7736 426.934 34.7639)" fill="#FFDF35"/>
<rect x="431.064" y="29.6194" width="18.4595" height="1" transform="rotate(57.0268 431.064 29.6194)" fill="#FFDF35"/>
<rect x="440.848" y="33.958" width="14.449" height="1" transform="rotate(122.094 440.848 33.958)" fill="#FFDF35"/>
<rect x="440.984" y="40.729" width="9.68231" height="1" transform="rotate(141.622 440.984 40.729)" fill="#FFDF35"/>
<rect x="441.4" y="40.6113" width="14.726" height="1" transform="rotate(163.433 441.4 40.6113)" fill="#FFDF35"/>
<rect x="427.596" y="42" width="6.58402" height="1" transform="rotate(36.6062 427.596 42)" fill="#FFDF35"/>
<rect x="427.3" y="40.5435" width="13.0533" height="1" transform="rotate(23.4073 427.3 40.5435)" fill="#FFDF35"/>
<rect x="427.366" y="38.5171" width="12.9298" height="1" transform="rotate(35.1 427.366 38.5171)" fill="#FFDF35"/>
<rect x="435.702" y="29.7896" width="10.8347" height="1" transform="rotate(57.0268 435.702 29.7896)" fill="#FFDF35"/>
<rect x="427.054" y="35.104" width="12.5963" height="1" transform="rotate(-20.4007 427.054 35.104)" fill="#FFDF35"/>
<rect x="427.089" y="35.6653" width="14.9771" height="1" transform="rotate(15.6029 427.089 35.6653)" fill="#FFDF35"/>
<path d="M429 33V33C427.895 33 427 33.8954 427 35V39.72V43.44C427 45.0969 428.343 46.44 430 46.44H438.28C439.937 46.44 441.28 45.0969 441.28 43.44V35.28C441.28 34.0208 440.259 33 439 33V33" stroke="white"/>
<path d="M439 33.5V31C439 30.4477 438.552 30 438 30H430C429.448 30 429 30.4477 429 31V33.5" stroke="white"/>
<path d="M1561.55 88.9995C1564.05 88.9995 1566.55 88.9995 1571.05 92.9994C1575.19 92.9994 1576.55 93.4177 1576.55 88.9995C1576.55 84.5814 1567.69 73 1563.55 73C1559.41 73 1561.55 84.5814 1561.55 88.9995Z" fill="#FFDBA5"/>
<path d="M1559.57 84.7932C1562.14 84.7932 1564.71 84.7932 1569.34 87.9915C1573.6 87.9915 1575 88.326 1575 84.7932C1575 81.2605 1565.26 71 1561 71C1556.74 71 1559.57 81.2605 1559.57 84.7932Z" fill="white"/>
<rect x="1522" y="71" width="46" height="33" rx="10" fill="#FFDBA5"/>
<rect x="1531" y="100" width="9" height="10" fill="#FFDBA5"/>
<rect x="1551" y="100" width="9" height="10" fill="#FFDBA5"/>
<path d="M1528 89C1525.5 89 1523 89 1518.5 93C1514.36 93 1513 93.4183 1513 89C1513 84.5817 1521.86 73 1526 73C1530.14 73 1528 84.5817 1528 89Z" fill="#FFDBA5"/>
<path d="M1530.43 84.7932C1527.86 84.7932 1525.29 84.7932 1520.66 87.9915C1516.4 87.9915 1515 88.326 1515 84.7932C1515 81.2605 1524.74 71 1529 71C1533.26 71 1530.43 81.2605 1530.43 84.7932Z" fill="white"/>
<path d="M1521 95H1568V101C1568 103.761 1565.76 106 1563 106H1526C1523.24 106 1521 103.761 1521 101V95Z" fill="#0C3666"/>
<path d="M1569.5 53.5C1569.5 65.602 1558.58 75.5 1545 75.5C1531.42 75.5 1520.5 65.602 1520.5 53.5C1520.5 41.398 1531.42 31.5 1545 31.5C1558.58 31.5 1569.5 41.398 1569.5 53.5Z" fill="#FFDBA5" stroke="black"/>
<ellipse cx="1545" cy="35.5" rx="26" ry="16.5" fill="black"/>
<rect x="1515" y="34" width="60" height="21" rx="5" fill="black"/>
<rect x="1531" y="107" width="9" height="2" fill="white"/>
<ellipse cx="1535.5" cy="110" rx="4.5" ry="1" fill="black"/>
<rect x="1531" y="108" width="9" height="2" fill="black"/>
<rect x="1551" y="107" width="9" height="2" fill="white"/>
<ellipse cx="1555.5" cy="110" rx="4.5" ry="1" fill="black"/>
<rect x="1551" y="108" width="9" height="2" fill="black"/>
<path d="M1521 81C1521 75.4772 1525.48 71 1531 71H1558C1563.52 71 1568 75.4772 1568 81V98H1521V81Z" fill="white"/>
<path d="M1809.55 88.9995C1812.05 88.9995 1814.55 88.9995 1819.05 92.9994C1823.19 92.9994 1824.55 93.4177 1824.55 88.9995C1824.55 84.5814 1815.69 73 1811.55 73C1807.41 73 1809.55 84.5814 1809.55 88.9995Z" fill="#FFDBA5"/>
<path d="M1807.57 84.7932C1810.14 84.7932 1812.71 84.7932 1817.34 87.9915C1821.6 87.9915 1823 88.326 1823 84.7932C1823 81.2605 1813.26 71 1809 71C1804.74 71 1807.57 81.2605 1807.57 84.7932Z" fill="white"/>
<rect x="1770" y="71" width="46" height="33" rx="10" fill="#FFDBA5"/>
<rect x="1779" y="100" width="9" height="10" fill="#FFDBA5"/>
<rect x="1799" y="100" width="9" height="10" fill="#FFDBA5"/>
<path d="M1776 89C1773.5 89 1771 89 1766.5 93C1762.36 93 1761 93.4183 1761 89C1761 84.5817 1769.86 73 1774 73C1778.14 73 1776 84.5817 1776 89Z" fill="#FFDBA5"/>
<path d="M1778.43 84.7932C1775.86 84.7932 1773.29 84.7932 1768.66 87.9915C1764.4 87.9915 1763 88.326 1763 84.7932C1763 81.2605 1772.74 71 1777 71C1781.26 71 1778.43 81.2605 1778.43 84.7932Z" fill="white"/>
<path d="M1769 95H1816V101C1816 103.761 1813.76 106 1811 106H1774C1771.24 106 1769 103.761 1769 101V95Z" fill="#0C3666"/>
<path d="M1817.5 53.5C1817.5 65.602 1806.58 75.5 1793 75.5C1779.42 75.5 1768.5 65.602 1768.5 53.5C1768.5 41.398 1779.42 31.5 1793 31.5C1806.58 31.5 1817.5 41.398 1817.5 53.5Z" fill="#FFDBA5" stroke="black"/>
<ellipse cx="1793" cy="35.5" rx="26" ry="16.5" fill="black"/>
<rect x="1763" y="34" width="60" height="21" rx="5" fill="black"/>
<rect x="1779" y="107" width="9" height="2" fill="white"/>
<ellipse cx="1783.5" cy="110" rx="4.5" ry="1" fill="black"/>
<rect x="1779" y="108" width="9" height="2" fill="black"/>
<rect x="1799" y="107" width="9" height="2" fill="white"/>
<ellipse cx="1803.5" cy="110" rx="4.5" ry="1" fill="black"/>
<rect x="1799" y="108" width="9" height="2" fill="black"/>
<path d="M1769 81C1769 75.4772 1773.48 71 1779 71H1806C1811.52 71 1816 75.4772 1816 81V98H1769V81Z" fill="white"/>
<rect x="1646" y="71" width="46" height="33" rx="10" fill="#FFDBA5"/>
<rect x="1655" y="100" width="9" height="10" fill="#FFDBA5"/>
<rect x="1675" y="100" width="9" height="7" fill="#FFDBA5"/>
<path d="M1649.5 83C1647.33 81.7508 1644.71 84.3088 1638.81 85.525C1635.22 83.4552 1633.84 83.1389 1636.04 79.3118C1638.25 75.4847 1651.71 69.8789 1655.3 71.9487C1658.89 74.0185 1651.71 79.1729 1649.5 83Z" fill="#FFDBA5"/>
<path d="M1650.82 84.7097C1648.59 83.4248 1646.36 82.1399 1640.75 82.5975C1637.06 80.4686 1635.68 80.0605 1637.45 77.0003C1639.21 73.94 1652.78 69.9179 1656.47 72.0468C1660.16 74.1757 1652.58 81.6495 1650.82 84.7097Z" fill="white"/>
<path d="M1645 95H1692V101C1692 103.761 1689.76 106 1687 106H1650C1647.24 106 1645 103.761 1645 101V95Z" fill="#0C3666"/>
<path d="M1693.5 53.5C1693.5 65.602 1682.58 75.5 1669 75.5C1655.42 75.5 1644.5 65.602 1644.5 53.5C1644.5 41.398 1655.42 31.5 1669 31.5C1682.58 31.5 1693.5 41.398 1693.5 53.5Z" fill="#FFDBA5" stroke="black"/>
<ellipse cx="1669" cy="35.5" rx="26" ry="16.5" fill="black"/>
<rect x="1639" y="34" width="60" height="21" rx="5" fill="black"/>
<rect x="1655" y="107" width="9" height="2" fill="white"/>
<ellipse cx="1659.5" cy="110" rx="4.5" ry="1" fill="black"/>
<ellipse cx="1679.5" cy="107" rx="4.5" ry="1" fill="black"/>
<rect x="1675" y="106" width="9" height="1" fill="black"/>
<rect x="1655" y="108" width="9" height="2" fill="black"/>
<path d="M1645 81C1645 75.4772 1649.48 71 1655 71H1682C1687.52 71 1692 75.4772 1692 81V98H1645V81Z" fill="white"/>
<path d="M1683.5 80C1685.91 80.6469 1686.08 90.2201 1689.39 95.248C1693.39 96.3199 1694.59 97.0752 1695.73 92.8076C1696.88 88.54 1691.32 75.0612 1687.32 73.9894C1683.32 72.9176 1684.64 75.7324 1683.5 80Z" fill="#FFDBA5"/>
<path d="M1682.5 81C1684.98 81.6655 1685.42 86.0666 1689.06 90.3539C1693.17 91.4566 1694.44 92.1411 1695.35 88.7287C1696.27 85.3164 1689.52 72.8852 1685.4 71.7825C1681.28 70.6798 1683.41 77.5876 1682.5 81Z" fill="white"/>
<rect width="46" height="33" rx="10" transform="matrix(-1 0 0 1 1940 71)" fill="#FFDBA5"/>
<rect width="9" height="10" transform="matrix(-1 0 0 1 1931 100)" fill="#FFDBA5"/>
<rect width="9" height="7" transform="matrix(-1 0 0 1 1911 100)" fill="#FFDBA5"/>
<path d="M1936.5 83C1938.67 81.7508 1941.29 84.3088 1947.19 85.525C1950.78 83.4552 1952.16 83.1389 1949.96 79.3118C1947.75 75.4847 1934.29 69.8789 1930.7 71.9487C1927.11 74.0185 1934.29 79.1729 1936.5 83Z" fill="#FFDBA5"/>
<path d="M1935.18 84.7097C1937.41 83.4248 1939.64 82.1399 1945.25 82.5975C1948.94 80.4686 1950.32 80.0605 1948.55 77.0003C1946.79 73.94 1933.22 69.9179 1929.53 72.0468C1925.84 74.1757 1933.42 81.6495 1935.18 84.7097Z" fill="white"/>
<path d="M1941 95H1894V101C1894 103.761 1896.24 106 1899 106H1936C1938.76 106 1941 103.761 1941 101V95Z" fill="#0C3666"/>
<path d="M1892.5 53.5C1892.5 65.602 1903.42 75.5 1917 75.5C1930.58 75.5 1941.5 65.602 1941.5 53.5C1941.5 41.398 1930.58 31.5 1917 31.5C1903.42 31.5 1892.5 41.398 1892.5 53.5Z" fill="#FFDBA5" stroke="black"/>
<rect width="9" height="2" transform="matrix(-1 0 0 1 1931 107)" fill="white"/>
<ellipse rx="4.5" ry="1" transform="matrix(-1 0 0 1 1926.5 110)" fill="black"/>
<ellipse rx="4.5" ry="1" transform="matrix(-1 0 0 1 1906.5 107)" fill="black"/>
<rect width="9" height="1" transform="matrix(-1 0 0 1 1911 106)" fill="black"/>
<rect width="9" height="2" transform="matrix(-1 0 0 1 1931 108)" fill="black"/>
<ellipse cx="1917" cy="35.5" rx="26" ry="16.5" fill="black"/>
<rect x="1887" y="34" width="60" height="21" rx="5" fill="black"/>
<path d="M1941 81C1941 75.4772 1936.52 71 1931 71H1904C1898.48 71 1894 75.4772 1894 81V98H1941V81Z" fill="white"/>
<path d="M1902.5 80C1900.09 80.6469 1899.92 90.2201 1896.61 95.248C1892.61 96.3199 1891.41 97.0752 1890.27 92.8076C1889.12 88.54 1894.68 75.0612 1898.68 73.9894C1902.68 72.9176 1901.36 75.7324 1902.5 80Z" fill="#FFDBA5"/>
<path d="M1903.5 81C1901.02 81.6655 1900.58 86.0666 1896.94 90.3539C1892.83 91.4566 1891.56 92.1411 1890.65 88.7287C1889.73 85.3164 1896.48 72.8852 1900.6 71.7825C1904.72 70.6798 1902.59 77.5876 1903.5 81Z" fill="white"/>
<rect x="549" y="71" width="19" height="33" rx="9.5" fill="#FFDBA5"/>
<rect x="554" y="100" width="9" height="10" fill="#FFDBA5"/>
<path d="M548 95H568V101C568 103.761 565.761 106 563 106H553C550.239 106 548 103.761 548 101V95Z" fill="#0C3666"/>
<path d="M548 95H568V78C568 75.2386 565.761 73 563 73H553C550.239 73 548 75.2386 548 78V95Z" fill="white"/>
<rect x="544" y="87" width="11" height="17" fill="black"/>
<path d="M554.5 79.5L545.5 86.5H554.5V79.5Z" fill="black" stroke="black"/>
<rect x="554" y="107" width="9" height="2" fill="white"/>
<ellipse cx="554.5" cy="109.5" rx="3.5" ry="1.5" fill="black"/>
<rect x="554" y="108" width="9" height="3" fill="black"/>
<circle cx="560" cy="92" r="6" fill="#FFDBA5"/>
<path d="M555.481 76.6301C554.925 78.4816 555.601 80.3204 554.689 80.0467C553.777 79.7731 553.489 78.0504 554.044 76.199C554.6 74.3475 555.789 73.0685 556.701 73.3422C557.613 73.6158 556.037 74.7787 555.481 76.6301Z" fill="black"/>
<path d="M578.361 53.4017C577.682 55.3453 577.155 57.1098 576.678 58.7074C576.485 59.3544 576.3 59.974 576.116 60.5671C575.469 62.6574 574.837 64.4263 573.916 66.0009C572.097 69.1097 569.1 71.5514 562.353 74.0214C557.417 75.2557 553.533 75.3314 550.487 74.5932C547.445 73.856 545.211 72.3014 543.573 70.2237C540.275 66.0383 539.361 59.6822 539.361 53.4867C539.361 41.3738 549.249 33.4594 558.961 31.4765C563.809 30.4866 567.412 30.6279 570.092 31.5403C572.756 32.4474 574.551 34.1307 575.773 36.32C577.002 38.5235 577.654 41.2484 577.995 44.2229C578.332 47.1682 578.36 50.3202 578.361 53.4017Z" fill="#FFDBA5" stroke="black"/>
<rect x="555" y="80" width="10" height="9" fill="white"/>
<rect x="543" y="55" width="6" height="2" fill="white"/>
<path d="M549 57.25C549 59.3211 547.657 61 546 61C544.343 61 543 59.3211 543 57.25C543 55.179 544.343 55 546 55C547.657 55 549 55.179 549 57.25Z" fill="white"/>
<circle cx="545" cy="59" r="2" fill="black"/>
<ellipse cx="559" cy="35.5" rx="21" ry="16.5" fill="black"/>
<rect x="534" y="34" width="50" height="21" rx="5" fill="black"/>
<rect x="534" y="42" width="1" height="1" fill="#FFDF35"/>
<rect x="538.5" y="32" width="1" height="1" fill="#FFDF35"/>
<rect x="537.5" y="35" width="1" height="1" fill="#FFDF35"/>
<rect x="536.5" y="35" width="1" height="1" fill="#FFDF35"/>
<rect x="536" y="35" width="1" height="1" fill="#FFDF35"/>
<path d="M538 34.6008C538 34.07 538.668 33.8355 539 34.25V34.25V35.5H538V34.6008Z" fill="#FFDF35"/>
<rect x="534.132" y="39.27" width="1.95404" height="1" transform="rotate(-40.5393 534.132 39.27)" fill="#FFDF35"/>
<rect x="534.113" y="40.1104" width="1.59605" height="1" transform="rotate(-7.21436 534.113 40.1104)" fill="#FFDF35"/>
<path d="M580 35.5C580 26.3873 570.598 19 559 19C547.402 19 538 26.3873 538 35.5" stroke="black"/>
<path d="M539.5 31V34.5L536 38.5L534.5 45" stroke="white"/>
<rect x="534.5" y="34.5" width="49" height="20" rx="4.5" stroke="black"/>
<path d="M539.5 33.5V34.5L538.5 35.5" stroke="white"/>
<path d="M548 95C548 99.9706 545.985 104 543.5 104C541.015 104 541.5 97.4706 541.5 92.5C541.5 87.5294 546.515 84.5 549 84.5C551.485 84.5 548 90.0294 548 95Z" fill="black"/>
<rect x="797" y="71" width="19" height="33" rx="9.5" fill="#FFDBA5"/>
<rect x="802" y="100" width="9" height="10" fill="#FFDBA5"/>
<path d="M796 95H816V101C816 103.761 813.761 106 811 106H801C798.239 106 796 103.761 796 101V95Z" fill="#0C3666"/>
<path d="M796 95H816V78C816 75.2386 813.761 73 811 73H801C798.239 73 796 75.2386 796 78V95Z" fill="white"/>
<rect x="792" y="87" width="11" height="17" fill="black"/>
<path d="M802.5 79.5L793.5 86.5H802.5V79.5Z" fill="black" stroke="black"/>
<rect x="802" y="107" width="9" height="2" fill="white"/>
<ellipse cx="802.5" cy="109.5" rx="3.5" ry="1.5" fill="black"/>
<rect x="802" y="108" width="9" height="3" fill="black"/>
<circle cx="808" cy="92" r="6" fill="#FFDBA5"/>
<path d="M803.481 76.6301C802.925 78.4816 803.601 80.3204 802.689 80.0467C801.777 79.7731 801.489 78.0504 802.044 76.199C802.6 74.3475 803.789 73.0685 804.701 73.3422C805.613 73.6158 804.037 74.7787 803.481 76.6301Z" fill="black"/>
<path d="M826.361 53.4017C825.682 55.3453 825.155 57.1098 824.678 58.7074C824.485 59.3544 824.3 59.974 824.116 60.5671C823.469 62.6574 822.837 64.4263 821.916 66.0009C820.097 69.1097 817.1 71.5514 810.353 74.0214C805.417 75.2557 801.533 75.3314 798.487 74.5932C795.445 73.856 793.211 72.3014 791.573 70.2237C788.275 66.0383 787.361 59.6822 787.361 53.4867C787.361 41.3738 797.249 33.4594 806.961 31.4765C811.809 30.4866 815.412 30.6279 818.092 31.5403C820.756 32.4474 822.551 34.1307 823.773 36.32C825.002 38.5235 825.654 41.2484 825.995 44.2229C826.332 47.1682 826.36 50.3202 826.361 53.4017Z" fill="#FFDBA5" stroke="black"/>
<rect x="803" y="80" width="10" height="9" fill="white"/>
<rect x="791" y="55" width="6" height="2" fill="white"/>
<path d="M797 57.25C797 59.3211 795.657 61 794 61C792.343 61 791 59.3211 791 57.25C791 55.179 792.343 55 794 55C795.657 55 797 55.179 797 57.25Z" fill="white"/>
<circle cx="793" cy="59" r="2" fill="black"/>
<ellipse cx="807" cy="35.5" rx="21" ry="16.5" fill="black"/>
<rect x="782" y="34" width="50" height="21" rx="5" fill="black"/>
<rect x="782" y="42" width="1" height="1" fill="#FFDF35"/>
<rect x="786.5" y="32" width="1" height="1" fill="#FFDF35"/>
<rect x="785.5" y="35" width="1" height="1" fill="#FFDF35"/>
<rect x="784.5" y="35" width="1" height="1" fill="#FFDF35"/>
<rect x="784" y="35" width="1" height="1" fill="#FFDF35"/>
<path d="M786 34.6008C786 34.07 786.668 33.8355 787 34.25V34.25V35.5H786V34.6008Z" fill="#FFDF35"/>
<rect x="782.132" y="39.27" width="1.95404" height="1" transform="rotate(-40.5393 782.132 39.27)" fill="#FFDF35"/>
<rect x="782.113" y="40.1104" width="1.59605" height="1" transform="rotate(-7.21436 782.113 40.1104)" fill="#FFDF35"/>
<path d="M828 35.5C828 26.3873 818.598 19 807 19C795.402 19 786 26.3873 786 35.5" stroke="black"/>
<path d="M787.5 31V34.5L784 38.5L782.5 45" stroke="white"/>
<rect x="782.5" y="34.5" width="49" height="20" rx="4.5" stroke="black"/>
<path d="M787.5 33.5V34.5L786.5 35.5" stroke="white"/>
<path d="M796 95C796 99.9706 793.985 104 791.5 104C789.015 104 789.5 97.4706 789.5 92.5C789.5 87.5294 794.515 84.5 797 84.5C799.485 84.5 796 90.0294 796 95Z" fill="black"/>
<g clip-path="url(#clip0)">
<rect x="920.065" y="105.367" width="5" height="2" transform="rotate(44.74 920.065 105.367)" fill="white"/>
<ellipse cx="918.66" cy="107.495" rx="3.5" ry="1.5" transform="rotate(44.74 918.66 107.495)" fill="black"/>
<rect x="919.361" y="106.077" width="5" height="3" transform="rotate(44.74 919.361 106.077)" fill="black"/>
<rect x="923.584" y="101.816" width="5" height="5" transform="rotate(44.74 923.584 101.816)" fill="#FFDBA5"/>
</g>
<g clip-path="url(#clip1)">
<rect x="933.804" y="100.395" width="2.99068" height="10" transform="rotate(-36.81 933.804 100.395)" fill="#FFDBA5"/>
<rect x="937.998" y="105.999" width="2.99531" height="2" transform="rotate(-36.81 937.998 105.999)" fill="white"/>
<rect x="938.597" y="106.8" width="3.0212" height="3" transform="rotate(-36.81 938.597 106.8)" fill="black"/>
<ellipse cx="940.077" cy="107.574" rx="2.30631" ry="1.5" transform="rotate(-36.81 940.077 107.574)" fill="black"/>
</g>
<rect x="921" y="71" width="19" height="33" rx="9.5" fill="#FFDBA5"/>
<path d="M920 95H940V101C940 103.761 937.761 106 935 106H925C922.239 106 920 103.761 920 101V95Z" fill="#0C3666"/>
<path d="M920 95H940V78C940 75.2386 937.761 73 935 73H925C922.239 73 920 75.2386 920 78V95Z" fill="white"/>
<rect x="916" y="87" width="11" height="17" fill="black"/>
<path d="M926.5 79.5L917.5 86.5H926.5V79.5Z" fill="black" stroke="black"/>
<circle cx="941" cy="90" r="6" fill="#FFDBA5"/>
<path d="M927.481 76.6301C926.925 78.4816 927.601 80.3204 926.689 80.0467C925.777 79.7731 925.489 78.0504 926.044 76.199C926.6 74.3475 927.789 73.0685 928.701 73.3422C929.613 73.6158 928.037 74.7787 927.481 76.6301Z" fill="black"/>
<path d="M950.361 53.4017C949.682 55.3453 949.155 57.1098 948.678 58.7074C948.485 59.3544 948.3 59.974 948.116 60.5671C947.469 62.6574 946.837 64.4263 945.916 66.0009C944.097 69.1097 941.1 71.5514 934.353 74.0214C929.417 75.2557 925.533 75.3314 922.487 74.5932C919.445 73.856 917.211 72.3014 915.573 70.2237C912.275 66.0383 911.361 59.6822 911.361 53.4867C911.361 41.3738 921.249 33.4594 930.961 31.4765C935.809 30.4866 939.412 30.6279 942.092 31.5403C944.756 32.4474 946.551 34.1307 947.773 36.32C949.002 38.5235 949.654 41.2484 949.995 44.2229C950.332 47.1682 950.36 50.3202 950.361 53.4017Z" fill="#FFDBA5" stroke="black"/>
<rect x="939.066" y="74.8855" width="11.4399" height="9" transform="rotate(64.3057 939.066 74.8855)" fill="white"/>
<rect x="915" y="55" width="6" height="2" fill="white"/>
<path d="M921 57.25C921 59.3211 919.657 61 918 61C916.343 61 915 59.3211 915 57.25C915 55.179 916.343 55 918 55C919.657 55 921 55.179 921 57.25Z" fill="white"/>
<circle cx="917" cy="59" r="2" fill="black"/>
<ellipse cx="931" cy="35.5" rx="21" ry="16.5" fill="black"/>
<rect x="906" y="34" width="50" height="21" rx="5" fill="black"/>
<rect x="906" y="42" width="1" height="1" fill="#FFDF35"/>
<rect x="910.5" y="32" width="1" height="1" fill="#FFDF35"/>
<rect x="909.5" y="35" width="1" height="1" fill="#FFDF35"/>
<rect x="908.5" y="35" width="1" height="1" fill="#FFDF35"/>
<rect x="908" y="35" width="1" height="1" fill="#FFDF35"/>
<path d="M910 34.6008C910 34.07 910.668 33.8355 911 34.25V34.25V35.5H910V34.6008Z" fill="#FFDF35"/>
<rect x="906.132" y="39.27" width="1.95404" height="1" transform="rotate(-40.5393 906.132 39.27)" fill="#FFDF35"/>
<rect x="906.113" y="40.1104" width="1.59605" height="1" transform="rotate(-7.21436 906.113 40.1104)" fill="#FFDF35"/>
<path d="M952 35.5C952 26.3873 942.598 19 931 19C919.402 19 910 26.3873 910 35.5" stroke="black"/>
<path d="M911.5 31V34.5L908 38.5L906.5 45" stroke="white"/>
<rect x="906.5" y="34.5" width="49" height="20" rx="4.5" stroke="black"/>
<path d="M911.5 33.5V34.5L910.5 35.5" stroke="white"/>
<path d="M920 95C920 99.9706 917.985 104 915.5 104C913.015 104 913.5 97.4706 913.5 92.5C913.5 87.5294 918.515 84.5 921 84.5C923.485 84.5 920 90.0294 920 95Z" fill="black"/>
<rect width="19" height="33" rx="9.5" transform="matrix(-1 0 0 1 1430 71)" fill="#FFDBA5"/>
<rect width="9" height="10" transform="matrix(-1 0 0 1 1425 100)" fill="#FFDBA5"/>
<path d="M1431 95H1411V101C1411 103.761 1413.24 106 1416 106H1426C1428.76 106 1431 103.761 1431 101V95Z" fill="#0C3666"/>
<path d="M1431 95H1411V78C1411 75.2386 1413.24 73 1416 73H1426C1428.76 73 1431 75.2386 1431 78V95Z" fill="white"/>
<rect width="11" height="17" transform="matrix(-1 0 0 1 1435 87)" fill="black"/>
<path d="M1424.5 79.5L1433.5 86.5H1424.5V79.5Z" fill="black" stroke="black"/>
<rect width="9" height="2" transform="matrix(-1 0 0 1 1425 107)" fill="white"/>
<ellipse rx="3.5" ry="1.5" transform="matrix(-1 0 0 1 1424.5 109.5)" fill="black"/>
<rect width="9" height="3" transform="matrix(-1 0 0 1 1425 108)" fill="black"/>
<circle r="6" transform="matrix(-1 0 0 1 1419 92)" fill="#FFDBA5"/>
<path d="M1423.52 76.6301C1424.07 78.4816 1423.4 80.3204 1424.31 80.0467C1425.22 79.7731 1425.51 78.0504 1424.96 76.199C1424.4 74.3475 1423.21 73.0685 1422.3 73.3422C1421.39 73.6158 1422.96 74.7787 1423.52 76.6301Z" fill="black"/>
<path d="M1400.64 53.4017C1401.32 55.3453 1401.84 57.1098 1402.32 58.7074C1402.52 59.3544 1402.7 59.974 1402.88 60.5671C1403.53 62.6574 1404.16 64.4263 1405.08 66.0009C1406.9 69.1097 1409.9 71.5514 1416.65 74.0214C1421.58 75.2557 1425.47 75.3314 1428.51 74.5932C1431.56 73.856 1433.79 72.3014 1435.43 70.2237C1438.73 66.0383 1439.64 59.6822 1439.64 53.4867C1439.64 41.3738 1429.75 33.4594 1420.04 31.4765C1415.19 30.4866 1411.59 30.6279 1408.91 31.5403C1406.24 32.4474 1404.45 34.1307 1403.23 36.32C1402 38.5235 1401.35 41.2484 1401.01 44.2229C1400.67 47.1682 1400.64 50.3202 1400.64 53.4017Z" fill="#FFDBA5" stroke="black"/>
<rect width="10" height="9" transform="matrix(-1 0 0 1 1424 80)" fill="white"/>
<rect width="6" height="2" transform="matrix(-1 0 0 1 1436 55)" fill="white"/>
<path d="M1430 57.25C1430 59.3211 1431.34 61 1433 61C1434.66 61 1436 59.3211 1436 57.25C1436 55.179 1434.66 55 1433 55C1431.34 55 1430 55.179 1430 57.25Z" fill="white"/>
<circle r="2" transform="matrix(-1 0 0 1 1434 59)" fill="black"/>
<ellipse rx="21" ry="16.5" transform="matrix(-1 0 0 1 1420 35.5)" fill="black"/>
<rect width="50" height="21" rx="5" transform="matrix(-1 0 0 1 1445 34)" fill="black"/>
<rect width="1" height="1" transform="matrix(-1 0 0 1 1445 42)" fill="#FFDF35"/>
<rect width="1" height="1" transform="matrix(-1 0 0 1 1440.5 32)" fill="#FFDF35"/>
<rect width="1" height="1" transform="matrix(-1 0 0 1 1441.5 35)" fill="#FFDF35"/>
<rect width="1" height="1" transform="matrix(-1 0 0 1 1442.5 35)" fill="#FFDF35"/>
<rect width="1" height="1" transform="matrix(-1 0 0 1 1443 35)" fill="#FFDF35"/>
<path d="M1441 34.6008C1441 34.07 1440.33 33.8355 1440 34.25V34.25V35.5H1441V34.6008Z" fill="#FFDF35"/>
<rect width="1.95404" height="1" transform="matrix(-0.75996 -0.649969 -0.649969 0.75996 1444.87 39.27)" fill="#FFDF35"/>
<rect width="1.59605" height="1" transform="matrix(-0.992083 -0.125582 -0.125582 0.992083 1444.89 40.1104)" fill="#FFDF35"/>
<path d="M1399 35.5C1399 26.3873 1408.4 19 1420 19C1431.6 19 1441 26.3873 1441 35.5" stroke="black"/>
<path d="M1439.5 31V34.5L1443 38.5L1444.5 45" stroke="white"/>
<rect x="-0.5" y="0.5" width="49" height="20" rx="4.5" transform="matrix(-1 0 0 1 1444 34)" stroke="black"/>
<path d="M1439.5 33.5V34.5L1440.5 35.5" stroke="white"/>
<path d="M1431.46 95.2308C1431.46 100.074 1433.48 104 1435.96 104C1438.45 104 1437.96 97.638 1437.96 92.7949C1437.96 87.9518 1432.95 85 1430.46 85C1427.98 85 1431.46 90.3877 1431.46 95.2308Z" fill="black"/>
<rect width="19" height="33" rx="9.5" transform="matrix(-1 0 0 1 1182 71)" fill="#FFDBA5"/>
<rect width="9" height="10" transform="matrix(-1 0 0 1 1177 100)" fill="#FFDBA5"/>
<path d="M1183 95H1163V101C1163 103.761 1165.24 106 1168 106H1178C1180.76 106 1183 103.761 1183 101V95Z" fill="#0C3666"/>
<path d="M1183 95H1163V78C1163 75.2386 1165.24 73 1168 73H1178C1180.76 73 1183 75.2386 1183 78V95Z" fill="white"/>
<rect width="11" height="17" transform="matrix(-1 0 0 1 1187 87)" fill="black"/>
<path d="M1176.5 79.5L1185.5 86.5H1176.5V79.5Z" fill="black" stroke="black"/>
<rect width="9" height="2" transform="matrix(-1 0 0 1 1177 107)" fill="white"/>
<ellipse rx="3.5" ry="1.5" transform="matrix(-1 0 0 1 1176.5 109.5)" fill="black"/>
<rect width="9" height="3" transform="matrix(-1 0 0 1 1177 108)" fill="black"/>
<circle r="6" transform="matrix(-1 0 0 1 1171 92)" fill="#FFDBA5"/>
<path d="M1175.52 76.6301C1176.07 78.4816 1175.4 80.3204 1176.31 80.0467C1177.22 79.7731 1177.51 78.0504 1176.96 76.199C1176.4 74.3475 1175.21 73.0685 1174.3 73.3422C1173.39 73.6158 1174.96 74.7787 1175.52 76.6301Z" fill="black"/>
<path d="M1152.64 53.4017C1153.32 55.3453 1153.84 57.1098 1154.32 58.7074C1154.52 59.3544 1154.7 59.974 1154.88 60.5671C1155.53 62.6574 1156.16 64.4263 1157.08 66.0009C1158.9 69.1097 1161.9 71.5514 1168.65 74.0214C1173.58 75.2557 1177.47 75.3314 1180.51 74.5932C1183.56 73.856 1185.79 72.3014 1187.43 70.2237C1190.73 66.0383 1191.64 59.6822 1191.64 53.4867C1191.64 41.3738 1181.75 33.4594 1172.04 31.4765C1167.19 30.4866 1163.59 30.6279 1160.91 31.5403C1158.24 32.4474 1156.45 34.1307 1155.23 36.32C1154 38.5235 1153.35 41.2484 1153.01 44.2229C1152.67 47.1682 1152.64 50.3202 1152.64 53.4017Z" fill="#FFDBA5" stroke="black"/>
<rect width="10" height="9" transform="matrix(-1 0 0 1 1176 80)" fill="white"/>
<rect width="6" height="2" transform="matrix(-1 0 0 1 1188 55)" fill="white"/>
<path d="M1182 57.25C1182 59.3211 1183.34 61 1185 61C1186.66 61 1188 59.3211 1188 57.25C1188 55.179 1186.66 55 1185 55C1183.34 55 1182 55.179 1182 57.25Z" fill="white"/>
<circle r="2" transform="matrix(-1 0 0 1 1186 59)" fill="black"/>
<ellipse rx="21" ry="16.5" transform="matrix(-1 0 0 1 1172 35.5)" fill="black"/>
<rect width="50" height="21" rx="5" transform="matrix(-1 0 0 1 1197 34)" fill="black"/>
<rect width="1" height="1" transform="matrix(-1 0 0 1 1197 42)" fill="#FFDF35"/>
<rect width="1" height="1" transform="matrix(-1 0 0 1 1192.5 32)" fill="#FFDF35"/>
<rect width="1" height="1" transform="matrix(-1 0 0 1 1193.5 35)" fill="#FFDF35"/>
<rect width="1" height="1" transform="matrix(-1 0 0 1 1194.5 35)" fill="#FFDF35"/>
<rect width="1" height="1" transform="matrix(-1 0 0 1 1195 35)" fill="#FFDF35"/>
<path d="M1193 34.6008C1193 34.07 1192.33 33.8355 1192 34.25V34.25V35.5H1193V34.6008Z" fill="#FFDF35"/>
<rect width="1.95404" height="1" transform="matrix(-0.75996 -0.649969 -0.649969 0.75996 1196.87 39.27)" fill="#FFDF35"/>
<rect width="1.59605" height="1" transform="matrix(-0.992083 -0.125582 -0.125582 0.992083 1196.89 40.1104)" fill="#FFDF35"/>
<path d="M1151 35.5C1151 26.3873 1160.4 19 1172 19C1183.6 19 1193 26.3873 1193 35.5" stroke="black"/>
<path d="M1191.5 31V34.5L1195 38.5L1196.5 45" stroke="white"/>
<rect x="-0.5" y="0.5" width="49" height="20" rx="4.5" transform="matrix(-1 0 0 1 1196 34)" stroke="black"/>
<path d="M1191.5 33.5V34.5L1192.5 35.5" stroke="white"/>
<path d="M1183.46 95.2308C1183.46 100.074 1185.48 104 1187.96 104C1190.45 104 1189.96 97.638 1189.96 92.7949C1189.96 87.9518 1184.95 85 1182.46 85C1179.98 85 1183.46 90.3877 1183.46 95.2308Z" fill="black"/>
<g clip-path="url(#clip2)">
<rect width="5" height="2" transform="matrix(-0.710308 0.703891 0.703891 0.710308 1058.94 105.367)" fill="white"/>
<ellipse rx="3.5" ry="1.5" transform="matrix(-0.710308 0.703891 0.703891 0.710308 1060.34 107.495)" fill="black"/>
<rect width="5" height="3" transform="matrix(-0.710308 0.703891 0.703891 0.710308 1059.64 106.077)" fill="black"/>
<rect width="5" height="5" transform="matrix(-0.710308 0.703891 0.703891 0.710308 1055.42 101.816)" fill="#FFDBA5"/>
</g>
<g clip-path="url(#clip3)">
<rect width="2.99068" height="10" transform="matrix(-0.800627 -0.599163 -0.599163 0.800627 1045.2 100.395)" fill="#FFDBA5"/>
<rect width="2.99531" height="2" transform="matrix(-0.800627 -0.599163 -0.599163 0.800627 1041 105.999)" fill="white"/>
<rect width="3.0212" height="3" transform="matrix(-0.800627 -0.599163 -0.599163 0.800627 1040.4 106.8)" fill="black"/>
<ellipse rx="2.30631" ry="1.5" transform="matrix(-0.800627 -0.599163 -0.599163 0.800627 1038.92 107.574)" fill="black"/>
</g>
<rect width="19" height="33" rx="9.5" transform="matrix(-1 0 0 1 1058 71)" fill="#FFDBA5"/>
<path d="M1059 95H1039V101C1039 103.761 1041.24 106 1044 106H1054C1056.76 106 1059 103.761 1059 101V95Z" fill="#0C3666"/>
<path d="M1059 95H1039V78C1039 75.2386 1041.24 73 1044 73H1054C1056.76 73 1059 75.2386 1059 78V95Z" fill="white"/>
<rect width="11" height="17" transform="matrix(-1 0 0 1 1063 87)" fill="black"/>
<path d="M1052.5 79.5L1061.5 86.5H1052.5V79.5Z" fill="black" stroke="black"/>
<circle r="6" transform="matrix(-1 0 0 1 1038 90)" fill="#FFDBA5"/>
<path d="M1051.52 76.6301C1052.07 78.4816 1051.4 80.3204 1052.31 80.0467C1053.22 79.7731 1053.51 78.0504 1052.96 76.199C1052.4 74.3475 1051.21 73.0685 1050.3 73.3422C1049.39 73.6158 1050.96 74.7787 1051.52 76.6301Z" fill="black"/>
<path d="M1028.64 53.4017C1029.32 55.3453 1029.84 57.1098 1030.32 58.7074C1030.52 59.3544 1030.7 59.974 1030.88 60.5671C1031.53 62.6574 1032.16 64.4263 1033.08 66.0009C1034.9 69.1097 1037.9 71.5514 1044.65 74.0214C1049.58 75.2557 1053.47 75.3314 1056.51 74.5932C1059.56 73.856 1061.79 72.3014 1063.43 70.2237C1066.73 66.0383 1067.64 59.6822 1067.64 53.4867C1067.64 41.3738 1057.75 33.4594 1048.04 31.4765C1043.19 30.4866 1039.59 30.6279 1036.91 31.5403C1034.24 32.4474 1032.45 34.1307 1031.23 36.32C1030 38.5235 1029.35 41.2484 1029.01 44.2229C1028.67 47.1682 1028.64 50.3202 1028.64 53.4017Z" fill="#FFDBA5" stroke="black"/>
<rect width="11.4399" height="9" transform="matrix(-0.433569 0.901121 0.901121 0.433569 1039.93 74.8855)" fill="white"/>
<rect width="6" height="2" transform="matrix(-1 0 0 1 1064 55)" fill="white"/>
<path d="M1058 57.25C1058 59.3211 1059.34 61 1061 61C1062.66 61 1064 59.3211 1064 57.25C1064 55.179 1062.66 55 1061 55C1059.34 55 1058 55.179 1058 57.25Z" fill="white"/>
<circle r="2" transform="matrix(-1 0 0 1 1062 59)" fill="black"/>
<ellipse rx="21" ry="16.5" transform="matrix(-1 0 0 1 1048 35.5)" fill="black"/>
<rect width="50" height="21" rx="5" transform="matrix(-1 0 0 1 1073 34)" fill="black"/>
<rect width="1" height="1" transform="matrix(-1 0 0 1 1073 42)" fill="#FFDF35"/>
<rect width="1" height="1" transform="matrix(-1 0 0 1 1068.5 32)" fill="#FFDF35"/>
<rect width="1" height="1" transform="matrix(-1 0 0 1 1069.5 35)" fill="#FFDF35"/>
<rect width="1" height="1" transform="matrix(-1 0 0 1 1070.5 35)" fill="#FFDF35"/>
<rect width="1" height="1" transform="matrix(-1 0 0 1 1071 35)" fill="#FFDF35"/>
<path d="M1069 34.6008C1069 34.07 1068.33 33.8355 1068 34.25V34.25V35.5H1069V34.6008Z" fill="#FFDF35"/>
<rect width="1.95404" height="1" transform="matrix(-0.75996 -0.649969 -0.649969 0.75996 1072.87 39.27)" fill="#FFDF35"/>
<rect width="1.59605" height="1" transform="matrix(-0.992083 -0.125582 -0.125582 0.992083 1072.89 40.1104)" fill="#FFDF35"/>
<path d="M1027 35.5C1027 26.3873 1036.4 19 1048 19C1059.6 19 1069 26.3873 1069 35.5" stroke="black"/>
<path d="M1067.5 31V34.5L1071 38.5L1072.5 45" stroke="white"/>
<rect x="-0.5" y="0.5" width="49" height="20" rx="4.5" transform="matrix(-1 0 0 1 1072 34)" stroke="black"/>
<path d="M1067.5 33.5V34.5L1068.5 35.5" stroke="white"/>
<path d="M1059.46 95.2308C1059.46 100.074 1061.48 104 1063.96 104C1066.45 104 1065.96 97.638 1065.96 92.7949C1065.96 87.9518 1060.95 85 1058.46 85C1055.98 85 1059.46 90.3877 1059.46 95.2308Z" fill="black"/>
<g clip-path="url(#clip4)">
<rect width="5" height="2" transform="matrix(-0.800652 -0.599129 -0.599129 0.800652 1291.8 107.598)" fill="white"/>
<ellipse rx="3.5" ry="1.5" transform="matrix(-0.800652 -0.599129 -0.599129 0.800652 1289.9 109.3)" fill="black"/>
<rect width="5" height="3" transform="matrix(-0.800652 -0.599129 -0.599129 0.800652 1291.2 108.399)" fill="black"/>
<rect width="5" height="5" transform="matrix(-0.800652 -0.599129 -0.599129 0.800652 1294.8 103.595)" fill="#FFDBA5"/>
</g>
<g clip-path="url(#clip5)">
<rect width="2.99068" height="10" transform="matrix(-0.710318 0.703881 0.703881 0.710318 1301.2 100.33)" fill="#FFDBA5"/>
<rect width="2.99531" height="2" transform="matrix(-0.710318 0.703881 0.703881 0.710318 1306.12 105.302)" fill="white"/>
<rect width="3.0212" height="3" transform="matrix(-0.710318 0.703881 0.703881 0.710318 1306.83 106.013)" fill="black"/>
<ellipse rx="2.30631" ry="1.5" transform="matrix(-0.710318 0.703881 0.703881 0.710318 1307.38 107.59)" fill="black"/>
</g>
<rect width="19" height="33" rx="9.5" transform="matrix(-1 0 0 1 1306 71)" fill="#FFDBA5"/>
<path d="M1307 95H1287V101C1287 103.761 1289.24 106 1292 106H1302C1304.76 106 1307 103.761 1307 101V95Z" fill="#0C3666"/>
<path d="M1307 95H1287V78C1287 75.2386 1289.24 73 1292 73H1302C1304.76 73 1307 75.2386 1307 78V95Z" fill="white"/>
<rect width="11" height="17" transform="matrix(-1 0 0 1 1311 87)" fill="black"/>
<path d="M1300.5 79.5L1309.5 86.5H1300.5V79.5Z" fill="black" stroke="black"/>
<circle r="6" transform="matrix(-1 0 0 1 1302 91)" fill="#FFDBA5"/>
<path d="M1299.52 76.6301C1300.07 78.4816 1299.4 80.3204 1300.31 80.0467C1301.22 79.7731 1301.51 78.0504 1300.96 76.199C1300.4 74.3475 1299.21 73.0685 1298.3 73.3422C1297.39 73.6158 1298.96 74.7787 1299.52 76.6301Z" fill="black"/>
<path d="M1276.64 53.4017C1277.32 55.3453 1277.84 57.1098 1278.32 58.7074C1278.52 59.3544 1278.7 59.974 1278.88 60.5671C1279.53 62.6574 1280.16 64.4263 1281.08 66.0009C1282.9 69.1097 1285.9 71.5514 1292.65 74.0214C1297.58 75.2557 1301.47 75.3314 1304.51 74.5932C1307.56 73.856 1309.79 72.3014 1311.43 70.2237C1314.73 66.0383 1315.64 59.6822 1315.64 53.4867C1315.64 41.3738 1305.75 33.4594 1296.04 31.4765C1291.19 30.4866 1287.59 30.6279 1284.91 31.5403C1282.24 32.4474 1280.45 34.1307 1279.23 36.32C1278 38.5235 1277.35 41.2484 1277.01 44.2229C1276.67 47.1682 1276.64 50.3202 1276.64 53.4017Z" fill="#FFDBA5" stroke="black"/>
<rect width="10" height="9" transform="matrix(-0.707107 0.707107 0.707107 0.707107 1297.35 78.7825)" fill="white"/>
<rect width="6" height="2" transform="matrix(-1 0 0 1 1312 55)" fill="white"/>
<path d="M1306 57.25C1306 59.3211 1307.34 61 1309 61C1310.66 61 1312 59.3211 1312 57.25C1312 55.179 1310.66 55 1309 55C1307.34 55 1306 55.179 1306 57.25Z" fill="white"/>
<circle r="2" transform="matrix(-1 0 0 1 1310 59)" fill="black"/>
<ellipse rx="21" ry="16.5" transform="matrix(-1 0 0 1 1296 35.5)" fill="black"/>
<rect width="50" height="21" rx="5" transform="matrix(-1 0 0 1 1321 34)" fill="black"/>
<rect width="1" height="1" transform="matrix(-1 0 0 1 1321 42)" fill="#FFDF35"/>
<rect width="1" height="1" transform="matrix(-1 0 0 1 1316.5 32)" fill="#FFDF35"/>
<rect width="1" height="1" transform="matrix(-1 0 0 1 1317.5 35)" fill="#FFDF35"/>
<rect width="1" height="1" transform="matrix(-1 0 0 1 1318.5 35)" fill="#FFDF35"/>
<rect width="1" height="1" transform="matrix(-1 0 0 1 1319 35)" fill="#FFDF35"/>
<path d="M1317 34.6008C1317 34.07 1316.33 33.8355 1316 34.25V34.25V35.5H1317V34.6008Z" fill="#FFDF35"/>
<rect width="1.95404" height="1" transform="matrix(-0.75996 -0.649969 -0.649969 0.75996 1320.87 39.27)" fill="#FFDF35"/>
<rect width="1.59605" height="1" transform="matrix(-0.992083 -0.125582 -0.125582 0.992083 1320.89 40.1104)" fill="#FFDF35"/>
<path d="M1275 35.5C1275 26.3873 1284.4 19 1296 19C1307.6 19 1317 26.3873 1317 35.5" stroke="black"/>
<path d="M1315.5 31V34.5L1319 38.5L1320.5 45" stroke="white"/>
<rect x="-0.5" y="0.5" width="49" height="20" rx="4.5" transform="matrix(-1 0 0 1 1320 34)" stroke="black"/>
<path d="M1315.5 33.5V34.5L1316.5 35.5" stroke="white"/>
<path d="M1307.46 95.2308C1307.46 100.074 1309.48 104 1311.96 104C1314.45 104 1313.96 97.638 1313.96 92.7949C1313.96 87.9518 1308.95 85 1306.46 85C1303.98 85 1307.46 90.3877 1307.46 95.2308Z" fill="black"/>
<g clip-path="url(#clip6)">
<rect x="687.198" y="107.598" width="5" height="2" transform="rotate(-36.8076 687.198 107.598)" fill="white"/>
<ellipse cx="689.096" cy="109.3" rx="3.5" ry="1.5" transform="rotate(-36.8076 689.096 109.3)" fill="black"/>
<rect x="687.797" y="108.399" width="5" height="3" transform="rotate(-36.8076 687.797 108.399)" fill="black"/>
<rect x="684.203" y="103.595" width="5" height="5" transform="rotate(-36.8076 684.203 103.595)" fill="#FFDBA5"/>
</g>
<g clip-path="url(#clip7)">
<rect x="677.803" y="100.33" width="2.99068" height="10" transform="rotate(44.7392 677.803 100.33)" fill="#FFDBA5"/>
<rect x="672.875" y="105.302" width="2.99531" height="2" transform="rotate(44.7392 672.875 105.302)" fill="white"/>
<rect x="672.172" y="106.013" width="3.0212" height="3" transform="rotate(44.7392 672.172 106.013)" fill="black"/>
<ellipse cx="671.623" cy="107.59" rx="2.30631" ry="1.5" transform="rotate(44.7392 671.623 107.59)" fill="black"/>
</g>
<rect x="673" y="71" width="19" height="33" rx="9.5" fill="#FFDBA5"/>
<path d="M672 95H692V101C692 103.761 689.761 106 687 106H677C674.239 106 672 103.761 672 101V95Z" fill="#0C3666"/>
<path d="M672 95H692V78C692 75.2386 689.761 73 687 73H677C674.239 73 672 75.2386 672 78V95Z" fill="white"/>
<rect x="668" y="87" width="11" height="17" fill="black"/>
<path d="M678.5 79.5L669.5 86.5H678.5V79.5Z" fill="black" stroke="black"/>
<circle cx="677" cy="91" r="6" fill="#FFDBA5"/>
<path d="M679.481 76.6301C678.925 78.4816 679.601 80.3204 678.689 80.0467C677.777 79.7731 677.489 78.0504 678.044 76.199C678.6 74.3475 679.789 73.0685 680.701 73.3422C681.613 73.6158 680.037 74.7787 679.481 76.6301Z" fill="black"/>
<path d="M702.361 53.4017C701.682 55.3453 701.155 57.1098 700.678 58.7074C700.485 59.3544 700.3 59.974 700.116 60.5671C699.469 62.6574 698.837 64.4263 697.916 66.0009C696.097 69.1097 693.1 71.5514 686.353 74.0214C681.417 75.2557 677.533 75.3314 674.487 74.5932C671.445 73.856 669.211 72.3014 667.573 70.2237C664.275 66.0383 663.361 59.6822 663.361 53.4867C663.361 41.3738 673.249 33.4594 682.961 31.4765C687.809 30.4866 691.412 30.6279 694.092 31.5403C696.756 32.4474 698.551 34.1307 699.773 36.32C701.002 38.5235 701.654 41.2484 701.995 44.2229C702.332 47.1682 702.36 50.3202 702.361 53.4017Z" fill="#FFDBA5" stroke="black"/>
<rect x="681.646" y="78.7825" width="10" height="9" transform="rotate(45 681.646 78.7825)" fill="white"/>
<rect x="667" y="55" width="6" height="2" fill="white"/>
<path d="M673 57.25C673 59.3211 671.657 61 670 61C668.343 61 667 59.3211 667 57.25C667 55.179 668.343 55 670 55C671.657 55 673 55.179 673 57.25Z" fill="white"/>
<circle cx="669" cy="59" r="2" fill="black"/>
<ellipse cx="683" cy="35.5" rx="21" ry="16.5" fill="black"/>
<rect x="658" y="34" width="50" height="21" rx="5" fill="black"/>
<rect x="658" y="42" width="1" height="1" fill="#FFDF35"/>
<rect x="662.5" y="32" width="1" height="1" fill="#FFDF35"/>
<rect x="661.5" y="35" width="1" height="1" fill="#FFDF35"/>
<rect x="660.5" y="35" width="1" height="1" fill="#FFDF35"/>
<rect x="660" y="35" width="1" height="1" fill="#FFDF35"/>
<path d="M662 34.6008C662 34.07 662.668 33.8355 663 34.25V34.25V35.5H662V34.6008Z" fill="#FFDF35"/>
<rect x="658.132" y="39.27" width="1.95404" height="1" transform="rotate(-40.5393 658.132 39.27)" fill="#FFDF35"/>
<rect x="658.113" y="40.1104" width="1.59605" height="1" transform="rotate(-7.21436 658.113 40.1104)" fill="#FFDF35"/>
<path d="M704 35.5C704 26.3873 694.598 19 683 19C671.402 19 662 26.3873 662 35.5" stroke="black"/>
<path d="M663.5 31V34.5L660 38.5L658.5 45" stroke="white"/>
<rect x="658.5" y="34.5" width="49" height="20" rx="4.5" stroke="black"/>
<path d="M663.5 33.5V34.5L662.5 35.5" stroke="white"/>
<path d="M672 95C672 99.9706 669.985 104 667.5 104C665.015 104 665.5 97.4706 665.5 92.5C665.5 87.5294 670.515 84.5 673 84.5C675.485 84.5 672 90.0294 672 95Z" fill="black"/>
<defs>
<clipPath id="clip0">
<rect width="10" height="11" fill="white" transform="translate(920.743 99) rotate(44.74)"/>
</clipPath>
<clipPath id="clip1">
<rect width="16" height="12" fill="white" transform="translate(929 103.99) rotate(-36.81)"/>
</clipPath>
<clipPath id="clip2">
<rect width="10" height="11" fill="white" transform="matrix(-0.710308 0.703891 0.703891 0.710308 1058.26 99)"/>
</clipPath>
<clipPath id="clip3">
<rect width="16" height="12" fill="white" transform="matrix(-0.800627 -0.599163 -0.599163 0.800627 1050 103.99)"/>
</clipPath>
<clipPath id="clip4">
<rect width="10" height="11" fill="white" transform="matrix(-0.800652 -0.599129 -0.599129 0.800652 1298 105.991)"/>
</clipPath>
<clipPath id="clip5">
<rect width="16" height="12" fill="white" transform="matrix(-0.710318 0.703881 0.703881 0.710318 1305.46 96.1069)"/>
</clipPath>
<clipPath id="clip6">
<rect width="10" height="11" fill="white" transform="translate(681 105.991) rotate(-36.8076)"/>
</clipPath>
<clipPath id="clip7">
<rect width="16" height="12" fill="white" transform="translate(673.541 96.1069) rotate(44.7392)"/>
</clipPath>
</defs>
</svg>
