<svg width="1579" height="100" viewBox="0 0 1579 100" fill="none" xmlns="http://www.w3.org/2000/svg">
<g clip-path="url(#clip0)">
<path d="M53.5537 72.9995C56.0531 72.9995 58.5525 72.9995 63.0514 76.9994C67.1925 76.9994 68.55 77.4177 68.55 72.9995C68.55 68.5814 59.6943 57 55.5532 57C51.412 57 53.5537 68.5814 53.5537 72.9995Z" fill="#FFDBA5"/>
<path d="M51.5714 68.7932C54.1428 68.7932 56.7143 68.7932 61.3428 71.9915C65.6033 71.9915 67 72.326 67 68.7932C67 65.2605 57.2621 55 53.0016 55C48.7411 55 51.5714 65.2605 51.5714 68.7932Z" fill="white"/>
<rect x="14" y="55" width="46" height="33" rx="10" fill="#FFDBA5"/>
<rect x="23" y="84" width="9" height="10" fill="#FFDBA5"/>
<rect x="43" y="84" width="9" height="10" fill="#FFDBA5"/>
<path d="M20 73C17.5 73 15 73 10.5 77C6.35786 77 5 77.4183 5 73C5 68.5817 13.8579 57 18 57C22.1421 57 20 68.5817 20 73Z" fill="#FFDBA5"/>
<path d="M22.4304 68.7932C19.8586 68.7932 17.2869 68.7932 12.6578 71.9915C8.39682 71.9915 7 72.326 7 68.7932C7 65.2605 16.739 55 21 55C25.261 55 22.4304 65.2605 22.4304 68.7932Z" fill="white"/>
<path d="M13 65C13 59.4772 17.4772 55 23 55H50C55.5228 55 60 59.4772 60 65V82H13V65Z" fill="white"/>
<path d="M13 79H60V85C60 87.7614 57.7614 90 55 90H18C15.2386 90 13 87.7614 13 85V79Z" fill="#0C3666"/>
<path d="M48 55H52V65H48V55Z" fill="black"/>
<path d="M22 55H26V65H22V55Z" fill="black"/>
<path d="M61.5 37.5C61.5 49.602 50.5818 59.5 37 59.5C23.4182 59.5 12.5 49.602 12.5 37.5C12.5 25.398 23.4182 15.5 37 15.5C50.5818 15.5 61.5 25.398 61.5 37.5Z" fill="#FFDBA5" stroke="black"/>
<ellipse cx="37" cy="19.5" rx="26" ry="16.5" fill="black"/>
<rect x="7" y="18" width="60" height="21" rx="5" fill="black"/>
<rect x="29.9336" y="18.7639" width="9.23875" height="1" transform="rotate(-34.7736 29.9336 18.7639)" fill="#FFDF35"/>
<rect x="34.0642" y="13.6194" width="18.4595" height="1" transform="rotate(57.0268 34.0642 13.6194)" fill="#FFDF35"/>
<rect x="43.8484" y="17.958" width="14.449" height="1" transform="rotate(122.094 43.8484 17.958)" fill="#FFDF35"/>
<rect x="43.9841" y="24.729" width="9.68231" height="1" transform="rotate(141.622 43.9841 24.729)" fill="#FFDF35"/>
<rect x="44.3999" y="24.6113" width="14.726" height="1" transform="rotate(163.433 44.3999 24.6113)" fill="#FFDF35"/>
<rect x="30.5962" y="26" width="6.58402" height="1" transform="rotate(36.6062 30.5962 26)" fill="#FFDF35"/>
<rect x="30.3" y="24.5435" width="13.0533" height="1" transform="rotate(23.4073 30.3 24.5435)" fill="#FFDF35"/>
<rect x="30.3665" y="22.5171" width="12.9298" height="1" transform="rotate(35.1 30.3665 22.5171)" fill="#FFDF35"/>
<rect x="38.7024" y="13.7896" width="10.8347" height="1" transform="rotate(57.0268 38.7024 13.7896)" fill="#FFDF35"/>
<rect x="30.054" y="19.104" width="12.5963" height="1" transform="rotate(-20.4007 30.054 19.104)" fill="#FFDF35"/>
<rect x="30.0889" y="19.6653" width="14.9771" height="1" transform="rotate(15.6029 30.0889 19.6653)" fill="#FFDF35"/>
<path d="M32 17V17C30.8954 17 30 17.8954 30 19V23.72V27.44C30 29.0969 31.3431 30.44 33 30.44H41.28C42.9369 30.44 44.28 29.0969 44.28 27.44V19.28C44.28 18.0208 43.2592 17 42 17V17" stroke="white"/>
<path d="M42 17.5V15C42 14.4477 41.5523 14 41 14H33C32.4477 14 32 14.4477 32 15V17.5" stroke="white"/>
<rect x="24" y="39" width="8" height="2" fill="white"/>
<rect x="42" y="39" width="8" height="2" fill="white"/>
<path d="M32 41.25C32 43.3211 30.2091 45 28 45C25.7909 45 24 43.3211 24 41.25C24 39.179 25.7909 39 28 39C30.2091 39 32 39.179 32 41.25Z" fill="white"/>
<path d="M50 41.25C50 43.3211 48.2091 45 46 45C43.7909 45 42 43.3211 42 41.25C42 39.179 43.7909 39 46 39C48.2091 39 50 39.179 50 41.25Z" fill="white"/>
<rect x="11" y="71" width="52" height="17" fill="black"/>
<path d="M22.4412 61.5L12.25 70.5H61.75L51.5588 61.5H22.4412Z" fill="black" stroke="black"/>
<rect x="23" y="91" width="9" height="2" fill="white"/>
<ellipse cx="27.5" cy="94" rx="4.5" ry="1" fill="black"/>
<rect x="23" y="92" width="9" height="2" fill="black"/>
<rect x="43" y="91" width="9" height="2" fill="white"/>
<ellipse cx="47.5" cy="94" rx="4.5" ry="1" fill="black"/>
<rect x="43" y="92" width="9" height="2" fill="black"/>
<circle cx="28" cy="43" r="2" fill="black"/>
<circle cx="46" cy="43" r="2" fill="black"/>
<path d="M251.554 72.9995C254.053 72.9995 256.552 72.9995 261.051 76.9994C265.193 76.9994 266.55 77.4177 266.55 72.9995C266.55 68.5814 257.694 57 253.553 57C249.412 57 251.554 68.5814 251.554 72.9995Z" fill="#FFDBA5"/>
<path d="M249.571 68.7932C252.143 68.7932 254.714 68.7932 259.343 71.9915C263.603 71.9915 265 72.326 265 68.7932C265 65.2605 255.262 55 251.002 55C246.741 55 249.571 65.2605 249.571 68.7932Z" fill="white"/>
<rect x="212" y="55" width="46" height="33" rx="10" fill="#FFDBA5"/>
<rect x="221" y="84" width="9" height="10" fill="#FFDBA5"/>
<rect x="241" y="84" width="9" height="10" fill="#FFDBA5"/>
<path d="M218 73C215.5 73 213 73 208.5 77C204.358 77 203 77.4183 203 73C203 68.5817 211.858 57 216 57C220.142 57 218 68.5817 218 73Z" fill="#FFDBA5"/>
<path d="M220.43 68.7932C217.859 68.7932 215.287 68.7932 210.658 71.9915C206.397 71.9915 205 72.326 205 68.7932C205 65.2605 214.739 55 219 55C223.261 55 220.43 65.2605 220.43 68.7932Z" fill="white"/>
<path d="M211 65C211 59.4772 215.477 55 221 55H248C253.523 55 258 59.4772 258 65V82H211V65Z" fill="white"/>
<path d="M211 79H258V85C258 87.7614 255.761 90 253 90H216C213.239 90 211 87.7614 211 85V79Z" fill="#0C3666"/>
<path d="M246 55H250V65H246V55Z" fill="black"/>
<path d="M220 55H224V65H220V55Z" fill="black"/>
<path d="M259.5 37.5C259.5 49.602 248.582 59.5 235 59.5C221.418 59.5 210.5 49.602 210.5 37.5C210.5 25.398 221.418 15.5 235 15.5C248.582 15.5 259.5 25.398 259.5 37.5Z" fill="#FFDBA5" stroke="black"/>
<ellipse cx="235" cy="19.5" rx="26" ry="16.5" fill="black"/>
<rect x="205" y="18" width="60" height="21" rx="5" fill="black"/>
<rect x="227.934" y="18.7639" width="9.23875" height="1" transform="rotate(-34.7736 227.934 18.7639)" fill="#FFDF35"/>
<rect x="232.064" y="13.6194" width="18.4595" height="1" transform="rotate(57.0268 232.064 13.6194)" fill="#FFDF35"/>
<rect x="241.848" y="17.958" width="14.449" height="1" transform="rotate(122.094 241.848 17.958)" fill="#FFDF35"/>
<rect x="241.984" y="24.729" width="9.68231" height="1" transform="rotate(141.622 241.984 24.729)" fill="#FFDF35"/>
<rect x="242.4" y="24.6113" width="14.726" height="1" transform="rotate(163.433 242.4 24.6113)" fill="#FFDF35"/>
<rect x="228.596" y="26" width="6.58402" height="1" transform="rotate(36.6062 228.596 26)" fill="#FFDF35"/>
<rect x="228.3" y="24.5435" width="13.0533" height="1" transform="rotate(23.4073 228.3 24.5435)" fill="#FFDF35"/>
<rect x="228.366" y="22.5171" width="12.9298" height="1" transform="rotate(35.1 228.366 22.5171)" fill="#FFDF35"/>
<rect x="236.702" y="13.7896" width="10.8347" height="1" transform="rotate(57.0268 236.702 13.7896)" fill="#FFDF35"/>
<rect x="228.054" y="19.104" width="12.5963" height="1" transform="rotate(-20.4007 228.054 19.104)" fill="#FFDF35"/>
<rect x="228.089" y="19.6653" width="14.9771" height="1" transform="rotate(15.6029 228.089 19.6653)" fill="#FFDF35"/>
<path d="M230 17V17C228.895 17 228 17.8954 228 19V23.72V27.44C228 29.0969 229.343 30.44 231 30.44H239.28C240.937 30.44 242.28 29.0969 242.28 27.44V19.28C242.28 18.0208 241.259 17 240 17V17" stroke="white"/>
<path d="M240 17.5V15C240 14.4477 239.552 14 239 14H231C230.448 14 230 14.4477 230 15V17.5" stroke="white"/>
<rect x="222" y="39" width="8" height="2" fill="white"/>
<rect x="240" y="39" width="8" height="2" fill="white"/>
<path d="M230 41.25C230 43.3211 228.209 45 226 45C223.791 45 222 43.3211 222 41.25C222 39.179 223.791 39 226 39C228.209 39 230 39.179 230 41.25Z" fill="white"/>
<path d="M248 41.25C248 43.3211 246.209 45 244 45C241.791 45 240 43.3211 240 41.25C240 39.179 241.791 39 244 39C246.209 39 248 39.179 248 41.25Z" fill="white"/>
<rect x="209" y="71" width="52" height="17" fill="black"/>
<path d="M220.441 61.5L210.25 70.5H259.75L249.559 61.5H220.441Z" fill="black" stroke="black"/>
<rect x="221" y="91" width="9" height="2" fill="white"/>
<ellipse cx="225.5" cy="94" rx="4.5" ry="1" fill="black"/>
<rect x="221" y="92" width="9" height="2" fill="black"/>
<rect x="241" y="91" width="9" height="2" fill="white"/>
<ellipse cx="245.5" cy="94" rx="4.5" ry="1" fill="black"/>
<rect x="241" y="92" width="9" height="2" fill="black"/>
<circle cx="226" cy="43" r="2" fill="black"/>
<circle cx="244" cy="43" r="2" fill="black"/>
<rect x="113" y="55" width="46" height="33" rx="10" fill="#FFDBA5"/>
<rect x="122" y="84" width="9" height="10" fill="#FFDBA5"/>
<rect x="142" y="84" width="9" height="7" fill="#FFDBA5"/>
<path d="M116.5 67C114.334 65.7508 111.707 68.3088 105.81 69.525C102.222 67.4552 100.837 67.1389 103.045 63.3118C105.253 59.4847 118.713 53.8789 122.301 55.9487C125.889 58.0185 118.708 63.1729 116.5 67Z" fill="#FFDBA5"/>
<path d="M117.815 68.7097C115.588 67.4248 113.36 66.1399 107.752 66.5975C104.061 64.4686 102.684 64.0605 104.449 61.0003C106.214 57.94 119.777 53.9179 123.468 56.0468C127.159 58.1757 119.58 65.6495 117.815 68.7097Z" fill="white"/>
<path d="M112 65C112 59.4772 116.477 55 122 55H149C154.523 55 159 59.4772 159 65V82H112V65Z" fill="white"/>
<path d="M112 79H159V85C159 87.7614 156.761 90 154 90H117C114.239 90 112 87.7614 112 85V79Z" fill="#0C3666"/>
<path d="M121 55H125V65H121V55Z" fill="black"/>
<path d="M147 55H151V65H147V55Z" fill="black"/>
<path d="M160.5 37.5C160.5 49.602 149.582 59.5 136 59.5C122.418 59.5 111.5 49.602 111.5 37.5C111.5 25.398 122.418 15.5 136 15.5C149.582 15.5 160.5 25.398 160.5 37.5Z" fill="#FFDBA5" stroke="black"/>
<ellipse cx="136" cy="19.5" rx="26" ry="16.5" fill="black"/>
<rect x="106" y="18" width="60" height="21" rx="5" fill="black"/>
<rect x="128.934" y="18.7639" width="9.23875" height="1" transform="rotate(-34.7736 128.934 18.7639)" fill="#FFDF35"/>
<rect x="133.064" y="13.6194" width="18.4595" height="1" transform="rotate(57.0268 133.064 13.6194)" fill="#FFDF35"/>
<rect x="142.848" y="17.958" width="14.449" height="1" transform="rotate(122.094 142.848 17.958)" fill="#FFDF35"/>
<rect x="142.984" y="24.729" width="9.68231" height="1" transform="rotate(141.622 142.984 24.729)" fill="#FFDF35"/>
<rect x="143.4" y="24.6113" width="14.726" height="1" transform="rotate(163.433 143.4 24.6113)" fill="#FFDF35"/>
<rect x="129.596" y="26" width="6.58402" height="1" transform="rotate(36.6062 129.596 26)" fill="#FFDF35"/>
<rect x="129.3" y="24.5435" width="13.0533" height="1" transform="rotate(23.4073 129.3 24.5435)" fill="#FFDF35"/>
<rect x="129.366" y="22.5171" width="12.9298" height="1" transform="rotate(35.1 129.366 22.5171)" fill="#FFDF35"/>
<rect x="137.702" y="13.7896" width="10.8347" height="1" transform="rotate(57.0268 137.702 13.7896)" fill="#FFDF35"/>
<rect x="129.054" y="19.104" width="12.5963" height="1" transform="rotate(-20.4007 129.054 19.104)" fill="#FFDF35"/>
<rect x="129.089" y="19.6653" width="14.9771" height="1" transform="rotate(15.6029 129.089 19.6653)" fill="#FFDF35"/>
<path d="M131 17V17C129.895 17 129 17.8954 129 19V23.72V27.44C129 29.0969 130.343 30.44 132 30.44H140.28C141.937 30.44 143.28 29.0969 143.28 27.44V19.28C143.28 18.0208 142.259 17 141 17V17" stroke="white"/>
<path d="M141 17.5V15C141 14.4477 140.552 14 140 14H132C131.448 14 131 14.4477 131 15V17.5" stroke="white"/>
<rect x="123" y="39" width="8" height="2" fill="white"/>
<rect x="141" y="39" width="8" height="2" fill="white"/>
<path d="M131 41.25C131 43.3211 129.209 45 127 45C124.791 45 123 43.3211 123 41.25C123 39.179 124.791 39 127 39C129.209 39 131 39.179 131 41.25Z" fill="white"/>
<path d="M149 41.25C149 43.3211 147.209 45 145 45C142.791 45 141 43.3211 141 41.25C141 39.179 142.791 39 145 39C147.209 39 149 39.179 149 41.25Z" fill="white"/>
<rect x="122" y="91" width="9" height="2" fill="white"/>
<ellipse cx="126.5" cy="94" rx="4.5" ry="1" fill="black"/>
<ellipse cx="146.5" cy="91" rx="4.5" ry="1" fill="black"/>
<rect x="142" y="90" width="9" height="1" fill="black"/>
<rect x="122" y="92" width="9" height="2" fill="black"/>
<circle cx="127" cy="43" r="2" fill="black"/>
<circle cx="145" cy="43" r="2" fill="black"/>
<path d="M120.676 62L111 71H158L148.324 62H120.676Z" fill="black" stroke="black"/>
<rect x="110" y="71" width="48" height="17" fill="black"/>
<path d="M150.5 64C152.914 64.6469 153.077 74.2201 156.387 79.248C160.387 80.3199 161.59 81.0752 162.734 76.8076C163.877 72.54 158.321 59.0612 154.321 57.9894C150.32 56.9176 151.644 59.7324 150.5 64Z" fill="#FFDBA5"/>
<path d="M149.5 65C151.984 65.6655 152.416 70.0666 156.059 74.3539C160.175 75.4566 161.437 76.1411 162.351 72.7287C163.266 69.3164 156.515 56.8852 152.4 55.7825C148.285 54.6798 150.414 61.5876 149.5 65Z" fill="white"/>
<rect width="46" height="33" rx="10" transform="matrix(-1 0 0 1 357 55)" fill="#FFDBA5"/>
<rect width="9" height="10" transform="matrix(-1 0 0 1 348 84)" fill="#FFDBA5"/>
<rect width="9" height="7" transform="matrix(-1 0 0 1 328 84)" fill="#FFDBA5"/>
<path d="M353.5 67C355.666 65.7508 358.293 68.3088 364.19 69.525C367.778 67.4552 369.163 67.1389 366.955 63.3118C364.747 59.4847 351.287 53.8789 347.699 55.9487C344.111 58.0185 351.292 63.1729 353.5 67Z" fill="#FFDBA5"/>
<path d="M352.185 68.7097C354.412 67.4248 356.64 66.1399 362.248 66.5975C365.939 64.4686 367.316 64.0605 365.551 61.0003C363.786 57.94 350.223 53.9179 346.532 56.0468C342.841 58.1757 350.42 65.6495 352.185 68.7097Z" fill="white"/>
<path d="M358 65C358 59.4772 353.523 55 348 55H321C315.477 55 311 59.4772 311 65V82H358V65Z" fill="white"/>
<path d="M358 79H311V85C311 87.7614 313.239 90 316 90H353C355.761 90 358 87.7614 358 85V79Z" fill="#0C3666"/>
<path d="M349 55H345V65H349V55Z" fill="black"/>
<path d="M323 55H319V65H323V55Z" fill="black"/>
<path d="M309.5 37.5C309.5 49.602 320.418 59.5 334 59.5C347.582 59.5 358.5 49.602 358.5 37.5C358.5 25.398 347.582 15.5 334 15.5C320.418 15.5 309.5 25.398 309.5 37.5Z" fill="#FFDBA5" stroke="black"/>
<rect width="8" height="2" transform="matrix(-1 0 0 1 347 39)" fill="white"/>
<rect width="8" height="2" transform="matrix(-1 0 0 1 329 39)" fill="white"/>
<path d="M339 41.25C339 43.3211 340.791 45 343 45C345.209 45 347 43.3211 347 41.25C347 39.179 345.209 39 343 39C340.791 39 339 39.179 339 41.25Z" fill="white"/>
<path d="M321 41.25C321 43.3211 322.791 45 325 45C327.209 45 329 43.3211 329 41.25C329 39.179 327.209 39 325 39C322.791 39 321 39.179 321 41.25Z" fill="white"/>
<rect width="9" height="2" transform="matrix(-1 0 0 1 348 91)" fill="white"/>
<ellipse rx="4.5" ry="1" transform="matrix(-1 0 0 1 343.5 94)" fill="black"/>
<ellipse rx="4.5" ry="1" transform="matrix(-1 0 0 1 323.5 91)" fill="black"/>
<rect width="9" height="1" transform="matrix(-1 0 0 1 328 90)" fill="black"/>
<rect width="9" height="2" transform="matrix(-1 0 0 1 348 92)" fill="black"/>
<circle r="2" transform="matrix(-1 0 0 1 343 43)" fill="black"/>
<circle r="2" transform="matrix(-1 0 0 1 325 43)" fill="black"/>
<path d="M349.324 62L359 71H312L321.676 62H349.324Z" fill="black" stroke="black"/>
<rect width="48" height="17" transform="matrix(-1 0 0 1 360 71)" fill="black"/>
<path d="M319.5 64C317.086 64.6469 316.923 74.2201 313.613 79.248C309.613 80.3199 308.41 81.0752 307.266 76.8076C306.123 72.54 311.679 59.0612 315.679 57.9894C319.68 56.9176 318.356 59.7324 319.5 64Z" fill="#FFDBA5"/>
<path d="M320.5 65C318.016 65.6655 317.584 70.0666 313.941 74.3539C309.825 75.4566 308.563 76.1411 307.649 72.7287C306.734 69.3164 313.485 56.8852 317.6 55.7825C321.715 54.6798 319.586 61.5876 320.5 65Z" fill="white"/>
<ellipse cx="334" cy="19.5" rx="26" ry="16.5" fill="black"/>
<rect x="304" y="18" width="60" height="21" rx="5" fill="black"/>
<rect x="326.934" y="18.7639" width="9.23875" height="1" transform="rotate(-34.7736 326.934 18.7639)" fill="#FFDF35"/>
<rect x="331.064" y="13.6194" width="18.4595" height="1" transform="rotate(57.0268 331.064 13.6194)" fill="#FFDF35"/>
<rect x="340.848" y="17.958" width="14.449" height="1" transform="rotate(122.094 340.848 17.958)" fill="#FFDF35"/>
<rect x="340.984" y="24.729" width="9.68231" height="1" transform="rotate(141.622 340.984 24.729)" fill="#FFDF35"/>
<rect x="341.4" y="24.6113" width="14.726" height="1" transform="rotate(163.433 341.4 24.6113)" fill="#FFDF35"/>
<rect x="327.596" y="26" width="6.58402" height="1" transform="rotate(36.6062 327.596 26)" fill="#FFDF35"/>
<rect x="327.3" y="24.5435" width="13.0533" height="1" transform="rotate(23.4073 327.3 24.5435)" fill="#FFDF35"/>
<rect x="327.366" y="22.5171" width="12.9298" height="1" transform="rotate(35.1 327.366 22.5171)" fill="#FFDF35"/>
<rect x="335.702" y="13.7896" width="10.8347" height="1" transform="rotate(57.0268 335.702 13.7896)" fill="#FFDF35"/>
<rect x="327.054" y="19.104" width="12.5963" height="1" transform="rotate(-20.4007 327.054 19.104)" fill="#FFDF35"/>
<rect x="327.089" y="19.6653" width="14.9771" height="1" transform="rotate(15.6029 327.089 19.6653)" fill="#FFDF35"/>
<path d="M329 17V17C327.895 17 327 17.8954 327 19V23.72V27.44C327 29.0969 328.343 30.44 330 30.44H338.28C339.937 30.44 341.28 29.0969 341.28 27.44V19.28C341.28 18.0208 340.259 17 339 17V17" stroke="white"/>
<path d="M339 17.5V15C339 14.4477 338.552 14 338 14H330C329.448 14 329 14.4477 329 15V17.5" stroke="white"/>
<path d="M1236.55 72.9995C1239.05 72.9995 1241.55 72.9995 1246.05 76.9994C1250.19 76.9994 1251.55 77.4177 1251.55 72.9995C1251.55 68.5814 1242.69 57 1238.55 57C1234.41 57 1236.55 68.5814 1236.55 72.9995Z" fill="#FFDBA5"/>
<path d="M1234.57 68.7932C1237.14 68.7932 1239.71 68.7932 1244.34 71.9915C1248.6 71.9915 1250 72.326 1250 68.7932C1250 65.2605 1240.26 55 1236 55C1231.74 55 1234.57 65.2605 1234.57 68.7932Z" fill="white"/>
<rect x="1197" y="55" width="46" height="33" rx="10" fill="#FFDBA5"/>
<rect x="1206" y="84" width="9" height="10" fill="#FFDBA5"/>
<rect x="1226" y="84" width="9" height="10" fill="#FFDBA5"/>
<path d="M1203 73C1200.5 73 1198 73 1193.5 77C1189.36 77 1188 77.4183 1188 73C1188 68.5817 1196.86 57 1201 57C1205.14 57 1203 68.5817 1203 73Z" fill="#FFDBA5"/>
<path d="M1205.43 68.7932C1202.86 68.7932 1200.29 68.7932 1195.66 71.9915C1191.4 71.9915 1190 72.326 1190 68.7932C1190 65.2605 1199.74 55 1204 55C1208.26 55 1205.43 65.2605 1205.43 68.7932Z" fill="white"/>
<path d="M1196 79H1243V85C1243 87.7614 1240.76 90 1238 90H1201C1198.24 90 1196 87.7614 1196 85V79Z" fill="#0C3666"/>
<path d="M1244.5 37.5C1244.5 49.602 1233.58 59.5 1220 59.5C1206.42 59.5 1195.5 49.602 1195.5 37.5C1195.5 25.398 1206.42 15.5 1220 15.5C1233.58 15.5 1244.5 25.398 1244.5 37.5Z" fill="#FFDBA5" stroke="black"/>
<ellipse cx="1220" cy="19.5" rx="26" ry="16.5" fill="black"/>
<rect x="1190" y="18" width="60" height="21" rx="5" fill="black"/>
<rect x="1206" y="91" width="9" height="2" fill="white"/>
<ellipse cx="1210.5" cy="94" rx="4.5" ry="1" fill="black"/>
<rect x="1206" y="92" width="9" height="2" fill="black"/>
<rect x="1226" y="91" width="9" height="2" fill="white"/>
<ellipse cx="1230.5" cy="94" rx="4.5" ry="1" fill="black"/>
<rect x="1226" y="92" width="9" height="2" fill="black"/>
<path d="M1196 65C1196 59.4772 1200.48 55 1206 55H1233C1238.52 55 1243 59.4772 1243 65V82H1196V65Z" fill="white"/>
<path d="M1434.55 72.9995C1437.05 72.9995 1439.55 72.9995 1444.05 76.9994C1448.19 76.9994 1449.55 77.4177 1449.55 72.9995C1449.55 68.5814 1440.69 57 1436.55 57C1432.41 57 1434.55 68.5814 1434.55 72.9995Z" fill="#FFDBA5"/>
<path d="M1432.57 68.7932C1435.14 68.7932 1437.71 68.7932 1442.34 71.9915C1446.6 71.9915 1448 72.326 1448 68.7932C1448 65.2605 1438.26 55 1434 55C1429.74 55 1432.57 65.2605 1432.57 68.7932Z" fill="white"/>
<rect x="1395" y="55" width="46" height="33" rx="10" fill="#FFDBA5"/>
<rect x="1404" y="84" width="9" height="10" fill="#FFDBA5"/>
<rect x="1424" y="84" width="9" height="10" fill="#FFDBA5"/>
<path d="M1401 73C1398.5 73 1396 73 1391.5 77C1387.36 77 1386 77.4183 1386 73C1386 68.5817 1394.86 57 1399 57C1403.14 57 1401 68.5817 1401 73Z" fill="#FFDBA5"/>
<path d="M1403.43 68.7932C1400.86 68.7932 1398.29 68.7932 1393.66 71.9915C1389.4 71.9915 1388 72.326 1388 68.7932C1388 65.2605 1397.74 55 1402 55C1406.26 55 1403.43 65.2605 1403.43 68.7932Z" fill="white"/>
<path d="M1394 79H1441V85C1441 87.7614 1438.76 90 1436 90H1399C1396.24 90 1394 87.7614 1394 85V79Z" fill="#0C3666"/>
<path d="M1442.5 37.5C1442.5 49.602 1431.58 59.5 1418 59.5C1404.42 59.5 1393.5 49.602 1393.5 37.5C1393.5 25.398 1404.42 15.5 1418 15.5C1431.58 15.5 1442.5 25.398 1442.5 37.5Z" fill="#FFDBA5" stroke="black"/>
<ellipse cx="1418" cy="19.5" rx="26" ry="16.5" fill="black"/>
<rect x="1388" y="18" width="60" height="21" rx="5" fill="black"/>
<rect x="1404" y="91" width="9" height="2" fill="white"/>
<ellipse cx="1408.5" cy="94" rx="4.5" ry="1" fill="black"/>
<rect x="1404" y="92" width="9" height="2" fill="black"/>
<rect x="1424" y="91" width="9" height="2" fill="white"/>
<ellipse cx="1428.5" cy="94" rx="4.5" ry="1" fill="black"/>
<rect x="1424" y="92" width="9" height="2" fill="black"/>
<path d="M1394 65C1394 59.4772 1398.48 55 1404 55H1431C1436.52 55 1441 59.4772 1441 65V82H1394V65Z" fill="white"/>
<rect x="1296" y="55" width="46" height="33" rx="10" fill="#FFDBA5"/>
<rect x="1305" y="84" width="9" height="10" fill="#FFDBA5"/>
<rect x="1325" y="84" width="9" height="7" fill="#FFDBA5"/>
<path d="M1299.5 67C1297.33 65.7508 1294.71 68.3088 1288.81 69.525C1285.22 67.4552 1283.84 67.1389 1286.04 63.3118C1288.25 59.4847 1301.71 53.8789 1305.3 55.9487C1308.89 58.0185 1301.71 63.1729 1299.5 67Z" fill="#FFDBA5"/>
<path d="M1300.82 68.7097C1298.59 67.4248 1296.36 66.1399 1290.75 66.5975C1287.06 64.4686 1285.68 64.0605 1287.45 61.0003C1289.21 57.94 1302.78 53.9179 1306.47 56.0468C1310.16 58.1757 1302.58 65.6495 1300.82 68.7097Z" fill="white"/>
<path d="M1295 79H1342V85C1342 87.7614 1339.76 90 1337 90H1300C1297.24 90 1295 87.7614 1295 85V79Z" fill="#0C3666"/>
<path d="M1343.5 37.5C1343.5 49.602 1332.58 59.5 1319 59.5C1305.42 59.5 1294.5 49.602 1294.5 37.5C1294.5 25.398 1305.42 15.5 1319 15.5C1332.58 15.5 1343.5 25.398 1343.5 37.5Z" fill="#FFDBA5" stroke="black"/>
<ellipse cx="1319" cy="19.5" rx="26" ry="16.5" fill="black"/>
<rect x="1289" y="18" width="60" height="21" rx="5" fill="black"/>
<rect x="1305" y="91" width="9" height="2" fill="white"/>
<ellipse cx="1309.5" cy="94" rx="4.5" ry="1" fill="black"/>
<ellipse cx="1329.5" cy="91" rx="4.5" ry="1" fill="black"/>
<rect x="1325" y="90" width="9" height="1" fill="black"/>
<rect x="1305" y="92" width="9" height="2" fill="black"/>
<path d="M1295 65C1295 59.4772 1299.48 55 1305 55H1332C1337.52 55 1342 59.4772 1342 65V82H1295V65Z" fill="white"/>
<path d="M1333.5 64C1335.91 64.6469 1336.08 74.2201 1339.39 79.248C1343.39 80.3199 1344.59 81.0752 1345.73 76.8076C1346.88 72.54 1341.32 59.0612 1337.32 57.9894C1333.32 56.9176 1334.64 59.7324 1333.5 64Z" fill="#FFDBA5"/>
<path d="M1332.5 65C1334.98 65.6655 1335.42 70.0666 1339.06 74.3539C1343.17 75.4566 1344.44 76.1411 1345.35 72.7287C1346.27 69.3164 1339.52 56.8852 1335.4 55.7825C1331.28 54.6798 1333.41 61.5876 1332.5 65Z" fill="white"/>
<rect width="46" height="33" rx="10" transform="matrix(-1 0 0 1 1540 55)" fill="#FFDBA5"/>
<rect width="9" height="10" transform="matrix(-1 0 0 1 1531 84)" fill="#FFDBA5"/>
<rect width="9" height="7" transform="matrix(-1 0 0 1 1511 84)" fill="#FFDBA5"/>
<path d="M1536.5 67C1538.67 65.7508 1541.29 68.3088 1547.19 69.525C1550.78 67.4552 1552.16 67.1389 1549.96 63.3118C1547.75 59.4847 1534.29 53.8789 1530.7 55.9487C1527.11 58.0185 1534.29 63.1729 1536.5 67Z" fill="#FFDBA5"/>
<path d="M1535.18 68.7097C1537.41 67.4248 1539.64 66.1399 1545.25 66.5975C1548.94 64.4686 1550.32 64.0605 1548.55 61.0003C1546.79 57.94 1533.22 53.9179 1529.53 56.0468C1525.84 58.1757 1533.42 65.6495 1535.18 68.7097Z" fill="white"/>
<path d="M1541 79H1494V85C1494 87.7614 1496.24 90 1499 90H1536C1538.76 90 1541 87.7614 1541 85V79Z" fill="#0C3666"/>
<path d="M1492.5 37.5C1492.5 49.602 1503.42 59.5 1517 59.5C1530.58 59.5 1541.5 49.602 1541.5 37.5C1541.5 25.398 1530.58 15.5 1517 15.5C1503.42 15.5 1492.5 25.398 1492.5 37.5Z" fill="#FFDBA5" stroke="black"/>
<rect width="9" height="2" transform="matrix(-1 0 0 1 1531 91)" fill="white"/>
<ellipse rx="4.5" ry="1" transform="matrix(-1 0 0 1 1526.5 94)" fill="black"/>
<ellipse rx="4.5" ry="1" transform="matrix(-1 0 0 1 1506.5 91)" fill="black"/>
<rect width="9" height="1" transform="matrix(-1 0 0 1 1511 90)" fill="black"/>
<rect width="9" height="2" transform="matrix(-1 0 0 1 1531 92)" fill="black"/>
<ellipse cx="1517" cy="19.5" rx="26" ry="16.5" fill="black"/>
<rect x="1487" y="18" width="60" height="21" rx="5" fill="black"/>
<path d="M1541 65C1541 59.4772 1536.52 55 1531 55H1504C1498.48 55 1494 59.4772 1494 65V82H1541V65Z" fill="white"/>
<path d="M1502.5 64C1500.09 64.6469 1499.92 74.2201 1496.61 79.248C1492.61 80.3199 1491.41 81.0752 1490.27 76.8076C1489.12 72.54 1494.68 59.0612 1498.68 57.9894C1502.68 56.9176 1501.36 59.7324 1502.5 64Z" fill="#FFDBA5"/>
<path d="M1503.5 65C1501.02 65.6655 1500.58 70.0666 1496.94 74.3539C1492.83 75.4566 1491.56 76.1411 1490.65 72.7287C1489.73 69.3164 1496.48 56.8852 1500.6 55.7825C1504.72 54.6798 1502.59 61.5876 1503.5 65Z" fill="white"/>
<rect x="424" y="55" width="19" height="33" rx="9.5" fill="#FFDBA5"/>
<rect x="429" y="84" width="9" height="10" fill="#FFDBA5"/>
<path d="M423 79H443V85C443 87.7614 440.761 90 438 90H428C425.239 90 423 87.7614 423 85V79Z" fill="#0C3666"/>
<path d="M423 79H443V62C443 59.2386 440.761 57 438 57H428C425.239 57 423 59.2386 423 62V79Z" fill="white"/>
<rect x="419" y="71" width="11" height="17" fill="black"/>
<path d="M429.5 63.5L420.5 70.5H429.5V63.5Z" fill="black" stroke="black"/>
<rect x="429" y="91" width="9" height="2" fill="white"/>
<ellipse cx="429.5" cy="93.5" rx="3.5" ry="1.5" fill="black"/>
<rect x="429" y="92" width="9" height="3" fill="black"/>
<circle cx="435" cy="76" r="6" fill="#FFDBA5"/>
<path d="M430.481 60.6301C429.925 62.4816 430.601 64.3204 429.689 64.0467C428.777 63.7731 428.489 62.0504 429.044 60.199C429.6 58.3475 430.789 57.0685 431.701 57.3422C432.613 57.6158 431.037 58.7787 430.481 60.6301Z" fill="black"/>
<path d="M453.361 37.4017C452.682 39.3453 452.155 41.1098 451.678 42.7074C451.485 43.3544 451.3 43.974 451.116 44.5671C450.469 46.6574 449.837 48.4263 448.916 50.0009C447.097 53.1097 444.1 55.5514 437.353 58.0214C432.417 59.2557 428.533 59.3314 425.487 58.5932C422.445 57.856 420.211 56.3014 418.573 54.2237C415.275 50.0383 414.361 43.6822 414.361 37.4867C414.361 25.3738 424.249 17.4594 433.961 15.4765C438.809 14.4866 442.412 14.6279 445.092 15.5403C447.756 16.4474 449.551 18.1307 450.773 20.32C452.002 22.5235 452.654 25.2484 452.995 28.2229C453.332 31.1682 453.36 34.3202 453.361 37.4017Z" fill="#FFDBA5" stroke="black"/>
<rect x="430" y="64" width="10" height="9" fill="white"/>
<rect x="418" y="39" width="6" height="2" fill="white"/>
<path d="M424 41.25C424 43.3211 422.657 45 421 45C419.343 45 418 43.3211 418 41.25C418 39.179 419.343 39 421 39C422.657 39 424 39.179 424 41.25Z" fill="white"/>
<circle cx="420" cy="43" r="2" fill="black"/>
<ellipse cx="434" cy="19.5" rx="21" ry="16.5" fill="black"/>
<rect x="409" y="18" width="50" height="21" rx="5" fill="black"/>
<rect x="409" y="26" width="1" height="1" fill="#FFDF35"/>
<rect x="413.5" y="16" width="1" height="1" fill="#FFDF35"/>
<rect x="412.5" y="19" width="1" height="1" fill="#FFDF35"/>
<rect x="411.5" y="19" width="1" height="1" fill="#FFDF35"/>
<rect x="411" y="19" width="1" height="1" fill="#FFDF35"/>
<path d="M413 18.6008C413 18.07 413.668 17.8355 414 18.25V18.25V19.5H413V18.6008Z" fill="#FFDF35"/>
<rect x="409.132" y="23.27" width="1.95404" height="1" transform="rotate(-40.5393 409.132 23.27)" fill="#FFDF35"/>
<rect x="409.113" y="24.1104" width="1.59605" height="1" transform="rotate(-7.21436 409.113 24.1104)" fill="#FFDF35"/>
<path d="M455 19.5C455 10.3873 445.598 3 434 3C422.402 3 413 10.3873 413 19.5" stroke="black"/>
<path d="M414.5 15V18.5L411 22.5L409.5 29" stroke="white"/>
<rect x="409.5" y="18.5" width="49" height="20" rx="4.5" stroke="black"/>
<path d="M414.5 17.5V18.5L413.5 19.5" stroke="white"/>
<path d="M423 79C423 83.9706 420.985 88 418.5 88C416.015 88 416.5 81.4706 416.5 76.5C416.5 71.5294 421.515 68.5 424 68.5C426.485 68.5 423 74.0294 423 79Z" fill="black"/>
<rect x="622" y="55" width="19" height="33" rx="9.5" fill="#FFDBA5"/>
<rect x="627" y="84" width="9" height="10" fill="#FFDBA5"/>
<path d="M621 79H641V85C641 87.7614 638.761 90 636 90H626C623.239 90 621 87.7614 621 85V79Z" fill="#0C3666"/>
<path d="M621 79H641V62C641 59.2386 638.761 57 636 57H626C623.239 57 621 59.2386 621 62V79Z" fill="white"/>
<rect x="617" y="71" width="11" height="17" fill="black"/>
<path d="M627.5 63.5L618.5 70.5H627.5V63.5Z" fill="black" stroke="black"/>
<rect x="627" y="91" width="9" height="2" fill="white"/>
<ellipse cx="627.5" cy="93.5" rx="3.5" ry="1.5" fill="black"/>
<rect x="627" y="92" width="9" height="3" fill="black"/>
<circle cx="633" cy="76" r="6" fill="#FFDBA5"/>
<path d="M628.481 60.6301C627.925 62.4816 628.601 64.3204 627.689 64.0467C626.777 63.7731 626.489 62.0504 627.044 60.199C627.6 58.3475 628.789 57.0685 629.701 57.3422C630.613 57.6158 629.037 58.7787 628.481 60.6301Z" fill="black"/>
<path d="M651.361 37.4017C650.682 39.3453 650.155 41.1098 649.678 42.7074C649.485 43.3544 649.3 43.974 649.116 44.5671C648.469 46.6574 647.837 48.4263 646.916 50.0009C645.097 53.1097 642.1 55.5514 635.353 58.0214C630.417 59.2557 626.533 59.3314 623.487 58.5932C620.445 57.856 618.211 56.3014 616.573 54.2237C613.275 50.0383 612.361 43.6822 612.361 37.4867C612.361 25.3738 622.249 17.4594 631.961 15.4765C636.809 14.4866 640.412 14.6279 643.092 15.5403C645.756 16.4474 647.551 18.1307 648.773 20.32C650.002 22.5235 650.654 25.2484 650.995 28.2229C651.332 31.1682 651.36 34.3202 651.361 37.4017Z" fill="#FFDBA5" stroke="black"/>
<rect x="628" y="64" width="10" height="9" fill="white"/>
<rect x="616" y="39" width="6" height="2" fill="white"/>
<path d="M622 41.25C622 43.3211 620.657 45 619 45C617.343 45 616 43.3211 616 41.25C616 39.179 617.343 39 619 39C620.657 39 622 39.179 622 41.25Z" fill="white"/>
<circle cx="618" cy="43" r="2" fill="black"/>
<ellipse cx="632" cy="19.5" rx="21" ry="16.5" fill="black"/>
<rect x="607" y="18" width="50" height="21" rx="5" fill="black"/>
<rect x="607" y="26" width="1" height="1" fill="#FFDF35"/>
<rect x="611.5" y="16" width="1" height="1" fill="#FFDF35"/>
<rect x="610.5" y="19" width="1" height="1" fill="#FFDF35"/>
<rect x="609.5" y="19" width="1" height="1" fill="#FFDF35"/>
<rect x="609" y="19" width="1" height="1" fill="#FFDF35"/>
<path d="M611 18.6008C611 18.07 611.668 17.8355 612 18.25V18.25V19.5H611V18.6008Z" fill="#FFDF35"/>
<rect x="607.132" y="23.27" width="1.95404" height="1" transform="rotate(-40.5393 607.132 23.27)" fill="#FFDF35"/>
<rect x="607.113" y="24.1104" width="1.59605" height="1" transform="rotate(-7.21436 607.113 24.1104)" fill="#FFDF35"/>
<path d="M653 19.5C653 10.3873 643.598 3 632 3C620.402 3 611 10.3873 611 19.5" stroke="black"/>
<path d="M612.5 15V18.5L609 22.5L607.5 29" stroke="white"/>
<rect x="607.5" y="18.5" width="49" height="20" rx="4.5" stroke="black"/>
<path d="M612.5 17.5V18.5L611.5 19.5" stroke="white"/>
<path d="M621 79C621 83.9706 618.985 88 616.5 88C614.015 88 614.5 81.4706 614.5 76.5C614.5 71.5294 619.515 68.5 622 68.5C624.485 68.5 621 74.0294 621 79Z" fill="black"/>
<g clip-path="url(#clip1)">
<rect x="720.064" y="89.3672" width="5" height="2" transform="rotate(44.74 720.064 89.3672)" fill="white"/>
<ellipse cx="718.66" cy="91.4949" rx="3.5" ry="1.5" transform="rotate(44.74 718.66 91.4949)" fill="black"/>
<rect x="719.361" y="90.0774" width="5" height="3" transform="rotate(44.74 719.361 90.0774)" fill="black"/>
<rect x="723.584" y="85.8157" width="5" height="5" transform="rotate(44.74 723.584 85.8157)" fill="#FFDBA5"/>
</g>
<g clip-path="url(#clip2)">
<rect x="733.804" y="84.3945" width="2.99068" height="10" transform="rotate(-36.81 733.804 84.3945)" fill="#FFDBA5"/>
<rect x="737.998" y="89.999" width="2.99531" height="2" transform="rotate(-36.81 737.998 89.999)" fill="white"/>
<rect x="738.597" y="90.7996" width="3.0212" height="3" transform="rotate(-36.81 738.597 90.7996)" fill="black"/>
<ellipse cx="740.077" cy="91.574" rx="2.30631" ry="1.5" transform="rotate(-36.81 740.077 91.574)" fill="black"/>
</g>
<rect x="721" y="55" width="19" height="33" rx="9.5" fill="#FFDBA5"/>
<path d="M720 79H740V85C740 87.7614 737.761 90 735 90H725C722.239 90 720 87.7614 720 85V79Z" fill="#0C3666"/>
<path d="M720 79H740V62C740 59.2386 737.761 57 735 57H725C722.239 57 720 59.2386 720 62V79Z" fill="white"/>
<rect x="716" y="71" width="11" height="17" fill="black"/>
<path d="M726.5 63.5L717.5 70.5H726.5V63.5Z" fill="black" stroke="black"/>
<circle cx="741" cy="74" r="6" fill="#FFDBA5"/>
<path d="M727.481 60.6301C726.925 62.4816 727.601 64.3204 726.689 64.0467C725.777 63.7731 725.489 62.0504 726.044 60.199C726.6 58.3475 727.789 57.0685 728.701 57.3422C729.613 57.6158 728.037 58.7787 727.481 60.6301Z" fill="black"/>
<path d="M750.361 37.4017C749.682 39.3453 749.155 41.1098 748.678 42.7074C748.485 43.3544 748.3 43.974 748.116 44.5671C747.469 46.6574 746.837 48.4263 745.916 50.0009C744.097 53.1097 741.1 55.5514 734.353 58.0214C729.417 59.2557 725.533 59.3314 722.487 58.5932C719.445 57.856 717.211 56.3014 715.573 54.2237C712.275 50.0383 711.361 43.6822 711.361 37.4867C711.361 25.3738 721.249 17.4594 730.961 15.4765C735.809 14.4866 739.412 14.6279 742.092 15.5403C744.756 16.4474 746.551 18.1307 747.773 20.32C749.002 22.5235 749.654 25.2484 749.995 28.2229C750.332 31.1682 750.36 34.3202 750.361 37.4017Z" fill="#FFDBA5" stroke="black"/>
<rect x="739.066" y="58.8855" width="11.4399" height="9" transform="rotate(64.3057 739.066 58.8855)" fill="white"/>
<rect x="715" y="39" width="6" height="2" fill="white"/>
<path d="M721 41.25C721 43.3211 719.657 45 718 45C716.343 45 715 43.3211 715 41.25C715 39.179 716.343 39 718 39C719.657 39 721 39.179 721 41.25Z" fill="white"/>
<circle cx="717" cy="43" r="2" fill="black"/>
<ellipse cx="731" cy="19.5" rx="21" ry="16.5" fill="black"/>
<rect x="706" y="18" width="50" height="21" rx="5" fill="black"/>
<rect x="706" y="26" width="1" height="1" fill="#FFDF35"/>
<rect x="710.5" y="16" width="1" height="1" fill="#FFDF35"/>
<rect x="709.5" y="19" width="1" height="1" fill="#FFDF35"/>
<rect x="708.5" y="19" width="1" height="1" fill="#FFDF35"/>
<rect x="708" y="19" width="1" height="1" fill="#FFDF35"/>
<path d="M710 18.6008C710 18.07 710.668 17.8355 711 18.25V18.25V19.5H710V18.6008Z" fill="#FFDF35"/>
<rect x="706.132" y="23.27" width="1.95404" height="1" transform="rotate(-40.5393 706.132 23.27)" fill="#FFDF35"/>
<rect x="706.113" y="24.1104" width="1.59605" height="1" transform="rotate(-7.21436 706.113 24.1104)" fill="#FFDF35"/>
<path d="M752 19.5C752 10.3873 742.598 3 731 3C719.402 3 710 10.3873 710 19.5" stroke="black"/>
<path d="M711.5 15V18.5L708 22.5L706.5 29" stroke="white"/>
<rect x="706.5" y="18.5" width="49" height="20" rx="4.5" stroke="black"/>
<path d="M711.5 17.5V18.5L710.5 19.5" stroke="white"/>
<path d="M720 79C720 83.9706 717.985 88 715.5 88C713.015 88 713.5 81.4706 713.5 76.5C713.5 71.5294 718.515 68.5 721 68.5C723.485 68.5 720 74.0294 720 79Z" fill="black"/>
<rect width="19" height="33" rx="9.5" transform="matrix(-1 0 0 1 1130 55)" fill="#FFDBA5"/>
<rect width="9" height="10" transform="matrix(-1 0 0 1 1125 84)" fill="#FFDBA5"/>
<path d="M1131 79H1111V85C1111 87.7614 1113.24 90 1116 90H1126C1128.76 90 1131 87.7614 1131 85V79Z" fill="#0C3666"/>
<path d="M1131 79H1111V62C1111 59.2386 1113.24 57 1116 57H1126C1128.76 57 1131 59.2386 1131 62V79Z" fill="white"/>
<rect width="11" height="17" transform="matrix(-1 0 0 1 1135 71)" fill="black"/>
<path d="M1124.5 63.5L1133.5 70.5H1124.5V63.5Z" fill="black" stroke="black"/>
<rect width="9" height="2" transform="matrix(-1 0 0 1 1125 91)" fill="white"/>
<ellipse rx="3.5" ry="1.5" transform="matrix(-1 0 0 1 1124.5 93.5)" fill="black"/>
<rect width="9" height="3" transform="matrix(-1 0 0 1 1125 92)" fill="black"/>
<circle r="6" transform="matrix(-1 0 0 1 1119 76)" fill="#FFDBA5"/>
<path d="M1123.52 60.6301C1124.07 62.4816 1123.4 64.3204 1124.31 64.0467C1125.22 63.7731 1125.51 62.0504 1124.96 60.199C1124.4 58.3475 1123.21 57.0685 1122.3 57.3422C1121.39 57.6158 1122.96 58.7787 1123.52 60.6301Z" fill="black"/>
<path d="M1100.64 37.4017C1101.32 39.3453 1101.84 41.1098 1102.32 42.7074C1102.52 43.3544 1102.7 43.974 1102.88 44.5671C1103.53 46.6574 1104.16 48.4263 1105.08 50.0009C1106.9 53.1097 1109.9 55.5514 1116.65 58.0214C1121.58 59.2557 1125.47 59.3314 1128.51 58.5932C1131.56 57.856 1133.79 56.3014 1135.43 54.2237C1138.73 50.0383 1139.64 43.6822 1139.64 37.4867C1139.64 25.3738 1129.75 17.4594 1120.04 15.4765C1115.19 14.4866 1111.59 14.6279 1108.91 15.5403C1106.24 16.4474 1104.45 18.1307 1103.23 20.32C1102 22.5235 1101.35 25.2484 1101.01 28.2229C1100.67 31.1682 1100.64 34.3202 1100.64 37.4017Z" fill="#FFDBA5" stroke="black"/>
<rect width="10" height="9" transform="matrix(-1 0 0 1 1124 64)" fill="white"/>
<rect width="6" height="2" transform="matrix(-1 0 0 1 1136 39)" fill="white"/>
<path d="M1130 41.25C1130 43.3211 1131.34 45 1133 45C1134.66 45 1136 43.3211 1136 41.25C1136 39.179 1134.66 39 1133 39C1131.34 39 1130 39.179 1130 41.25Z" fill="white"/>
<circle r="2" transform="matrix(-1 0 0 1 1134 43)" fill="black"/>
<ellipse rx="21" ry="16.5" transform="matrix(-1 0 0 1 1120 19.5)" fill="black"/>
<rect width="50" height="21" rx="5" transform="matrix(-1 0 0 1 1145 18)" fill="black"/>
<rect width="1" height="1" transform="matrix(-1 0 0 1 1145 26)" fill="#FFDF35"/>
<rect width="1" height="1" transform="matrix(-1 0 0 1 1140.5 16)" fill="#FFDF35"/>
<rect width="1" height="1" transform="matrix(-1 0 0 1 1141.5 19)" fill="#FFDF35"/>
<rect width="1" height="1" transform="matrix(-1 0 0 1 1142.5 19)" fill="#FFDF35"/>
<rect width="1" height="1" transform="matrix(-1 0 0 1 1143 19)" fill="#FFDF35"/>
<path d="M1141 18.6008C1141 18.07 1140.33 17.8355 1140 18.25V18.25V19.5H1141V18.6008Z" fill="#FFDF35"/>
<rect width="1.95404" height="1" transform="matrix(-0.75996 -0.649969 -0.649969 0.75996 1144.87 23.27)" fill="#FFDF35"/>
<rect width="1.59605" height="1" transform="matrix(-0.992083 -0.125582 -0.125582 0.992083 1144.89 24.1104)" fill="#FFDF35"/>
<path d="M1099 19.5C1099 10.3873 1108.4 3 1120 3C1131.6 3 1141 10.3873 1141 19.5" stroke="black"/>
<path d="M1139.5 15V18.5L1143 22.5L1144.5 29" stroke="white"/>
<rect x="-0.5" y="0.5" width="49" height="20" rx="4.5" transform="matrix(-1 0 0 1 1144 18)" stroke="black"/>
<path d="M1139.5 17.5V18.5L1140.5 19.5" stroke="white"/>
<path d="M1131.46 79.2308C1131.46 84.0739 1133.48 88 1135.96 88C1138.45 88 1137.96 81.638 1137.96 76.7949C1137.96 71.9518 1132.95 69 1130.46 69C1127.98 69 1131.46 74.3877 1131.46 79.2308Z" fill="black"/>
<rect width="19" height="33" rx="9.5" transform="matrix(-1 0 0 1 932 55)" fill="#FFDBA5"/>
<rect width="9" height="10" transform="matrix(-1 0 0 1 927 84)" fill="#FFDBA5"/>
<path d="M933 79H913V85C913 87.7614 915.239 90 918 90H928C930.761 90 933 87.7614 933 85V79Z" fill="#0C3666"/>
<path d="M933 79H913V62C913 59.2386 915.239 57 918 57H928C930.761 57 933 59.2386 933 62V79Z" fill="white"/>
<rect width="11" height="17" transform="matrix(-1 0 0 1 937 71)" fill="black"/>
<path d="M926.5 63.5L935.5 70.5H926.5V63.5Z" fill="black" stroke="black"/>
<rect width="9" height="2" transform="matrix(-1 0 0 1 927 91)" fill="white"/>
<ellipse rx="3.5" ry="1.5" transform="matrix(-1 0 0 1 926.5 93.5)" fill="black"/>
<rect width="9" height="3" transform="matrix(-1 0 0 1 927 92)" fill="black"/>
<circle r="6" transform="matrix(-1 0 0 1 921 76)" fill="#FFDBA5"/>
<path d="M925.519 60.6301C926.075 62.4816 925.399 64.3204 926.311 64.0467C927.223 63.7731 927.511 62.0504 926.956 60.199C926.4 58.3475 925.211 57.0685 924.299 57.3422C923.387 57.6158 924.963 58.7787 925.519 60.6301Z" fill="black"/>
<path d="M902.639 37.4017C903.318 39.3453 903.845 41.1098 904.322 42.7074C904.515 43.3544 904.7 43.974 904.884 44.5671C905.531 46.6574 906.163 48.4263 907.084 50.0009C908.903 53.1097 911.9 55.5514 918.647 58.0214C923.583 59.2557 927.467 59.3314 930.513 58.5932C933.555 57.856 935.789 56.3014 937.427 54.2237C940.725 50.0383 941.639 43.6822 941.639 37.4867C941.639 25.3738 931.751 17.4594 922.039 15.4765C917.191 14.4866 913.588 14.6279 910.908 15.5403C908.244 16.4474 906.449 18.1307 905.227 20.32C903.998 22.5235 903.346 25.2484 903.005 28.2229C902.668 31.1682 902.64 34.3202 902.639 37.4017Z" fill="#FFDBA5" stroke="black"/>
<rect width="10" height="9" transform="matrix(-1 0 0 1 926 64)" fill="white"/>
<rect width="6" height="2" transform="matrix(-1 0 0 1 938 39)" fill="white"/>
<path d="M932 41.25C932 43.3211 933.343 45 935 45C936.657 45 938 43.3211 938 41.25C938 39.179 936.657 39 935 39C933.343 39 932 39.179 932 41.25Z" fill="white"/>
<circle r="2" transform="matrix(-1 0 0 1 936 43)" fill="black"/>
<ellipse rx="21" ry="16.5" transform="matrix(-1 0 0 1 922 19.5)" fill="black"/>
<rect width="50" height="21" rx="5" transform="matrix(-1 0 0 1 947 18)" fill="black"/>
<rect width="1" height="1" transform="matrix(-1 0 0 1 947 26)" fill="#FFDF35"/>
<rect width="1" height="1" transform="matrix(-1 0 0 1 942.5 16)" fill="#FFDF35"/>
<rect width="1" height="1" transform="matrix(-1 0 0 1 943.5 19)" fill="#FFDF35"/>
<rect width="1" height="1" transform="matrix(-1 0 0 1 944.5 19)" fill="#FFDF35"/>
<rect width="1" height="1" transform="matrix(-1 0 0 1 945 19)" fill="#FFDF35"/>
<path d="M943 18.6008C943 18.07 942.332 17.8355 942 18.25V18.25V19.5H943V18.6008Z" fill="#FFDF35"/>
<rect width="1.95404" height="1" transform="matrix(-0.75996 -0.649969 -0.649969 0.75996 946.868 23.27)" fill="#FFDF35"/>
<rect width="1.59605" height="1" transform="matrix(-0.992083 -0.125582 -0.125582 0.992083 946.887 24.1104)" fill="#FFDF35"/>
<path d="M901 19.5C901 10.3873 910.402 3 922 3C933.598 3 943 10.3873 943 19.5" stroke="black"/>
<path d="M941.5 15V18.5L945 22.5L946.5 29" stroke="white"/>
<rect x="-0.5" y="0.5" width="49" height="20" rx="4.5" transform="matrix(-1 0 0 1 946 18)" stroke="black"/>
<path d="M941.5 17.5V18.5L942.5 19.5" stroke="white"/>
<path d="M933.463 79.2308C933.463 84.0739 935.478 88 937.962 88C940.447 88 939.962 81.638 939.962 76.7949C939.962 71.9518 934.948 69 932.464 69C929.979 69 933.463 74.3877 933.463 79.2308Z" fill="black"/>
<g clip-path="url(#clip3)">
<rect width="5" height="2" transform="matrix(-0.710308 0.703891 0.703891 0.710308 833.936 89.3672)" fill="white"/>
<ellipse rx="3.5" ry="1.5" transform="matrix(-0.710308 0.703891 0.703891 0.710308 835.34 91.4949)" fill="black"/>
<rect width="5" height="3" transform="matrix(-0.710308 0.703891 0.703891 0.710308 834.639 90.0774)" fill="black"/>
<rect width="5" height="5" transform="matrix(-0.710308 0.703891 0.703891 0.710308 830.416 85.8157)" fill="#FFDBA5"/>
</g>
<g clip-path="url(#clip4)">
<rect width="2.99068" height="10" transform="matrix(-0.800627 -0.599163 -0.599163 0.800627 820.196 84.3945)" fill="#FFDBA5"/>
<rect width="2.99531" height="2" transform="matrix(-0.800627 -0.599163 -0.599163 0.800627 816.002 89.999)" fill="white"/>
<rect width="3.0212" height="3" transform="matrix(-0.800627 -0.599163 -0.599163 0.800627 815.403 90.7996)" fill="black"/>
<ellipse rx="2.30631" ry="1.5" transform="matrix(-0.800627 -0.599163 -0.599163 0.800627 813.923 91.574)" fill="black"/>
</g>
<rect width="19" height="33" rx="9.5" transform="matrix(-1 0 0 1 833 55)" fill="#FFDBA5"/>
<path d="M834 79H814V85C814 87.7614 816.239 90 819 90H829C831.761 90 834 87.7614 834 85V79Z" fill="#0C3666"/>
<path d="M834 79H814V62C814 59.2386 816.239 57 819 57H829C831.761 57 834 59.2386 834 62V79Z" fill="white"/>
<rect width="11" height="17" transform="matrix(-1 0 0 1 838 71)" fill="black"/>
<path d="M827.5 63.5L836.5 70.5H827.5V63.5Z" fill="black" stroke="black"/>
<circle r="6" transform="matrix(-1 0 0 1 813 74)" fill="#FFDBA5"/>
<path d="M826.519 60.6301C827.075 62.4816 826.399 64.3204 827.311 64.0467C828.223 63.7731 828.511 62.0504 827.956 60.199C827.4 58.3475 826.211 57.0685 825.299 57.3422C824.387 57.6158 825.963 58.7787 826.519 60.6301Z" fill="black"/>
<path d="M803.639 37.4017C804.318 39.3453 804.845 41.1098 805.322 42.7074C805.515 43.3544 805.7 43.974 805.884 44.5671C806.531 46.6574 807.163 48.4263 808.084 50.0009C809.903 53.1097 812.9 55.5514 819.647 58.0214C824.583 59.2557 828.467 59.3314 831.513 58.5932C834.555 57.856 836.789 56.3014 838.427 54.2237C841.725 50.0383 842.639 43.6822 842.639 37.4867C842.639 25.3738 832.751 17.4594 823.039 15.4765C818.191 14.4866 814.588 14.6279 811.908 15.5403C809.244 16.4474 807.449 18.1307 806.227 20.32C804.998 22.5235 804.346 25.2484 804.005 28.2229C803.668 31.1682 803.64 34.3202 803.639 37.4017Z" fill="#FFDBA5" stroke="black"/>
<rect width="11.4399" height="9" transform="matrix(-0.433569 0.901121 0.901121 0.433569 814.934 58.8855)" fill="white"/>
<rect width="6" height="2" transform="matrix(-1 0 0 1 839 39)" fill="white"/>
<path d="M833 41.25C833 43.3211 834.343 45 836 45C837.657 45 839 43.3211 839 41.25C839 39.179 837.657 39 836 39C834.343 39 833 39.179 833 41.25Z" fill="white"/>
<circle r="2" transform="matrix(-1 0 0 1 837 43)" fill="black"/>
<ellipse rx="21" ry="16.5" transform="matrix(-1 0 0 1 823 19.5)" fill="black"/>
<rect width="50" height="21" rx="5" transform="matrix(-1 0 0 1 848 18)" fill="black"/>
<rect width="1" height="1" transform="matrix(-1 0 0 1 848 26)" fill="#FFDF35"/>
<rect width="1" height="1" transform="matrix(-1 0 0 1 843.5 16)" fill="#FFDF35"/>
<rect width="1" height="1" transform="matrix(-1 0 0 1 844.5 19)" fill="#FFDF35"/>
<rect width="1" height="1" transform="matrix(-1 0 0 1 845.5 19)" fill="#FFDF35"/>
<rect width="1" height="1" transform="matrix(-1 0 0 1 846 19)" fill="#FFDF35"/>
<path d="M844 18.6008C844 18.07 843.332 17.8355 843 18.25V18.25V19.5H844V18.6008Z" fill="#FFDF35"/>
<rect width="1.95404" height="1" transform="matrix(-0.75996 -0.649969 -0.649969 0.75996 847.868 23.27)" fill="#FFDF35"/>
<rect width="1.59605" height="1" transform="matrix(-0.992083 -0.125582 -0.125582 0.992083 847.887 24.1104)" fill="#FFDF35"/>
<path d="M802 19.5C802 10.3873 811.402 3 823 3C834.598 3 844 10.3873 844 19.5" stroke="black"/>
<path d="M842.5 15V18.5L846 22.5L847.5 29" stroke="white"/>
<rect x="-0.5" y="0.5" width="49" height="20" rx="4.5" transform="matrix(-1 0 0 1 847 18)" stroke="black"/>
<path d="M842.5 17.5V18.5L843.5 19.5" stroke="white"/>
<path d="M834.463 79.2308C834.463 84.0739 836.478 88 838.962 88C841.447 88 840.962 81.638 840.962 76.7949C840.962 71.9518 835.948 69 833.464 69C830.979 69 834.463 74.3877 834.463 79.2308Z" fill="black"/>
<g clip-path="url(#clip5)">
<rect width="5" height="2" transform="matrix(-0.800652 -0.599129 -0.599129 0.800652 1016.8 91.5979)" fill="white"/>
<ellipse rx="3.5" ry="1.5" transform="matrix(-0.800652 -0.599129 -0.599129 0.800652 1014.9 93.3001)" fill="black"/>
<rect width="5" height="3" transform="matrix(-0.800652 -0.599129 -0.599129 0.800652 1016.2 92.3987)" fill="black"/>
<rect width="5" height="5" transform="matrix(-0.800652 -0.599129 -0.599129 0.800652 1019.8 87.5947)" fill="#FFDBA5"/>
</g>
<g clip-path="url(#clip6)">
<rect width="2.99068" height="10" transform="matrix(-0.710318 0.703881 0.703881 0.710318 1026.2 84.3303)" fill="#FFDBA5"/>
<rect width="2.99531" height="2" transform="matrix(-0.710318 0.703881 0.703881 0.710318 1031.12 89.3025)" fill="white"/>
<rect width="3.0212" height="3" transform="matrix(-0.710318 0.703881 0.703881 0.710318 1031.83 90.0127)" fill="black"/>
<ellipse rx="2.30631" ry="1.5" transform="matrix(-0.710318 0.703881 0.703881 0.710318 1032.38 91.59)" fill="black"/>
</g>
<rect width="19" height="33" rx="9.5" transform="matrix(-1 0 0 1 1031 55)" fill="#FFDBA5"/>
<path d="M1032 79H1012V85C1012 87.7614 1014.24 90 1017 90H1027C1029.76 90 1032 87.7614 1032 85V79Z" fill="#0C3666"/>
<path d="M1032 79H1012V62C1012 59.2386 1014.24 57 1017 57H1027C1029.76 57 1032 59.2386 1032 62V79Z" fill="white"/>
<rect width="11" height="17" transform="matrix(-1 0 0 1 1036 71)" fill="black"/>
<path d="M1025.5 63.5L1034.5 70.5H1025.5V63.5Z" fill="black" stroke="black"/>
<circle r="6" transform="matrix(-1 0 0 1 1027 75)" fill="#FFDBA5"/>
<path d="M1024.52 60.6301C1025.07 62.4816 1024.4 64.3204 1025.31 64.0467C1026.22 63.7731 1026.51 62.0504 1025.96 60.199C1025.4 58.3475 1024.21 57.0685 1023.3 57.3422C1022.39 57.6158 1023.96 58.7787 1024.52 60.6301Z" fill="black"/>
<path d="M1001.64 37.4017C1002.32 39.3453 1002.84 41.1098 1003.32 42.7074C1003.52 43.3544 1003.7 43.974 1003.88 44.5671C1004.53 46.6574 1005.16 48.4263 1006.08 50.0009C1007.9 53.1097 1010.9 55.5514 1017.65 58.0214C1022.58 59.2557 1026.47 59.3314 1029.51 58.5932C1032.56 57.856 1034.79 56.3014 1036.43 54.2237C1039.73 50.0383 1040.64 43.6822 1040.64 37.4867C1040.64 25.3738 1030.75 17.4594 1021.04 15.4765C1016.19 14.4866 1012.59 14.6279 1009.91 15.5403C1007.24 16.4474 1005.45 18.1307 1004.23 20.32C1003 22.5235 1002.35 25.2484 1002.01 28.2229C1001.67 31.1682 1001.64 34.3202 1001.64 37.4017Z" fill="#FFDBA5" stroke="black"/>
<rect width="10" height="9" transform="matrix(-0.707107 0.707107 0.707107 0.707107 1022.35 62.7825)" fill="white"/>
<rect width="6" height="2" transform="matrix(-1 0 0 1 1037 39)" fill="white"/>
<path d="M1031 41.25C1031 43.3211 1032.34 45 1034 45C1035.66 45 1037 43.3211 1037 41.25C1037 39.179 1035.66 39 1034 39C1032.34 39 1031 39.179 1031 41.25Z" fill="white"/>
<circle r="2" transform="matrix(-1 0 0 1 1035 43)" fill="black"/>
<ellipse rx="21" ry="16.5" transform="matrix(-1 0 0 1 1021 19.5)" fill="black"/>
<rect width="50" height="21" rx="5" transform="matrix(-1 0 0 1 1046 18)" fill="black"/>
<rect width="1" height="1" transform="matrix(-1 0 0 1 1046 26)" fill="#FFDF35"/>
<rect width="1" height="1" transform="matrix(-1 0 0 1 1041.5 16)" fill="#FFDF35"/>
<rect width="1" height="1" transform="matrix(-1 0 0 1 1042.5 19)" fill="#FFDF35"/>
<rect width="1" height="1" transform="matrix(-1 0 0 1 1043.5 19)" fill="#FFDF35"/>
<rect width="1" height="1" transform="matrix(-1 0 0 1 1044 19)" fill="#FFDF35"/>
<path d="M1042 18.6008C1042 18.07 1041.33 17.8355 1041 18.25V18.25V19.5H1042V18.6008Z" fill="#FFDF35"/>
<rect width="1.95404" height="1" transform="matrix(-0.75996 -0.649969 -0.649969 0.75996 1045.87 23.27)" fill="#FFDF35"/>
<rect width="1.59605" height="1" transform="matrix(-0.992083 -0.125582 -0.125582 0.992083 1045.89 24.1104)" fill="#FFDF35"/>
<path d="M1000 19.5C1000 10.3873 1009.4 3 1021 3C1032.6 3 1042 10.3873 1042 19.5" stroke="black"/>
<path d="M1040.5 15V18.5L1044 22.5L1045.5 29" stroke="white"/>
<rect x="-0.5" y="0.5" width="49" height="20" rx="4.5" transform="matrix(-1 0 0 1 1045 18)" stroke="black"/>
<path d="M1040.5 17.5V18.5L1041.5 19.5" stroke="white"/>
<path d="M1032.46 79.2308C1032.46 84.0739 1034.48 88 1036.96 88C1039.45 88 1038.96 81.638 1038.96 76.7949C1038.96 71.9518 1033.95 69 1031.46 69C1028.98 69 1032.46 74.3877 1032.46 79.2308Z" fill="black"/>
<g clip-path="url(#clip7)">
<rect x="537.198" y="91.5979" width="5" height="2" transform="rotate(-36.8076 537.198 91.5979)" fill="white"/>
<ellipse cx="539.096" cy="93.3001" rx="3.5" ry="1.5" transform="rotate(-36.8076 539.096 93.3001)" fill="black"/>
<rect x="537.797" y="92.3987" width="5" height="3" transform="rotate(-36.8076 537.797 92.3987)" fill="black"/>
<rect x="534.203" y="87.5947" width="5" height="5" transform="rotate(-36.8076 534.203 87.5947)" fill="#FFDBA5"/>
</g>
<g clip-path="url(#clip8)">
<rect x="527.803" y="84.3303" width="2.99068" height="10" transform="rotate(44.7392 527.803 84.3303)" fill="#FFDBA5"/>
<rect x="522.875" y="89.3025" width="2.99531" height="2" transform="rotate(44.7392 522.875 89.3025)" fill="white"/>
<rect x="522.172" y="90.0127" width="3.0212" height="3" transform="rotate(44.7392 522.172 90.0127)" fill="black"/>
<ellipse cx="521.623" cy="91.59" rx="2.30631" ry="1.5" transform="rotate(44.7392 521.623 91.59)" fill="black"/>
</g>
<rect x="523" y="55" width="19" height="33" rx="9.5" fill="#FFDBA5"/>
<path d="M522 79H542V85C542 87.7614 539.761 90 537 90H527C524.239 90 522 87.7614 522 85V79Z" fill="#0C3666"/>
<path d="M522 79H542V62C542 59.2386 539.761 57 537 57H527C524.239 57 522 59.2386 522 62V79Z" fill="white"/>
<rect x="518" y="71" width="11" height="17" fill="black"/>
<path d="M528.5 63.5L519.5 70.5H528.5V63.5Z" fill="black" stroke="black"/>
<circle cx="527" cy="75" r="6" fill="#FFDBA5"/>
<path d="M529.481 60.6301C528.925 62.4816 529.601 64.3204 528.689 64.0467C527.777 63.7731 527.489 62.0504 528.044 60.199C528.6 58.3475 529.789 57.0685 530.701 57.3422C531.613 57.6158 530.037 58.7787 529.481 60.6301Z" fill="black"/>
<path d="M552.361 37.4017C551.682 39.3453 551.155 41.1098 550.678 42.7074C550.485 43.3544 550.3 43.974 550.116 44.5671C549.469 46.6574 548.837 48.4263 547.916 50.0009C546.097 53.1097 543.1 55.5514 536.353 58.0214C531.417 59.2557 527.533 59.3314 524.487 58.5932C521.445 57.856 519.211 56.3014 517.573 54.2237C514.275 50.0383 513.361 43.6822 513.361 37.4867C513.361 25.3738 523.249 17.4594 532.961 15.4765C537.809 14.4866 541.412 14.6279 544.092 15.5403C546.756 16.4474 548.551 18.1307 549.773 20.32C551.002 22.5235 551.654 25.2484 551.995 28.2229C552.332 31.1682 552.36 34.3202 552.361 37.4017Z" fill="#FFDBA5" stroke="black"/>
<rect x="531.646" y="62.7825" width="10" height="9" transform="rotate(45 531.646 62.7825)" fill="white"/>
<rect x="517" y="39" width="6" height="2" fill="white"/>
<path d="M523 41.25C523 43.3211 521.657 45 520 45C518.343 45 517 43.3211 517 41.25C517 39.179 518.343 39 520 39C521.657 39 523 39.179 523 41.25Z" fill="white"/>
<circle cx="519" cy="43" r="2" fill="black"/>
<ellipse cx="533" cy="19.5" rx="21" ry="16.5" fill="black"/>
<rect x="508" y="18" width="50" height="21" rx="5" fill="black"/>
<rect x="508" y="26" width="1" height="1" fill="#FFDF35"/>
<rect x="512.5" y="16" width="1" height="1" fill="#FFDF35"/>
<rect x="511.5" y="19" width="1" height="1" fill="#FFDF35"/>
<rect x="510.5" y="19" width="1" height="1" fill="#FFDF35"/>
<rect x="510" y="19" width="1" height="1" fill="#FFDF35"/>
<path d="M512 18.6008C512 18.07 512.668 17.8355 513 18.25V18.25V19.5H512V18.6008Z" fill="#FFDF35"/>
<rect x="508.132" y="23.27" width="1.95404" height="1" transform="rotate(-40.5393 508.132 23.27)" fill="#FFDF35"/>
<rect x="508.113" y="24.1104" width="1.59605" height="1" transform="rotate(-7.21436 508.113 24.1104)" fill="#FFDF35"/>
<path d="M554 19.5C554 10.3873 544.598 3 533 3C521.402 3 512 10.3873 512 19.5" stroke="black"/>
<path d="M513.5 15V18.5L510 22.5L508.5 29" stroke="white"/>
<rect x="508.5" y="18.5" width="49" height="20" rx="4.5" stroke="black"/>
<path d="M513.5 17.5V18.5L512.5 19.5" stroke="white"/>
<path d="M522 79C522 83.9706 519.985 88 517.5 88C515.015 88 515.5 81.4706 515.5 76.5C515.5 71.5294 520.515 68.5 523 68.5C525.485 68.5 522 74.0294 522 79Z" fill="black"/>
</g>
<defs>
<clipPath id="clip0">
<rect width="1579" height="100" fill="white"/>
</clipPath>
<clipPath id="clip1">
<rect width="10" height="11" fill="white" transform="translate(720.743 83) rotate(44.74)"/>
</clipPath>
<clipPath id="clip2">
<rect width="16" height="12" fill="white" transform="translate(729 87.9895) rotate(-36.81)"/>
</clipPath>
<clipPath id="clip3">
<rect width="10" height="11" fill="white" transform="matrix(-0.710308 0.703891 0.703891 0.710308 833.257 83)"/>
</clipPath>
<clipPath id="clip4">
<rect width="16" height="12" fill="white" transform="matrix(-0.800627 -0.599163 -0.599163 0.800627 825 87.9895)"/>
</clipPath>
<clipPath id="clip5">
<rect width="10" height="11" fill="white" transform="matrix(-0.800652 -0.599129 -0.599129 0.800652 1023 89.9912)"/>
</clipPath>
<clipPath id="clip6">
<rect width="16" height="12" fill="white" transform="matrix(-0.710318 0.703881 0.703881 0.710318 1030.46 80.1069)"/>
</clipPath>
<clipPath id="clip7">
<rect width="10" height="11" fill="white" transform="translate(531 89.9912) rotate(-36.8076)"/>
</clipPath>
<clipPath id="clip8">
<rect width="16" height="12" fill="white" transform="translate(523.541 80.1069) rotate(44.7392)"/>
</clipPath>
</defs>
</svg>
