<svg width="87" height="64" viewBox="0 0 87 64" fill="none" xmlns="http://www.w3.org/2000/svg">
<g clip-path="url(#clip0)">
<path d="M2 5C2 3.34315 3.34315 2 5 2H82C83.6569 2 85 3.34315 85 5V62H2V5Z" fill="white"/>
<path d="M3 6C3 4.34315 4.34315 3 6 3H81C82.6569 3 84 4.34315 84 6V61H3V6Z" fill="black"/>
<path d="M3 6C3 4.34315 4.34315 3 6 3H81C82.6569 3 84 4.34315 84 6V8H3V6Z" fill="#4B4B4B"/>
<circle cx="7" cy="6" r="1" fill="#FF6464"/>
<circle cx="12" cy="6" r="1" fill="#FFBA52"/>
<circle cx="17" cy="6" r="1" fill="#54A800"/>
<rect x="34" y="4" width="2" height="2" rx="0.5" fill="#165579"/>
<path d="M36 4.5H37.5C37.7761 4.5 38 4.72386 38 5V6.5H36V4.5Z" fill="#165579"/>
<rect x="34" y="5" width="4" height="2" rx="0.5" fill="#5BADDC"/>
<path d="M13.9873 14.2871L8.17773 12.0107V10.3408L15.6836 13.6631V14.9463L8.17773 18.2773V16.5898L13.9873 14.2871ZM24.4902 21.3271H16.4395V20H24.4902V21.3271Z" fill="white"/>
<path d="M38.4854 45V32.2031H42.6689C44.0576 32.2031 45.1006 32.4902 45.7979 33.0645C46.501 33.6387 46.8525 34.4883 46.8525 35.6133C46.8525 36.2109 46.6826 36.7412 46.3428 37.2041C46.0029 37.6611 45.54 38.0156 44.9541 38.2676C45.6455 38.4609 46.1904 38.8301 46.5889 39.375C46.9932 39.9141 47.1953 40.5586 47.1953 41.3086C47.1953 42.457 46.8232 43.3594 46.0791 44.0156C45.335 44.6719 44.2832 45 42.9238 45H38.4854ZM40.1729 39.0146V43.6201H42.959C43.7441 43.6201 44.3623 43.418 44.8135 43.0137C45.2705 42.6035 45.499 42.041 45.499 41.3262C45.499 39.7852 44.6611 39.0146 42.9854 39.0146H40.1729ZM40.1729 37.6611H42.7217C43.46 37.6611 44.0488 37.4766 44.4883 37.1074C44.9336 36.7383 45.1562 36.2373 45.1562 35.6045C45.1562 34.9014 44.9512 34.3916 44.541 34.0752C44.1309 33.7529 43.5068 33.5918 42.6689 33.5918H40.1729V37.6611ZM49.0146 40.1572C49.0146 39.2256 49.1963 38.3877 49.5596 37.6436C49.9287 36.8994 50.4385 36.3252 51.0889 35.9209C51.7451 35.5166 52.4922 35.3145 53.3301 35.3145C54.625 35.3145 55.6709 35.7627 56.4678 36.6592C57.2705 37.5557 57.6719 38.748 57.6719 40.2363V40.3506C57.6719 41.2764 57.4932 42.1084 57.1357 42.8467C56.7842 43.5791 56.2773 44.1504 55.6152 44.5605C54.959 44.9707 54.2031 45.1758 53.3477 45.1758C52.0586 45.1758 51.0127 44.7275 50.21 43.8311C49.4131 42.9346 49.0146 41.748 49.0146 40.2715V40.1572ZM50.6494 40.3506C50.6494 41.4053 50.8926 42.252 51.3789 42.8906C51.8711 43.5293 52.5273 43.8486 53.3477 43.8486C54.1738 43.8486 54.8301 43.5264 55.3164 42.8818C55.8027 42.2314 56.0459 41.3232 56.0459 40.1572C56.0459 39.1143 55.7969 38.2705 55.2988 37.626C54.8066 36.9756 54.1504 36.6504 53.3301 36.6504C52.5273 36.6504 51.8799 36.9697 51.3877 37.6084C50.8955 38.2471 50.6494 39.1611 50.6494 40.3506ZM67.7617 40.3506C67.7617 41.8037 67.4277 42.9727 66.7598 43.8574C66.0918 44.7363 65.1953 45.1758 64.0703 45.1758C62.8691 45.1758 61.9404 44.751 61.2842 43.9014L61.2051 45H59.7109V31.5H61.3369V36.5361C61.9932 35.7217 62.8984 35.3145 64.0527 35.3145C65.207 35.3145 66.1123 35.751 66.7686 36.624C67.4307 37.4971 67.7617 38.6924 67.7617 40.21V40.3506ZM66.1357 40.166C66.1357 39.0586 65.9219 38.2031 65.4941 37.5996C65.0664 36.9961 64.4512 36.6943 63.6484 36.6943C62.5762 36.6943 61.8057 37.1924 61.3369 38.1885V42.3018C61.835 43.2979 62.6113 43.7959 63.666 43.7959C64.4453 43.7959 65.0518 43.4941 65.4854 42.8906C65.9189 42.2871 66.1357 41.3789 66.1357 40.166ZM75.6895 45C75.5957 44.8125 75.5195 44.4785 75.4609 43.998C74.7051 44.7832 73.8027 45.1758 72.7539 45.1758C71.8164 45.1758 71.0459 44.9121 70.4424 44.3848C69.8447 43.8516 69.5459 43.1777 69.5459 42.3633C69.5459 41.373 69.9209 40.6055 70.6709 40.0605C71.4268 39.5098 72.4873 39.2344 73.8525 39.2344H75.4346V38.4873C75.4346 37.9189 75.2646 37.4678 74.9248 37.1338C74.585 36.7939 74.084 36.624 73.4219 36.624C72.8418 36.624 72.3555 36.7705 71.9629 37.0635C71.5703 37.3564 71.374 37.7109 71.374 38.127H69.7393C69.7393 37.6523 69.9062 37.1953 70.2402 36.7559C70.5801 36.3105 71.0371 35.959 71.6113 35.7012C72.1914 35.4434 72.8271 35.3145 73.5186 35.3145C74.6143 35.3145 75.4727 35.5898 76.0938 36.1406C76.7148 36.6855 77.0371 37.4385 77.0605 38.3994V42.7764C77.0605 43.6494 77.1719 44.3438 77.3945 44.8594V45H75.6895ZM72.9912 43.7607C73.501 43.7607 73.9844 43.6289 74.4414 43.3652C74.8984 43.1016 75.2295 42.7588 75.4346 42.3369V40.3857H74.1602C72.168 40.3857 71.1719 40.9688 71.1719 42.1348C71.1719 42.6445 71.3418 43.043 71.6816 43.3301C72.0215 43.6172 72.458 43.7607 72.9912 43.7607Z" fill="white"/>
<rect x="12.5" y="31.5" width="17" height="17" rx="1.5" fill="url(#paint0_linear)" stroke="#404040" stroke-width="3"/>
<g clip-path="url(#clip1)">
<circle cx="17.5" cy="33.5" r="1.5" fill="url(#paint1_linear)"/>
<circle cx="20.5" cy="38.5" r="1.5" fill="url(#paint2_linear)"/>
<circle cx="20.5" cy="38.5" r="1.5" fill="url(#paint3_linear)"/>
<circle cx="18.5" cy="42.5" r="1.5" fill="url(#paint4_linear)"/>
<circle cx="23.5" cy="38.5" r="1.5" fill="url(#paint5_linear)"/>
<circle cx="14.5" cy="38.5" r="1.5" fill="url(#paint6_linear)"/>
<circle cx="21.5" cy="45.5" r="1.5" fill="url(#paint7_linear)"/>
<circle cx="19.5" cy="35.5" r="1.5" fill="url(#paint8_linear)"/>
<circle cx="23.5" cy="36.5" r="1.5" fill="url(#paint9_linear)"/>
<circle cx="26.5" cy="46.5" r="1.5" fill="url(#paint10_linear)"/>
<circle cx="24.5" cy="44.5" r="1.5" fill="url(#paint11_linear)"/>
<circle cx="23.5" cy="40.5" r="1.5" fill="url(#paint12_linear)"/>
<circle cx="26.5" cy="34.5" r="1.5" fill="url(#paint13_linear)"/>
<circle cx="16.5" cy="46.5" r="1.5" fill="url(#paint14_linear)"/>
<circle cx="17.5" cy="39.5" r="1.5" fill="url(#paint15_linear)"/>
<circle cx="23.5" cy="47.5" r="1.5" fill="url(#paint16_linear)"/>
<circle cx="18.5" cy="45.5" r="1.5" fill="url(#paint17_linear)"/>
<circle cx="26.5" cy="38.5" r="1.5" fill="url(#paint18_linear)"/>
<circle cx="16.5" cy="36.5" r="1.5" fill="url(#paint19_linear)"/>
<circle cx="26.5" cy="42.5" r="1.5" fill="url(#paint20_linear)"/>
<circle cx="20.5" cy="42.5" r="1.5" fill="url(#paint21_linear)"/>
<circle cx="15.5" cy="42.5" r="1.5" fill="url(#paint22_linear)"/>
<circle cx="21.5" cy="33.5" r="1.5" fill="url(#paint23_linear)"/>
</g>
</g>
<defs>
<linearGradient id="paint0_linear" x1="21" y1="30" x2="21" y2="50" gradientUnits="userSpaceOnUse">
<stop stop-color="#8F9192"/>
<stop offset="1" stop-color="#AFAFAF"/>
</linearGradient>
<linearGradient id="paint1_linear" x1="17.5" y1="32" x2="17.5" y2="35" gradientUnits="userSpaceOnUse">
<stop stop-color="#5F4C42"/>
<stop offset="1"/>
</linearGradient>
<linearGradient id="paint2_linear" x1="20.5" y1="37" x2="20.5" y2="40" gradientUnits="userSpaceOnUse">
<stop stop-color="#5F4C42"/>
<stop offset="1"/>
</linearGradient>
<linearGradient id="paint3_linear" x1="20.5" y1="37" x2="20.5" y2="40" gradientUnits="userSpaceOnUse">
<stop stop-color="#5F4C42"/>
<stop offset="1"/>
</linearGradient>
<linearGradient id="paint4_linear" x1="18.5" y1="41" x2="18.5" y2="44" gradientUnits="userSpaceOnUse">
<stop stop-color="#5F4C42"/>
<stop offset="1"/>
</linearGradient>
<linearGradient id="paint5_linear" x1="23.5" y1="37" x2="23.5" y2="40" gradientUnits="userSpaceOnUse">
<stop stop-color="#5F4C42"/>
<stop offset="1"/>
</linearGradient>
<linearGradient id="paint6_linear" x1="14.5" y1="37" x2="14.5" y2="40" gradientUnits="userSpaceOnUse">
<stop stop-color="#5F4C42"/>
<stop offset="1"/>
</linearGradient>
<linearGradient id="paint7_linear" x1="21.5" y1="44" x2="21.5" y2="47" gradientUnits="userSpaceOnUse">
<stop stop-color="#5F4C42"/>
<stop offset="1"/>
</linearGradient>
<linearGradient id="paint8_linear" x1="19.5" y1="34" x2="19.5" y2="37" gradientUnits="userSpaceOnUse">
<stop stop-color="#5F4C42"/>
<stop offset="1"/>
</linearGradient>
<linearGradient id="paint9_linear" x1="23.5" y1="35" x2="23.5" y2="38" gradientUnits="userSpaceOnUse">
<stop stop-color="#5F4C42"/>
<stop offset="1"/>
</linearGradient>
<linearGradient id="paint10_linear" x1="26.5" y1="45" x2="26.5" y2="48" gradientUnits="userSpaceOnUse">
<stop stop-color="#5F4C42"/>
<stop offset="1"/>
</linearGradient>
<linearGradient id="paint11_linear" x1="24.5" y1="43" x2="24.5" y2="46" gradientUnits="userSpaceOnUse">
<stop stop-color="#5F4C42"/>
<stop offset="1"/>
</linearGradient>
<linearGradient id="paint12_linear" x1="23.5" y1="39" x2="23.5" y2="42" gradientUnits="userSpaceOnUse">
<stop stop-color="#5F4C42"/>
<stop offset="1"/>
</linearGradient>
<linearGradient id="paint13_linear" x1="26.5" y1="33" x2="26.5" y2="36" gradientUnits="userSpaceOnUse">
<stop stop-color="#5F4C42"/>
<stop offset="1"/>
</linearGradient>
<linearGradient id="paint14_linear" x1="16.5" y1="45" x2="16.5" y2="48" gradientUnits="userSpaceOnUse">
<stop stop-color="#5F4C42"/>
<stop offset="1"/>
</linearGradient>
<linearGradient id="paint15_linear" x1="17.5" y1="38" x2="17.5" y2="41" gradientUnits="userSpaceOnUse">
<stop stop-color="#5F4C42"/>
<stop offset="1"/>
</linearGradient>
<linearGradient id="paint16_linear" x1="23.5" y1="46" x2="23.5" y2="49" gradientUnits="userSpaceOnUse">
<stop stop-color="#5F4C42"/>
<stop offset="1"/>
</linearGradient>
<linearGradient id="paint17_linear" x1="18.5" y1="44" x2="18.5" y2="47" gradientUnits="userSpaceOnUse">
<stop stop-color="#5F4C42"/>
<stop offset="1"/>
</linearGradient>
<linearGradient id="paint18_linear" x1="26.5" y1="37" x2="26.5" y2="40" gradientUnits="userSpaceOnUse">
<stop stop-color="#5F4C42"/>
<stop offset="1"/>
</linearGradient>
<linearGradient id="paint19_linear" x1="16.5" y1="35" x2="16.5" y2="38" gradientUnits="userSpaceOnUse">
<stop stop-color="#5F4C42"/>
<stop offset="1"/>
</linearGradient>
<linearGradient id="paint20_linear" x1="26.5" y1="41" x2="26.5" y2="44" gradientUnits="userSpaceOnUse">
<stop stop-color="#5F4C42"/>
<stop offset="1"/>
</linearGradient>
<linearGradient id="paint21_linear" x1="20.5" y1="41" x2="20.5" y2="44" gradientUnits="userSpaceOnUse">
<stop stop-color="#5F4C42"/>
<stop offset="1"/>
</linearGradient>
<linearGradient id="paint22_linear" x1="15.5" y1="41" x2="15.5" y2="44" gradientUnits="userSpaceOnUse">
<stop stop-color="#5F4C42"/>
<stop offset="1"/>
</linearGradient>
<linearGradient id="paint23_linear" x1="21.5" y1="32" x2="21.5" y2="35" gradientUnits="userSpaceOnUse">
<stop stop-color="#5F4C42"/>
<stop offset="1"/>
</linearGradient>
<clipPath id="clip0">
<rect width="87" height="64" fill="white"/>
</clipPath>
<clipPath id="clip1">
<rect width="14" height="14" fill="white" transform="translate(14 33)"/>
</clipPath>
</defs>
</svg>
