<svg width="87" height="64" viewBox="0 0 87 64" fill="none" xmlns="http://www.w3.org/2000/svg">
<g clip-path="url(#clip0)">
<path d="M2 5C2 3.34315 3.34315 2 5 2H82C83.6569 2 85 3.34315 85 5V62H2V5Z" fill="white"/>
<path d="M3 6C3 4.34315 4.34315 3 6 3H81C82.6569 3 84 4.34315 84 6V61H3V6Z" fill="black"/>
<path d="M3 6C3 4.34315 4.34315 3 6 3H81C82.6569 3 84 4.34315 84 6V8H3V6Z" fill="#4B4B4B"/>
<circle cx="7" cy="6" r="1" fill="#FF6464"/>
<circle cx="12" cy="6" r="1" fill="#FFBA52"/>
<circle cx="17" cy="6" r="1" fill="#54A800"/>
<rect x="34" y="4" width="2" height="2" rx="0.5" fill="#165579"/>
<path d="M36 4.5H37.5C37.7761 4.5 38 4.72386 38 5V6.5H36V4.5Z" fill="#165579"/>
<rect x="34" y="5" width="4" height="2" rx="0.5" fill="#5BADDC"/>
<path d="M13.9873 14.2871L8.17773 12.0107V10.3408L15.6836 13.6631V14.9463L8.17773 18.2773V16.5898L13.9873 14.2871ZM24.4902 21.3271H16.4395V20H24.4902V21.3271Z" fill="white"/>
<path d="M43.8467 32.2031H45.543V41.2646C45.543 42.4893 45.1738 43.4473 44.4355 44.1387C43.7031 44.8301 42.7246 45.1758 41.5 45.1758C40.2285 45.1758 39.2383 44.8506 38.5293 44.2002C37.8203 43.5498 37.4658 42.6387 37.4658 41.4668H39.1533C39.1533 42.1992 39.3525 42.7705 39.751 43.1807C40.1553 43.5908 40.7383 43.7959 41.5 43.7959C42.1973 43.7959 42.7598 43.5762 43.1875 43.1367C43.6211 42.6973 43.8408 42.082 43.8467 41.291V32.2031ZM52.1084 45.1758C50.8193 45.1758 49.7705 44.7539 48.9619 43.9102C48.1533 43.0605 47.749 41.9268 47.749 40.5088V40.21C47.749 39.2666 47.9277 38.4258 48.2852 37.6875C48.6484 36.9434 49.1523 36.3633 49.7969 35.9473C50.4473 35.5254 51.1504 35.3145 51.9062 35.3145C53.1426 35.3145 54.1035 35.7217 54.7891 36.5361C55.4746 37.3506 55.8174 38.5166 55.8174 40.0342V40.7109H49.375C49.3984 41.6484 49.6709 42.4072 50.1924 42.9873C50.7197 43.5615 51.3877 43.8486 52.1963 43.8486C52.7705 43.8486 53.2568 43.7314 53.6553 43.4971C54.0537 43.2627 54.4023 42.9521 54.7012 42.5654L55.6943 43.3389C54.8975 44.5635 53.7021 45.1758 52.1084 45.1758ZM51.9062 36.6504C51.25 36.6504 50.6992 36.8906 50.2539 37.3711C49.8086 37.8457 49.5332 38.5137 49.4277 39.375H54.1914V39.252C54.1445 38.4258 53.9219 37.7871 53.5234 37.3359C53.125 36.8789 52.5859 36.6504 51.9062 36.6504ZM59.4736 45H57.8477V31.5H59.4736V45ZM63.8506 45H62.2246V31.5H63.8506V45ZM69.5723 42.6182L71.7871 35.4902H73.5273L69.7041 46.4678C69.1123 48.0498 68.1719 48.8408 66.8828 48.8408L66.5752 48.8145L65.9688 48.7002V47.3818L66.4082 47.417C66.959 47.417 67.3867 47.3057 67.6914 47.083C68.002 46.8604 68.2568 46.4531 68.4561 45.8613L68.8164 44.8945L65.4238 35.4902H67.1992L69.5723 42.6182Z" fill="white"/>
<rect x="12.5" y="31.5" width="17" height="17" rx="1.5" fill="url(#paint0_linear)" stroke="#404040" stroke-width="3"/>
<g clip-path="url(#clip1)">
<rect x="24.2353" y="35" width="5" height="1" rx="0.5" transform="rotate(13.6072 24.2353 35)" fill="url(#paint1_linear)"/>
<rect x="14.2353" y="34" width="5" height="1" rx="0.5" transform="rotate(13.6072 14.2353 34)" fill="url(#paint2_linear)"/>
<rect x="17.2353" y="37" width="5" height="1" rx="0.5" transform="rotate(13.6072 17.2353 37)" fill="url(#paint3_linear)"/>
<rect x="19.2353" y="35" width="5" height="1" rx="0.5" transform="rotate(13.6072 19.2353 35)" fill="url(#paint4_linear)"/>
<rect x="24.2353" y="39" width="5" height="1" rx="0.5" transform="rotate(13.6072 24.2353 39)" fill="url(#paint5_linear)"/>
<rect x="22.2353" y="44" width="5" height="1" rx="0.5" transform="rotate(13.6072 22.2353 44)" fill="url(#paint6_linear)"/>
<rect x="23.2353" y="36" width="5" height="1" rx="0.5" transform="rotate(13.6072 23.2353 36)" fill="url(#paint7_linear)"/>
<rect x="21.2353" y="33" width="5" height="1" rx="0.5" transform="rotate(13.6072 21.2353 33)" fill="url(#paint8_linear)"/>
<rect x="14.2353" y="35" width="5" height="1" rx="0.5" transform="rotate(13.6072 14.2353 35)" fill="url(#paint9_linear)"/>
<rect x="14.2353" y="35" width="5" height="1" rx="0.5" transform="rotate(13.6072 14.2353 35)" fill="url(#paint10_linear)"/>
<rect x="14.2353" y="35" width="5" height="1" rx="0.5" transform="rotate(13.6072 14.2353 35)" fill="url(#paint11_linear)"/>
<rect x="14.2353" y="35" width="5" height="1" rx="0.5" transform="rotate(13.6072 14.2353 35)" fill="url(#paint12_linear)"/>
<rect x="24.2353" y="43" width="5" height="1" rx="0.5" transform="rotate(13.6072 24.2353 43)" fill="url(#paint13_linear)"/>
<rect x="22.2353" y="45" width="5" height="1" rx="0.5" transform="rotate(13.6072 22.2353 45)" fill="url(#paint14_linear)"/>
<rect x="20.2353" y="38" width="5" height="1" rx="0.5" transform="rotate(13.6072 20.2353 38)" fill="url(#paint15_linear)"/>
<rect x="20.2353" y="46" width="5" height="1" rx="0.5" transform="rotate(13.6072 20.2353 46)" fill="url(#paint16_linear)"/>
<rect x="13.2353" y="39" width="5" height="1" rx="0.5" transform="rotate(13.6072 13.2353 39)" fill="url(#paint17_linear)"/>
<rect x="13.2353" y="41" width="5" height="1" rx="0.5" transform="rotate(13.6072 13.2353 41)" fill="url(#paint18_linear)"/>
<rect x="14.2353" y="37" width="5" height="1" rx="0.5" transform="rotate(13.6072 14.2353 37)" fill="url(#paint19_linear)"/>
<rect x="17.2353" y="33" width="5" height="1" rx="0.5" transform="rotate(13.6072 17.2353 33)" fill="url(#paint20_linear)"/>
<rect x="17.2353" y="39" width="5" height="1" rx="0.5" transform="rotate(13.6072 17.2353 39)" fill="url(#paint21_linear)"/>
<rect x="22.2353" y="41" width="5" height="1" rx="0.5" transform="rotate(13.6072 22.2353 41)" fill="url(#paint22_linear)"/>
<rect x="21.2353" y="39" width="5" height="1" rx="0.5" transform="rotate(13.6072 21.2353 39)" fill="url(#paint23_linear)"/>
<rect x="26.2353" y="41" width="5" height="1" rx="0.5" transform="rotate(13.6072 26.2353 41)" fill="url(#paint24_linear)"/>
<rect x="21.2353" y="37" width="5" height="1" rx="0.5" transform="rotate(13.6072 21.2353 37)" fill="url(#paint25_linear)"/>
<rect x="15.2353" y="39" width="5" height="1" rx="0.5" transform="rotate(13.6072 15.2353 39)" fill="url(#paint26_linear)"/>
<rect x="13.2353" y="43" width="5" height="1" rx="0.5" transform="rotate(13.6072 13.2353 43)" fill="url(#paint27_linear)"/>
<rect x="17.2353" y="42" width="5" height="1" rx="0.5" transform="rotate(13.6072 17.2353 42)" fill="url(#paint28_linear)"/>
<rect x="20.2353" y="42" width="5" height="1" rx="0.5" transform="rotate(13.6072 20.2353 42)" fill="url(#paint29_linear)"/>
<rect x="14.2353" y="44" width="5" height="1" rx="0.5" transform="rotate(13.6072 14.2353 44)" fill="url(#paint30_linear)"/>
<rect x="16.2353" y="41" width="5" height="1" rx="0.5" transform="rotate(13.6072 16.2353 41)" fill="url(#paint31_linear)"/>
<rect x="17.2353" y="43" width="5" height="1" rx="0.5" transform="rotate(13.6072 17.2353 43)" fill="url(#paint32_linear)"/>
<rect x="15.2353" y="40" width="5" height="1" rx="0.5" transform="rotate(13.6072 15.2353 40)" fill="url(#paint33_linear)"/>
</g>
</g>
<defs>
<linearGradient id="paint0_linear" x1="21" y1="30" x2="21" y2="50" gradientUnits="userSpaceOnUse">
<stop stop-color="#8F9192"/>
<stop offset="1" stop-color="#AFAFAF"/>
</linearGradient>
<linearGradient id="paint1_linear" x1="26.7353" y1="35" x2="26.7353" y2="36" gradientUnits="userSpaceOnUse">
<stop stop-color="white" stop-opacity="0.6"/>
<stop offset="1" stop-color="white" stop-opacity="0.87"/>
</linearGradient>
<linearGradient id="paint2_linear" x1="16.7353" y1="34" x2="16.7353" y2="35" gradientUnits="userSpaceOnUse">
<stop stop-color="white" stop-opacity="0.6"/>
<stop offset="1" stop-color="white" stop-opacity="0.87"/>
</linearGradient>
<linearGradient id="paint3_linear" x1="19.7353" y1="37" x2="19.7353" y2="38" gradientUnits="userSpaceOnUse">
<stop stop-color="white" stop-opacity="0.6"/>
<stop offset="1" stop-color="white" stop-opacity="0.87"/>
</linearGradient>
<linearGradient id="paint4_linear" x1="21.7353" y1="35" x2="21.7353" y2="36" gradientUnits="userSpaceOnUse">
<stop stop-color="white" stop-opacity="0.6"/>
<stop offset="1" stop-color="white" stop-opacity="0.87"/>
</linearGradient>
<linearGradient id="paint5_linear" x1="26.7353" y1="39" x2="26.7353" y2="40" gradientUnits="userSpaceOnUse">
<stop stop-color="white" stop-opacity="0.6"/>
<stop offset="1" stop-color="white" stop-opacity="0.87"/>
</linearGradient>
<linearGradient id="paint6_linear" x1="24.7353" y1="44" x2="24.7353" y2="45" gradientUnits="userSpaceOnUse">
<stop stop-color="white" stop-opacity="0.6"/>
<stop offset="1" stop-color="white" stop-opacity="0.87"/>
</linearGradient>
<linearGradient id="paint7_linear" x1="25.7353" y1="36" x2="25.7353" y2="37" gradientUnits="userSpaceOnUse">
<stop stop-color="white" stop-opacity="0.6"/>
<stop offset="1" stop-color="white" stop-opacity="0.87"/>
</linearGradient>
<linearGradient id="paint8_linear" x1="23.7353" y1="33" x2="23.7353" y2="34" gradientUnits="userSpaceOnUse">
<stop stop-color="white" stop-opacity="0.6"/>
<stop offset="1" stop-color="white" stop-opacity="0.87"/>
</linearGradient>
<linearGradient id="paint9_linear" x1="16.7353" y1="35" x2="16.7353" y2="36" gradientUnits="userSpaceOnUse">
<stop stop-color="white" stop-opacity="0.6"/>
<stop offset="1" stop-color="white" stop-opacity="0.87"/>
</linearGradient>
<linearGradient id="paint10_linear" x1="16.7353" y1="35" x2="16.7353" y2="36" gradientUnits="userSpaceOnUse">
<stop stop-color="white" stop-opacity="0.6"/>
<stop offset="1" stop-color="white" stop-opacity="0.87"/>
</linearGradient>
<linearGradient id="paint11_linear" x1="16.7353" y1="35" x2="16.7353" y2="36" gradientUnits="userSpaceOnUse">
<stop stop-color="white" stop-opacity="0.6"/>
<stop offset="1" stop-color="white" stop-opacity="0.87"/>
</linearGradient>
<linearGradient id="paint12_linear" x1="16.7353" y1="35" x2="16.7353" y2="36" gradientUnits="userSpaceOnUse">
<stop stop-color="white" stop-opacity="0.6"/>
<stop offset="1" stop-color="white" stop-opacity="0.87"/>
</linearGradient>
<linearGradient id="paint13_linear" x1="26.7353" y1="43" x2="26.7353" y2="44" gradientUnits="userSpaceOnUse">
<stop stop-color="white" stop-opacity="0.6"/>
<stop offset="1" stop-color="white" stop-opacity="0.87"/>
</linearGradient>
<linearGradient id="paint14_linear" x1="24.7353" y1="45" x2="24.7353" y2="46" gradientUnits="userSpaceOnUse">
<stop stop-color="white" stop-opacity="0.6"/>
<stop offset="1" stop-color="white" stop-opacity="0.87"/>
</linearGradient>
<linearGradient id="paint15_linear" x1="22.7353" y1="38" x2="22.7353" y2="39" gradientUnits="userSpaceOnUse">
<stop stop-color="white" stop-opacity="0.6"/>
<stop offset="1" stop-color="white" stop-opacity="0.87"/>
</linearGradient>
<linearGradient id="paint16_linear" x1="22.7353" y1="46" x2="22.7353" y2="47" gradientUnits="userSpaceOnUse">
<stop stop-color="white" stop-opacity="0.6"/>
<stop offset="1" stop-color="white" stop-opacity="0.87"/>
</linearGradient>
<linearGradient id="paint17_linear" x1="15.7353" y1="39" x2="15.7353" y2="40" gradientUnits="userSpaceOnUse">
<stop stop-color="white" stop-opacity="0.6"/>
<stop offset="1" stop-color="white" stop-opacity="0.87"/>
</linearGradient>
<linearGradient id="paint18_linear" x1="15.7353" y1="41" x2="15.7353" y2="42" gradientUnits="userSpaceOnUse">
<stop stop-color="white" stop-opacity="0.6"/>
<stop offset="1" stop-color="white" stop-opacity="0.87"/>
</linearGradient>
<linearGradient id="paint19_linear" x1="16.7353" y1="37" x2="16.7353" y2="38" gradientUnits="userSpaceOnUse">
<stop stop-color="white" stop-opacity="0.6"/>
<stop offset="1" stop-color="white" stop-opacity="0.87"/>
</linearGradient>
<linearGradient id="paint20_linear" x1="19.7353" y1="33" x2="19.7353" y2="34" gradientUnits="userSpaceOnUse">
<stop stop-color="white" stop-opacity="0.6"/>
<stop offset="1" stop-color="white" stop-opacity="0.87"/>
</linearGradient>
<linearGradient id="paint21_linear" x1="19.7353" y1="39" x2="19.7353" y2="40" gradientUnits="userSpaceOnUse">
<stop stop-color="white" stop-opacity="0.6"/>
<stop offset="1" stop-color="white" stop-opacity="0.87"/>
</linearGradient>
<linearGradient id="paint22_linear" x1="24.7353" y1="41" x2="24.7353" y2="42" gradientUnits="userSpaceOnUse">
<stop stop-color="white" stop-opacity="0.6"/>
<stop offset="1" stop-color="white" stop-opacity="0.87"/>
</linearGradient>
<linearGradient id="paint23_linear" x1="23.7353" y1="39" x2="23.7353" y2="40" gradientUnits="userSpaceOnUse">
<stop stop-color="white" stop-opacity="0.6"/>
<stop offset="1" stop-color="white" stop-opacity="0.87"/>
</linearGradient>
<linearGradient id="paint24_linear" x1="28.7353" y1="41" x2="28.7353" y2="42" gradientUnits="userSpaceOnUse">
<stop stop-color="white" stop-opacity="0.6"/>
<stop offset="1" stop-color="white" stop-opacity="0.87"/>
</linearGradient>
<linearGradient id="paint25_linear" x1="23.7353" y1="37" x2="23.7353" y2="38" gradientUnits="userSpaceOnUse">
<stop stop-color="white" stop-opacity="0.6"/>
<stop offset="1" stop-color="white" stop-opacity="0.87"/>
</linearGradient>
<linearGradient id="paint26_linear" x1="17.7353" y1="39" x2="17.7353" y2="40" gradientUnits="userSpaceOnUse">
<stop stop-color="white" stop-opacity="0.6"/>
<stop offset="1" stop-color="white" stop-opacity="0.87"/>
</linearGradient>
<linearGradient id="paint27_linear" x1="15.7353" y1="43" x2="15.7353" y2="44" gradientUnits="userSpaceOnUse">
<stop stop-color="white" stop-opacity="0.6"/>
<stop offset="1" stop-color="white" stop-opacity="0.87"/>
</linearGradient>
<linearGradient id="paint28_linear" x1="19.7353" y1="42" x2="19.7353" y2="43" gradientUnits="userSpaceOnUse">
<stop stop-color="white" stop-opacity="0.6"/>
<stop offset="1" stop-color="white" stop-opacity="0.87"/>
</linearGradient>
<linearGradient id="paint29_linear" x1="22.7353" y1="42" x2="22.7353" y2="43" gradientUnits="userSpaceOnUse">
<stop stop-color="white" stop-opacity="0.6"/>
<stop offset="1" stop-color="white" stop-opacity="0.87"/>
</linearGradient>
<linearGradient id="paint30_linear" x1="16.7353" y1="44" x2="16.7353" y2="45" gradientUnits="userSpaceOnUse">
<stop stop-color="white" stop-opacity="0.6"/>
<stop offset="1" stop-color="white" stop-opacity="0.87"/>
</linearGradient>
<linearGradient id="paint31_linear" x1="18.7353" y1="41" x2="18.7353" y2="42" gradientUnits="userSpaceOnUse">
<stop stop-color="white" stop-opacity="0.6"/>
<stop offset="1" stop-color="white" stop-opacity="0.87"/>
</linearGradient>
<linearGradient id="paint32_linear" x1="19.7353" y1="43" x2="19.7353" y2="44" gradientUnits="userSpaceOnUse">
<stop stop-color="white" stop-opacity="0.6"/>
<stop offset="1" stop-color="white" stop-opacity="0.87"/>
</linearGradient>
<linearGradient id="paint33_linear" x1="17.7353" y1="40" x2="17.7353" y2="41" gradientUnits="userSpaceOnUse">
<stop stop-color="white" stop-opacity="0.6"/>
<stop offset="1" stop-color="white" stop-opacity="0.87"/>
</linearGradient>
<clipPath id="clip0">
<rect width="87" height="64" fill="white"/>
</clipPath>
<clipPath id="clip1">
<rect width="14" height="14" fill="white" transform="translate(14 33)"/>
</clipPath>
</defs>
</svg>
