<svg width="87" height="64" viewBox="0 0 87 64" fill="none" xmlns="http://www.w3.org/2000/svg">
<g clip-path="url(#clip0)">
<path d="M2 5C2 3.34315 3.34315 2 5 2H82C83.6569 2 85 3.34315 85 5V62H2V5Z" fill="white"/>
<path d="M3 6C3 4.34315 4.34315 3 6 3H81C82.6569 3 84 4.34315 84 6V61H3V6Z" fill="black"/>
<path d="M3 6C3 4.34315 4.34315 3 6 3H81C82.6569 3 84 4.34315 84 6V8H3V6Z" fill="#4B4B4B"/>
<circle cx="7" cy="6" r="1" fill="#FF6464"/>
<circle cx="12" cy="6" r="1" fill="#FFBA52"/>
<circle cx="17" cy="6" r="1" fill="#54A800"/>
<rect x="34" y="4" width="2" height="2" rx="0.5" fill="#165579"/>
<path d="M36 4.5H37.5C37.7761 4.5 38 4.72386 38 5V6.5H36V4.5Z" fill="#165579"/>
<rect x="34" y="5" width="4" height="2" rx="0.5" fill="#5BADDC"/>
<path d="M13.9873 14.2871L8.17773 12.0107V10.3408L15.6836 13.6631V14.9463L8.17773 18.2773V16.5898L13.9873 14.2871ZM24.4902 21.3271H16.4395V20H24.4902V21.3271Z" fill="white"/>
<path d="M37.1816 45.6201H43.2461V47H35.4854V34.2031H37.1816V45.6201ZM50.7871 47C50.6934 46.8125 50.6172 46.4785 50.5586 45.998C49.8027 46.7832 48.9004 47.1758 47.8516 47.1758C46.9141 47.1758 46.1436 46.9121 45.54 46.3848C44.9424 45.8516 44.6436 45.1777 44.6436 44.3633C44.6436 43.373 45.0186 42.6055 45.7686 42.0605C46.5244 41.5098 47.585 41.2344 48.9502 41.2344H50.5322V40.4873C50.5322 39.9189 50.3623 39.4678 50.0225 39.1338C49.6826 38.7939 49.1816 38.624 48.5195 38.624C47.9395 38.624 47.4531 38.7705 47.0605 39.0635C46.668 39.3564 46.4717 39.7109 46.4717 40.127H44.8369C44.8369 39.6523 45.0039 39.1953 45.3379 38.7559C45.6777 38.3105 46.1348 37.959 46.709 37.7012C47.2891 37.4434 47.9248 37.3145 48.6162 37.3145C49.7119 37.3145 50.5703 37.5898 51.1914 38.1406C51.8125 38.6855 52.1348 39.4385 52.1582 40.3994V44.7764C52.1582 45.6494 52.2695 46.3438 52.4922 46.8594V47H50.7871ZM48.0889 45.7607C48.5986 45.7607 49.082 45.6289 49.5391 45.3652C49.9961 45.1016 50.3271 44.7588 50.5322 44.3369V42.3857H49.2578C47.2656 42.3857 46.2695 42.9688 46.2695 44.1348C46.2695 44.6445 46.4395 45.043 46.7793 45.3301C47.1191 45.6172 47.5557 45.7607 48.0889 45.7607ZM59.3037 38.9492C59.0576 38.9082 58.791 38.8877 58.5039 38.8877C57.4375 38.8877 56.7139 39.3418 56.333 40.25V47H54.707V37.4902H56.2891L56.3154 38.5889C56.8486 37.7393 57.6045 37.3145 58.583 37.3145C58.8994 37.3145 59.1396 37.3555 59.3037 37.4375V38.9492ZM60.2441 42.166C60.2441 40.6836 60.5869 39.5059 61.2725 38.6328C61.958 37.7539 62.8662 37.3145 63.9971 37.3145C65.1572 37.3145 66.0625 37.7246 66.7129 38.5449L66.792 37.4902H68.2773V46.7715C68.2773 48.002 67.9111 48.9717 67.1787 49.6807C66.4521 50.3896 65.4736 50.7441 64.2432 50.7441C63.5576 50.7441 62.8867 50.5977 62.2305 50.3047C61.5742 50.0117 61.0732 49.6104 60.7275 49.1006L61.5713 48.125C62.2686 48.9863 63.1211 49.417 64.1289 49.417C64.9199 49.417 65.5352 49.1943 65.9746 48.749C66.4199 48.3037 66.6426 47.6768 66.6426 46.8682V46.0508C65.9922 46.8008 65.1045 47.1758 63.9795 47.1758C62.8662 47.1758 61.9639 46.7275 61.2725 45.8311C60.5869 44.9346 60.2441 43.7129 60.2441 42.166ZM61.8789 42.3506C61.8789 43.4229 62.0986 44.2666 62.5381 44.8818C62.9775 45.4912 63.5928 45.7959 64.3838 45.7959C65.4092 45.7959 66.1621 45.3301 66.6426 44.3984V40.0566C66.1445 39.1484 65.3975 38.6943 64.4014 38.6943C63.6104 38.6943 62.9922 39.002 62.5469 39.6172C62.1016 40.2324 61.8789 41.1436 61.8789 42.3506ZM74.6846 47.1758C73.3955 47.1758 72.3467 46.7539 71.5381 45.9102C70.7295 45.0605 70.3252 43.9268 70.3252 42.5088V42.21C70.3252 41.2666 70.5039 40.4258 70.8613 39.6875C71.2246 38.9434 71.7285 38.3633 72.373 37.9473C73.0234 37.5254 73.7266 37.3145 74.4824 37.3145C75.7188 37.3145 76.6797 37.7217 77.3652 38.5361C78.0508 39.3506 78.3936 40.5166 78.3936 42.0342V42.7109H71.9512C71.9746 43.6484 72.2471 44.4072 72.7686 44.9873C73.2959 45.5615 73.9639 45.8486 74.7725 45.8486C75.3467 45.8486 75.833 45.7314 76.2314 45.4971C76.6299 45.2627 76.9785 44.9521 77.2773 44.5654L78.2705 45.3389C77.4736 46.5635 76.2783 47.1758 74.6846 47.1758ZM74.4824 38.6504C73.8262 38.6504 73.2754 38.8906 72.8301 39.3711C72.3848 39.8457 72.1094 40.5137 72.0039 41.375H76.7676V41.252C76.7207 40.4258 76.498 39.7871 76.0996 39.3359C75.7012 38.8789 75.1621 38.6504 74.4824 38.6504Z" fill="white"/>
<rect x="10.5" y="19.5" width="22" height="28" fill="white" stroke="black" stroke-width="3"/>
<path d="M32.5 48C32.5 53.0723 27.761 57.5 21.5 57.5C15.239 57.5 10.5 53.0723 10.5 48C10.5 42.9277 15.239 38.5 21.5 38.5C27.761 38.5 32.5 42.9277 32.5 48Z" fill="white" stroke="black" stroke-width="3"/>
<rect x="12" y="26" width="19" height="23" rx="1" fill="white"/>
<path d="M20.1211 42.0801H24.1641V43H18.9902V34.4688H20.1211V42.0801Z" fill="black"/>
</g>
<defs>
<clipPath id="clip0">
<rect width="87" height="64" fill="white"/>
</clipPath>
</defs>
</svg>
