<svg width="87" height="64" viewBox="0 0 87 64" fill="none" xmlns="http://www.w3.org/2000/svg">
<g clip-path="url(#clip0)">
<path d="M2 5C2 3.34315 3.34315 2 5 2H82C83.6569 2 85 3.34315 85 5V62H2V5Z" fill="white"/>
<path d="M3 6C3 4.34315 4.34315 3 6 3H81C82.6569 3 84 4.34315 84 6V61H3V6Z" fill="black"/>
<path d="M3 6C3 4.34315 4.34315 3 6 3H81C82.6569 3 84 4.34315 84 6V8H3V6Z" fill="#4B4B4B"/>
<circle cx="7" cy="6" r="1" fill="#FF6464"/>
<circle cx="12" cy="6" r="1" fill="#FFBA52"/>
<circle cx="17" cy="6" r="1" fill="#54A800"/>
<rect x="34" y="4" width="2" height="2" rx="0.5" fill="#165579"/>
<path d="M36 4.5H37.5C37.7761 4.5 38 4.72386 38 5V6.5H36V4.5Z" fill="#165579"/>
<rect x="34" y="5" width="4" height="2" rx="0.5" fill="#5BADDC"/>
<path d="M13.9873 14.2871L8.17773 12.0107V10.3408L15.6836 13.6631V14.9463L8.17773 18.2773V16.5898L13.9873 14.2871ZM24.4902 21.3271H16.4395V20H24.4902V21.3271Z" fill="white"/>
<path d="M41.2559 41.2959C39.8086 40.8799 38.7539 40.3701 38.0918 39.7666C37.4355 39.1572 37.1074 38.4072 37.1074 37.5166C37.1074 36.5088 37.5088 35.6768 38.3115 35.0205C39.1201 34.3584 40.1689 34.0273 41.458 34.0273C42.3369 34.0273 43.1191 34.1973 43.8047 34.5371C44.4961 34.877 45.0293 35.3457 45.4043 35.9434C45.7852 36.541 45.9756 37.1943 45.9756 37.9033H44.2793C44.2793 37.1299 44.0332 36.5234 43.541 36.084C43.0488 35.6387 42.3545 35.416 41.458 35.416C40.626 35.416 39.9756 35.6006 39.5068 35.9697C39.0439 36.333 38.8125 36.8398 38.8125 37.4902C38.8125 38.0117 39.0322 38.4541 39.4717 38.8174C39.917 39.1748 40.6699 39.5029 41.7305 39.8018C42.7969 40.1006 43.6289 40.4316 44.2266 40.7949C44.8301 41.1523 45.2754 41.5713 45.5625 42.0518C45.8555 42.5322 46.002 43.0977 46.002 43.748C46.002 44.7852 45.5977 45.6172 44.7891 46.2441C43.9805 46.8652 42.8994 47.1758 41.5459 47.1758C40.667 47.1758 39.8467 47.0088 39.085 46.6748C38.3232 46.335 37.7344 45.8721 37.3184 45.2861C36.9082 44.7002 36.7031 44.0352 36.7031 43.291H38.3994C38.3994 44.0645 38.6836 44.6768 39.252 45.1279C39.8262 45.5732 40.5908 45.7959 41.5459 45.7959C42.4365 45.7959 43.1191 45.6143 43.5938 45.251C44.0684 44.8877 44.3057 44.3926 44.3057 43.7656C44.3057 43.1387 44.0859 42.6553 43.6465 42.3154C43.207 41.9697 42.4102 41.6299 41.2559 41.2959ZM49.4473 37.4902L49.4912 38.5449C50.1885 37.7246 51.1289 37.3145 52.3125 37.3145C53.6426 37.3145 54.5479 37.8242 55.0283 38.8438C55.3447 38.3867 55.7549 38.0176 56.2588 37.7363C56.7686 37.4551 57.3691 37.3145 58.0605 37.3145C60.1465 37.3145 61.207 38.4189 61.2422 40.6279V47H59.6162V40.7246C59.6162 40.0449 59.4609 39.5381 59.1504 39.2041C58.8398 38.8643 58.3184 38.6943 57.5859 38.6943C56.9824 38.6943 56.4814 38.876 56.083 39.2393C55.6846 39.5967 55.4531 40.0801 55.3887 40.6895V47H53.7539V40.7686C53.7539 39.3857 53.0771 38.6943 51.7236 38.6943C50.6572 38.6943 49.9277 39.1484 49.5352 40.0566V47H47.9092V37.4902H49.4473ZM69.5742 47C69.4805 46.8125 69.4043 46.4785 69.3457 45.998C68.5898 46.7832 67.6875 47.1758 66.6387 47.1758C65.7012 47.1758 64.9307 46.9121 64.3271 46.3848C63.7295 45.8516 63.4307 45.1777 63.4307 44.3633C63.4307 43.373 63.8057 42.6055 64.5557 42.0605C65.3115 41.5098 66.3721 41.2344 67.7373 41.2344H69.3193V40.4873C69.3193 39.9189 69.1494 39.4678 68.8096 39.1338C68.4697 38.7939 67.9688 38.624 67.3066 38.624C66.7266 38.624 66.2402 38.7705 65.8477 39.0635C65.4551 39.3564 65.2588 39.7109 65.2588 40.127H63.624C63.624 39.6523 63.791 39.1953 64.125 38.7559C64.4648 38.3105 64.9219 37.959 65.4961 37.7012C66.0762 37.4434 66.7119 37.3145 67.4033 37.3145C68.499 37.3145 69.3574 37.5898 69.9785 38.1406C70.5996 38.6855 70.9219 39.4385 70.9453 40.3994V44.7764C70.9453 45.6494 71.0566 46.3438 71.2793 46.8594V47H69.5742ZM66.876 45.7607C67.3857 45.7607 67.8691 45.6289 68.3262 45.3652C68.7832 45.1016 69.1143 44.7588 69.3193 44.3369V42.3857H68.0449C66.0527 42.3857 65.0566 42.9688 65.0566 44.1348C65.0566 44.6445 65.2266 45.043 65.5664 45.3301C65.9062 45.6172 66.3428 45.7607 66.876 45.7607ZM75.2607 47H73.6348V33.5H75.2607V47ZM79.6377 47H78.0117V33.5H79.6377V47Z" fill="white"/>
<rect x="12.5" y="26.5" width="22" height="15" fill="white" stroke="black" stroke-width="3"/>
<path d="M34.5 44C34.5 49.0723 29.761 53.5 23.5 53.5C17.239 53.5 12.5 49.0723 12.5 44C12.5 38.9277 17.239 34.5 23.5 34.5C29.761 34.5 34.5 38.9277 34.5 44Z" fill="white" stroke="black" stroke-width="3"/>
<rect x="14" y="29" width="19" height="16" rx="1" fill="white"/>
<path d="M23.5039 41.1973C22.5391 40.9199 21.8359 40.5801 21.3945 40.1777C20.957 39.7715 20.7383 39.2715 20.7383 38.6777C20.7383 38.0059 21.0059 37.4512 21.541 37.0137C22.0801 36.5723 22.7793 36.3516 23.6387 36.3516C24.2246 36.3516 24.7461 36.4648 25.2031 36.6914C25.6641 36.918 26.0195 37.2305 26.2695 37.6289C26.5234 38.0273 26.6504 38.4629 26.6504 38.9355H25.5195C25.5195 38.4199 25.3555 38.0156 25.0273 37.7227C24.6992 37.4258 24.2363 37.2773 23.6387 37.2773C23.084 37.2773 22.6504 37.4004 22.3379 37.6465C22.0293 37.8887 21.875 38.2266 21.875 38.6602C21.875 39.0078 22.0215 39.3027 22.3145 39.5449C22.6113 39.7832 23.1133 40.002 23.8203 40.2012C24.5312 40.4004 25.0859 40.6211 25.4844 40.8633C25.8867 41.1016 26.1836 41.3809 26.375 41.7012C26.5703 42.0215 26.668 42.3984 26.668 42.832C26.668 43.5234 26.3984 44.0781 25.8594 44.4961C25.3203 44.9102 24.5996 45.1172 23.6973 45.1172C23.1113 45.1172 22.5645 45.0059 22.0566 44.7832C21.5488 44.5566 21.1562 44.248 20.8789 43.8574C20.6055 43.4668 20.4688 43.0234 20.4688 42.5273H21.5996C21.5996 43.043 21.7891 43.4512 22.168 43.752C22.5508 44.0488 23.0605 44.1973 23.6973 44.1973C24.291 44.1973 24.7461 44.0762 25.0625 43.834C25.3789 43.5918 25.5371 43.2617 25.5371 42.8438C25.5371 42.4258 25.3906 42.1035 25.0977 41.877C24.8047 41.6465 24.2734 41.4199 23.5039 41.1973Z" fill="black"/>
</g>
<defs>
<clipPath id="clip0">
<rect width="87" height="64" fill="white"/>
</clipPath>
</defs>
</svg>
