<svg width="87" height="64" viewBox="0 0 87 64" fill="none" xmlns="http://www.w3.org/2000/svg">
<g clip-path="url(#clip0)">
<path d="M2 5C2 3.34315 3.34315 2 5 2H82C83.6569 2 85 3.34315 85 5V62H2V5Z" fill="white"/>
<path d="M3 6C3 4.34315 4.34315 3 6 3H81C82.6569 3 84 4.34315 84 6V61H3V6Z" fill="black"/>
<path d="M3 6C3 4.34315 4.34315 3 6 3H81C82.6569 3 84 4.34315 84 6V8H3V6Z" fill="#4B4B4B"/>
<circle cx="7" cy="6" r="1" fill="#FF6464"/>
<circle cx="12" cy="6" r="1" fill="#FFBA52"/>
<circle cx="17" cy="6" r="1" fill="#54A800"/>
<rect x="34" y="4" width="2" height="2" rx="0.5" fill="#165579"/>
<path d="M36 4.5H37.5C37.7761 4.5 38 4.72386 38 5V6.5H36V4.5Z" fill="#165579"/>
<rect x="34" y="5" width="4" height="2" rx="0.5" fill="#5BADDC"/>
<path d="M13.9873 14.2871L8.17773 12.0107V10.3408L15.6836 13.6631V14.9463L8.17773 18.2773V16.5898L13.9873 14.2871ZM24.4902 21.3271H16.4395V20H24.4902V21.3271Z" fill="white"/>
<path d="M44.8105 40.584L45.4609 34.2031H52.0176V35.7061H46.8408L46.4541 39.1953C47.0811 38.8262 47.793 38.6416 48.5898 38.6416C49.7559 38.6416 50.6816 39.0283 51.3672 39.8018C52.0527 40.5693 52.3955 41.6094 52.3955 42.9219C52.3955 44.2402 52.0381 45.2803 51.3232 46.042C50.6143 46.7979 49.6211 47.1758 48.3438 47.1758C47.2129 47.1758 46.29 46.8623 45.5752 46.2354C44.8604 45.6084 44.4531 44.7412 44.3535 43.6338H45.8916C45.9912 44.3662 46.252 44.9199 46.6738 45.2949C47.0957 45.6641 47.6523 45.8486 48.3438 45.8486C49.0996 45.8486 49.6914 45.5908 50.1191 45.0752C50.5527 44.5596 50.7695 43.8477 50.7695 42.9395C50.7695 42.084 50.5352 41.3984 50.0664 40.8828C49.6035 40.3613 48.9854 40.1006 48.2119 40.1006C47.5029 40.1006 46.9463 40.2559 46.542 40.5664L46.1113 40.918L44.8105 40.584ZM62.1953 41.542C62.1953 43.4463 61.8701 44.8613 61.2197 45.7871C60.5693 46.7129 59.5527 47.1758 58.1699 47.1758C56.8047 47.1758 55.7939 46.7246 55.1377 45.8223C54.4814 44.9141 54.1416 43.5605 54.1182 41.7617V39.5908C54.1182 37.71 54.4434 36.3125 55.0938 35.3984C55.7441 34.4844 56.7637 34.0273 58.1523 34.0273C59.5293 34.0273 60.543 34.4697 61.1934 35.3545C61.8438 36.2334 62.1777 37.5928 62.1953 39.4326V41.542ZM60.5693 39.3184C60.5693 37.9414 60.376 36.9395 59.9893 36.3125C59.6025 35.6797 58.9902 35.3633 58.1523 35.3633C57.3203 35.3633 56.7139 35.6768 56.333 36.3037C55.9521 36.9307 55.7559 37.8945 55.7441 39.1953V41.7969C55.7441 43.1797 55.9434 44.2021 56.3418 44.8643C56.7461 45.5205 57.3555 45.8486 58.1699 45.8486C58.9727 45.8486 59.5674 45.5381 59.9541 44.917C60.3467 44.2959 60.5518 43.3174 60.5693 41.9814V39.3184ZM64.1377 36.6641C64.1377 35.8965 64.3809 35.2637 64.8672 34.7656C65.3594 34.2676 65.9893 34.0186 66.7568 34.0186C67.5361 34.0186 68.166 34.2705 68.6465 34.7744C69.1328 35.2725 69.376 35.9199 69.376 36.7168V37.3408C69.376 38.1143 69.1299 38.7471 68.6377 39.2393C68.1514 39.7256 67.5303 39.9688 66.7744 39.9688C66.0127 39.9688 65.3828 39.7256 64.8848 39.2393C64.3867 38.7471 64.1377 38.0938 64.1377 37.2793V36.6641ZM65.3506 37.3408C65.3506 37.7979 65.4795 38.1758 65.7373 38.4746C65.9951 38.7676 66.3408 38.9141 66.7744 38.9141C67.1904 38.9141 67.5244 38.7705 67.7764 38.4834C68.0342 38.1963 68.1631 37.8037 68.1631 37.3057V36.6641C68.1631 36.207 68.0371 35.8291 67.7852 35.5303C67.5332 35.2314 67.1904 35.082 66.7568 35.082C66.3232 35.082 65.9805 35.2314 65.7285 35.5303C65.4766 35.8291 65.3506 36.2188 65.3506 36.6992V37.3408ZM70.3691 43.8623C70.3691 43.0947 70.6123 42.4648 71.0986 41.9727C71.5908 41.4746 72.2207 41.2256 72.9883 41.2256C73.7559 41.2256 74.3857 41.4717 74.8779 41.9639C75.3701 42.4561 75.6162 43.1094 75.6162 43.9238V44.5479C75.6162 45.3154 75.3701 45.9482 74.8779 46.4463C74.3916 46.9385 73.7676 47.1846 73.0059 47.1846C72.2441 47.1846 71.6143 46.9414 71.1162 46.4551C70.6182 45.9629 70.3691 45.3096 70.3691 44.4951V43.8623ZM71.582 44.5479C71.582 45.0107 71.7109 45.3916 71.9688 45.6904C72.2266 45.9834 72.5723 46.1299 73.0059 46.1299C73.4277 46.1299 73.7646 45.9863 74.0166 45.6992C74.2686 45.4062 74.3945 45.0107 74.3945 44.5127V43.8623C74.3945 43.3994 74.2656 43.0215 74.0078 42.7285C73.7559 42.4355 73.416 42.2891 72.9883 42.2891C72.5723 42.2891 72.2324 42.4355 71.9688 42.7285C71.7109 43.0156 71.582 43.4053 71.582 43.8975V44.5479ZM67.1436 46.0332L66.2207 45.4531L72.4697 35.4512L73.3926 36.0312L67.1436 46.0332Z" fill="white"/>
<g clip-path="url(#clip1)">
<path d="M39.5 44C39.5 50.799 32.4542 56.5 23.5 56.5C14.5458 56.5 7.5 50.799 7.5 44C7.5 37.201 14.5458 31.5 23.5 31.5C32.4542 31.5 39.5 37.201 39.5 44Z" fill="#C4C4C4" stroke="black"/>
<path d="M38.5 35C38.5 35.2664 38.272 35.6633 37.4882 36.1265C36.7379 36.57 35.619 36.9867 34.1924 37.3434C31.3471 38.0547 27.3897 38.5 23 38.5C18.6103 38.5 14.6529 38.0547 11.8076 37.3434C10.381 36.9867 9.26206 36.57 8.51177 36.1265C7.72802 35.6633 7.5 35.2664 7.5 35C7.5 34.7336 7.72802 34.3367 8.51177 33.8735C9.26206 33.43 10.381 33.0133 11.8076 32.6566C14.6529 31.9453 18.6103 31.5 23 31.5C27.3897 31.5 31.3471 31.9453 34.1924 32.6566C35.619 33.0133 36.7379 33.43 37.4882 33.8735C38.272 34.3367 38.5 34.7336 38.5 35Z" fill="#C4C4C4" stroke="black"/>
<path d="M11.3536 34.8536L11.5 34.7071V34.5C11.5 33.8167 11.8225 32.9726 12.4677 32.0633C13.107 31.1624 14.0334 30.2403 15.1641 29.4105C17.4299 27.7476 20.4536 26.5 23.5 26.5C26.5301 26.5 29.4208 27.86 31.5619 29.6417C32.6301 30.5306 33.4978 31.5133 34.095 32.4621C34.6974 33.4193 35 34.3023 35 35C35 35.6544 34.7359 36.1069 34.233 36.456C33.6985 36.8271 32.8847 37.0842 31.8065 37.2483C29.9988 37.5235 27.6393 37.5142 25.0356 37.504C24.5321 37.502 24.0195 37.5 23.5 37.5C20.3097 37.5 16.3548 37.4986 13.6338 37.0686C12.9571 36.9617 12.372 36.8304 11.9023 36.6718C11.4243 36.5104 11.1082 36.3345 10.9301 36.1631C10.7728 36.0118 10.739 35.8855 10.7642 35.7416C10.7969 35.5553 10.945 35.2621 11.3536 34.8536Z" fill="white" stroke="black"/>
<line x1="18.7764" y1="31.5528" x2="19.6708" y2="31.1056" stroke="black"/>
<line x1="22.7764" y1="29.0001" x2="23.6708" y2="28.5528" stroke="black"/>
<line x1="13.7764" y1="34.5528" x2="14.6708" y2="34.1056" stroke="black"/>
<line x1="25.7764" y1="30.5528" x2="27.118" y2="29.882" stroke="black"/>
<line x1="21.7764" y1="34.2236" x2="23.118" y2="33.5527" stroke="black"/>
<line x1="29.7764" y1="34.2236" x2="31.118" y2="33.5527" stroke="black"/>
<rect x="34.4578" y="27.1949" width="14" height="2" rx="1" transform="rotate(-27.8158 34.4578 27.1949)" fill="#C4C4C4" stroke="black"/>
<path d="M34.9776 27.3766C35.4098 28.1957 35.354 29.4576 34.7788 30.7615C34.2112 32.0485 33.1773 33.2749 31.8238 33.9891C30.4738 34.7013 28.9679 34.8184 27.6772 34.5229C26.3742 34.2246 25.3605 33.5251 24.917 32.6845C24.7009 32.2749 24.6972 31.986 24.7785 31.7529C24.8683 31.4954 25.0918 31.2193 25.4965 30.9095C25.8976 30.6024 26.4274 30.2987 27.0597 29.9676C27.3473 29.817 27.6504 29.6636 27.9678 29.5029C27.9973 29.488 28.0268 29.4731 28.0565 29.458C28.4051 29.2816 28.769 29.0968 29.1395 28.9013C29.5099 28.7059 29.8731 28.5071 30.2245 28.3143C30.2498 28.3004 30.275 28.2865 30.3002 28.2727C30.6257 28.094 30.9402 27.9214 31.2454 27.7592C31.9065 27.408 32.5004 27.1187 33.0256 26.9384C33.5574 26.7558 33.9607 26.706 34.2614 26.7701C34.529 26.8271 34.7714 26.9857 34.9776 27.3766Z" fill="#C4C4C4" stroke="black"/>
<path d="M34.6499 27.5591C34.6619 27.5818 34.7007 27.6931 34.5652 27.9742C34.4351 28.2444 34.1828 28.5827 33.8019 28.9659C33.0445 29.7279 31.8604 30.5854 30.427 31.3417C28.9936 32.0979 27.6174 32.5911 26.5609 32.7862C26.0296 32.8843 25.6079 32.9015 25.3114 32.8565C25.0029 32.8096 24.9329 32.7148 24.9209 32.692C24.9089 32.6692 24.8702 32.5579 25.0056 32.2768C25.1358 32.0067 25.388 31.6683 25.7689 31.2852C26.5264 30.5232 27.7104 29.6657 29.1438 28.9094C30.5772 28.1532 31.9534 27.6599 33.0099 27.4648C33.5413 27.3667 33.9629 27.3495 34.2594 27.3946C34.5679 27.4415 34.6379 27.5363 34.6499 27.5591Z" fill="#C4C4C4" stroke="black"/>
<path d="M29.5 32.5C29.5 34.0962 27.9978 35.5 26 35.5C24.0022 35.5 22.5 34.0962 22.5 32.5C22.5 30.9038 24.0022 29.5 26 29.5C27.9978 29.5 29.5 30.9038 29.5 32.5Z" fill="white" stroke="black"/>
<path d="M28 33C28 35.2091 29.933 36.5 28 36.5C26.067 36.5 21 35.2091 21 33C21 30.7909 23.567 27.5 25.5 27.5C27.433 27.5 28 30.7909 28 33Z" fill="white"/>
<path d="M15.7227 47.832C15.7227 47.694 15.6536 47.5859 15.5156 47.5078C15.3802 47.4271 15.1615 47.3555 14.8594 47.293C13.8542 47.082 13.3516 46.6549 13.3516 46.0117C13.3516 45.6367 13.5065 45.3242 13.8164 45.0742C14.1289 44.8216 14.5365 44.6953 15.0391 44.6953C15.5755 44.6953 16.0039 44.8216 16.3242 45.0742C16.6471 45.3268 16.8086 45.6549 16.8086 46.0586H15.6797C15.6797 45.8971 15.6276 45.7643 15.5234 45.6602C15.4193 45.5534 15.2565 45.5 15.0352 45.5C14.8451 45.5 14.6979 45.543 14.5938 45.6289C14.4896 45.7148 14.4375 45.8242 14.4375 45.957C14.4375 46.082 14.4961 46.1836 14.6133 46.2617C14.7331 46.3372 14.9336 46.4036 15.2148 46.4609C15.4961 46.5156 15.7331 46.5781 15.9258 46.6484C16.5221 46.8672 16.8203 47.2461 16.8203 47.7852C16.8203 48.1706 16.6549 48.4831 16.3242 48.7227C15.9935 48.9596 15.5664 49.0781 15.043 49.0781C14.6888 49.0781 14.3737 49.0156 14.0977 48.8906C13.8242 48.763 13.6094 48.5898 13.4531 48.3711C13.2969 48.1497 13.2188 47.9115 13.2188 47.6562H14.2891C14.2995 47.8568 14.3737 48.0104 14.5117 48.1172C14.6497 48.224 14.8346 48.2773 15.0664 48.2773C15.2826 48.2773 15.4453 48.237 15.5547 48.1562C15.6667 48.0729 15.7227 47.9648 15.7227 47.832ZM20.082 48.5703C19.8034 48.9089 19.418 49.0781 18.9258 49.0781C18.4727 49.0781 18.1263 48.9479 17.8867 48.6875C17.6497 48.4271 17.5286 48.0456 17.5234 47.543V44.7734H18.6523V47.5039C18.6523 47.944 18.8529 48.1641 19.2539 48.1641C19.6367 48.1641 19.8997 48.0312 20.043 47.7656V44.7734H21.1758V49H20.1133L20.082 48.5703ZM21.8633 46.8555C21.8633 46.207 22.0169 45.6849 22.3242 45.2891C22.6341 44.8932 23.0508 44.6953 23.5742 44.6953C24.0378 44.6953 24.3984 44.8542 24.6562 45.1719L24.7031 44.7734H25.7266V48.8594C25.7266 49.2292 25.6419 49.5508 25.4727 49.8242C25.306 50.0977 25.0703 50.306 24.7656 50.4492C24.4609 50.5924 24.1042 50.6641 23.6953 50.6641C23.3854 50.6641 23.0833 50.6016 22.7891 50.4766C22.4948 50.3542 22.2721 50.1953 22.1211 50L22.6211 49.3125C22.9023 49.6276 23.2435 49.7852 23.6445 49.7852C23.944 49.7852 24.1771 49.7044 24.3438 49.543C24.5104 49.3841 24.5938 49.1576 24.5938 48.8633V48.6367C24.3333 48.931 23.9909 49.0781 23.5664 49.0781C23.0586 49.0781 22.6471 48.8802 22.332 48.4844C22.0195 48.0859 21.8633 47.5586 21.8633 46.9023V46.8555ZM22.9922 46.9375C22.9922 47.3203 23.069 47.6211 23.2227 47.8398C23.3763 48.056 23.5872 48.1641 23.8555 48.1641C24.1992 48.1641 24.4453 48.0352 24.5938 47.7773V46C24.4427 45.7422 24.1992 45.6133 23.8633 45.6133C23.5924 45.6133 23.3789 45.724 23.2227 45.9453C23.069 46.1667 22.9922 46.4974 22.9922 46.9375ZM29.0469 49C28.9948 48.8984 28.957 48.7721 28.9336 48.6211C28.6602 48.9258 28.3047 49.0781 27.8672 49.0781C27.4531 49.0781 27.1094 48.9583 26.8359 48.7188C26.5651 48.4792 26.4297 48.1771 26.4297 47.8125C26.4297 47.3646 26.5951 47.0208 26.9258 46.7812C27.2591 46.5417 27.7396 46.4206 28.3672 46.418H28.8867V46.1758C28.8867 45.9805 28.8359 45.8242 28.7344 45.707C28.6354 45.5898 28.4779 45.5312 28.2617 45.5312C28.0716 45.5312 27.9219 45.5768 27.8125 45.668C27.7057 45.7591 27.6523 45.8841 27.6523 46.043H26.5234C26.5234 45.7982 26.599 45.5716 26.75 45.3633C26.901 45.1549 27.1146 44.9922 27.3906 44.875C27.6667 44.7552 27.9766 44.6953 28.3203 44.6953C28.8411 44.6953 29.2539 44.8268 29.5586 45.0898C29.8659 45.3503 30.0195 45.7174 30.0195 46.1914V48.0234C30.0221 48.4245 30.0781 48.7279 30.1875 48.9336V49H29.0469ZM28.1133 48.2148C28.2799 48.2148 28.4336 48.1784 28.5742 48.1055C28.7148 48.0299 28.819 47.9297 28.8867 47.8047V47.0781H28.4648C27.8997 47.0781 27.599 47.2734 27.5625 47.6641L27.5586 47.7305C27.5586 47.8711 27.6081 47.987 27.707 48.0781C27.806 48.1693 27.9414 48.2148 28.1133 48.2148ZM33.2617 45.832C33.1081 45.8112 32.9727 45.8008 32.8555 45.8008C32.4284 45.8008 32.1484 45.9453 32.0156 46.2344V49H30.8867V44.7734H31.9531L31.9844 45.2773C32.2109 44.8893 32.5247 44.6953 32.9258 44.6953C33.0508 44.6953 33.168 44.7122 33.2773 44.7461L33.2617 45.832Z" fill="black"/>
</g>
</g>
<defs>
<clipPath id="clip0">
<rect width="87" height="64" fill="white"/>
</clipPath>
<clipPath id="clip1">
<rect width="59" height="49" fill="white" transform="translate(-6 12)"/>
</clipPath>
</defs>
</svg>
