<svg width="87" height="64" viewBox="0 0 87 64" fill="none" xmlns="http://www.w3.org/2000/svg">
<g clip-path="url(#clip0)">
<path d="M2 5C2 3.34315 3.34315 2 5 2H82C83.6569 2 85 3.34315 85 5V62H2V5Z" fill="white"/>
<path d="M3 6C3 4.34315 4.34315 3 6 3H81C82.6569 3 84 4.34315 84 6V61H3V6Z" fill="black"/>
<path d="M3 6C3 4.34315 4.34315 3 6 3H81C82.6569 3 84 4.34315 84 6V8H3V6Z" fill="#4B4B4B"/>
<circle cx="7" cy="6" r="1" fill="#FF6464"/>
<circle cx="12" cy="6" r="1" fill="#FFBA52"/>
<circle cx="17" cy="6" r="1" fill="#54A800"/>
<rect x="34" y="4" width="2" height="2" rx="0.5" fill="#165579"/>
<path d="M36 4.5H37.5C37.7761 4.5 38 4.72386 38 5V6.5H36V4.5Z" fill="#165579"/>
<rect x="34" y="5" width="4" height="2" rx="0.5" fill="#5BADDC"/>
<path d="M13.9873 14.2871L8.17773 12.0107V10.3408L15.6836 13.6631V14.9463L8.17773 18.2773V16.5898L13.9873 14.2871ZM24.4902 21.3271H16.4395V20H24.4902V21.3271Z" fill="white"/>
<path d="M43.4072 47H41.7725V36.1631L38.4941 37.3672V35.8906L43.1523 34.1416H43.4072V47ZM56.1953 41.542C56.1953 43.4463 55.8701 44.8613 55.2197 45.7871C54.5693 46.7129 53.5527 47.1758 52.1699 47.1758C50.8047 47.1758 49.7939 46.7246 49.1377 45.8223C48.4814 44.9141 48.1416 43.5605 48.1182 41.7617V39.5908C48.1182 37.71 48.4434 36.3125 49.0938 35.3984C49.7441 34.4844 50.7637 34.0273 52.1523 34.0273C53.5293 34.0273 54.543 34.4697 55.1934 35.3545C55.8438 36.2334 56.1777 37.5928 56.1953 39.4326V41.542ZM54.5693 39.3184C54.5693 37.9414 54.376 36.9395 53.9893 36.3125C53.6025 35.6797 52.9902 35.3633 52.1523 35.3633C51.3203 35.3633 50.7139 35.6768 50.333 36.3037C49.9521 36.9307 49.7559 37.8945 49.7441 39.1953V41.7969C49.7441 43.1797 49.9434 44.2021 50.3418 44.8643C50.7461 45.5205 51.3555 45.8486 52.1699 45.8486C52.9727 45.8486 53.5674 45.5381 53.9541 44.917C54.3467 44.2959 54.5518 43.3174 54.5693 41.9814V39.3184ZM66.3027 41.542C66.3027 43.4463 65.9775 44.8613 65.3271 45.7871C64.6768 46.7129 63.6602 47.1758 62.2773 47.1758C60.9121 47.1758 59.9014 46.7246 59.2451 45.8223C58.5889 44.9141 58.249 43.5605 58.2256 41.7617V39.5908C58.2256 37.71 58.5508 36.3125 59.2012 35.3984C59.8516 34.4844 60.8711 34.0273 62.2598 34.0273C63.6367 34.0273 64.6504 34.4697 65.3008 35.3545C65.9512 36.2334 66.2852 37.5928 66.3027 39.4326V41.542ZM64.6768 39.3184C64.6768 37.9414 64.4834 36.9395 64.0967 36.3125C63.71 35.6797 63.0977 35.3633 62.2598 35.3633C61.4277 35.3633 60.8213 35.6768 60.4404 36.3037C60.0596 36.9307 59.8633 37.8945 59.8516 39.1953V41.7969C59.8516 43.1797 60.0508 44.2021 60.4492 44.8643C60.8535 45.5205 61.4629 45.8486 62.2773 45.8486C63.0801 45.8486 63.6748 45.5381 64.0615 44.917C64.4541 44.2959 64.6592 43.3174 64.6768 41.9814V39.3184ZM68.2451 36.6641C68.2451 35.8965 68.4883 35.2637 68.9746 34.7656C69.4668 34.2676 70.0967 34.0186 70.8643 34.0186C71.6436 34.0186 72.2734 34.2705 72.7539 34.7744C73.2402 35.2725 73.4834 35.9199 73.4834 36.7168V37.3408C73.4834 38.1143 73.2373 38.7471 72.7451 39.2393C72.2588 39.7256 71.6377 39.9688 70.8818 39.9688C70.1201 39.9688 69.4902 39.7256 68.9922 39.2393C68.4941 38.7471 68.2451 38.0938 68.2451 37.2793V36.6641ZM69.458 37.3408C69.458 37.7979 69.5869 38.1758 69.8447 38.4746C70.1025 38.7676 70.4482 38.9141 70.8818 38.9141C71.2979 38.9141 71.6318 38.7705 71.8838 38.4834C72.1416 38.1963 72.2705 37.8037 72.2705 37.3057V36.6641C72.2705 36.207 72.1445 35.8291 71.8926 35.5303C71.6406 35.2314 71.2979 35.082 70.8643 35.082C70.4307 35.082 70.0879 35.2314 69.8359 35.5303C69.584 35.8291 69.458 36.2188 69.458 36.6992V37.3408ZM74.4766 43.8623C74.4766 43.0947 74.7197 42.4648 75.2061 41.9727C75.6982 41.4746 76.3281 41.2256 77.0957 41.2256C77.8633 41.2256 78.4932 41.4717 78.9854 41.9639C79.4775 42.4561 79.7236 43.1094 79.7236 43.9238V44.5479C79.7236 45.3154 79.4775 45.9482 78.9854 46.4463C78.499 46.9385 77.875 47.1846 77.1133 47.1846C76.3516 47.1846 75.7217 46.9414 75.2236 46.4551C74.7256 45.9629 74.4766 45.3096 74.4766 44.4951V43.8623ZM75.6895 44.5479C75.6895 45.0107 75.8184 45.3916 76.0762 45.6904C76.334 45.9834 76.6797 46.1299 77.1133 46.1299C77.5352 46.1299 77.8721 45.9863 78.124 45.6992C78.376 45.4062 78.502 45.0107 78.502 44.5127V43.8623C78.502 43.3994 78.373 43.0215 78.1152 42.7285C77.8633 42.4355 77.5234 42.2891 77.0957 42.2891C76.6797 42.2891 76.3398 42.4355 76.0762 42.7285C75.8184 43.0156 75.6895 43.4053 75.6895 43.8975V44.5479ZM71.251 46.0332L70.3281 45.4531L76.5771 35.4512L77.5 36.0312L71.251 46.0332Z" fill="white"/>
<g clip-path="url(#clip1)">
<path d="M38.5 44C38.5 50.799 31.4542 56.5 22.5 56.5C13.5458 56.5 6.5 50.799 6.5 44C6.5 37.201 13.5458 31.5 22.5 31.5C31.4542 31.5 38.5 37.201 38.5 44Z" fill="#C4C4C4" stroke="black"/>
<path d="M37.5 35C37.5 35.2664 37.272 35.6633 36.4882 36.1265C35.7379 36.57 34.619 36.9867 33.1924 37.3434C30.3471 38.0547 26.3897 38.5 22 38.5C17.6103 38.5 13.6529 38.0547 10.8076 37.3434C9.38102 36.9867 8.26206 36.57 7.51177 36.1265C6.72802 35.6633 6.5 35.2664 6.5 35C6.5 34.7336 6.72802 34.3367 7.51177 33.8735C8.26206 33.43 9.38102 33.0133 10.8076 32.6566C13.6529 31.9453 17.6103 31.5 22 31.5C26.3897 31.5 30.3471 31.9453 33.1924 32.6566C34.619 33.0133 35.7379 33.43 36.4882 33.8735C37.272 34.3367 37.5 34.7336 37.5 35Z" fill="#C4C4C4" stroke="black"/>
<path d="M10.3535 34.8536L10.5 34.7071V34.5C10.5 33.8167 10.8225 32.9726 11.4677 32.0633C12.107 31.1624 13.0334 30.2403 14.1641 29.4105C16.4299 27.7476 19.4536 26.5 22.5 26.5C25.5301 26.5 28.4208 27.86 30.5619 29.6417C31.6301 30.5306 32.4978 31.5133 33.095 32.4621C33.6974 33.4193 34 34.3023 34 35C34 35.6544 33.7358 36.1069 33.233 36.456C32.6985 36.8271 31.8847 37.0842 30.8065 37.2483C28.9987 37.5235 26.6393 37.5142 24.0356 37.504C23.5321 37.502 23.0195 37.5 22.5 37.5C19.3097 37.5 15.3548 37.4986 12.6338 37.0686C11.9571 36.9617 11.372 36.8304 10.9023 36.6718C10.4243 36.5104 10.1082 36.3345 9.93006 36.1631C9.7728 36.0118 9.73898 35.8855 9.76421 35.7416C9.79688 35.5553 9.94503 35.2621 10.3535 34.8536Z" fill="white" stroke="black"/>
<line x1="17.7764" y1="31.5528" x2="18.6708" y2="31.1056" stroke="black"/>
<line x1="21.7764" y1="29.0001" x2="22.6708" y2="28.5528" stroke="black"/>
<line x1="12.7764" y1="34.5528" x2="13.6708" y2="34.1056" stroke="black"/>
<line x1="24.7764" y1="30.5528" x2="26.118" y2="29.882" stroke="black"/>
<line x1="20.7764" y1="34.2236" x2="22.118" y2="33.5527" stroke="black"/>
<line x1="28.7764" y1="34.2236" x2="30.118" y2="33.5527" stroke="black"/>
<rect x="33.4578" y="27.1949" width="14" height="2" rx="1" transform="rotate(-27.8158 33.4578 27.1949)" fill="#C4C4C4" stroke="black"/>
<path d="M33.9776 27.3766C34.4098 28.1957 34.354 29.4576 33.7788 30.7615C33.2112 32.0485 32.1773 33.2749 30.8238 33.9891C29.4738 34.7013 27.9679 34.8184 26.6772 34.5229C25.3742 34.2246 24.3605 33.5251 23.917 32.6845C23.7009 32.2749 23.6972 31.986 23.7785 31.7529C23.8683 31.4954 24.0918 31.2193 24.4966 30.9095C24.8977 30.6024 25.4274 30.2987 26.0598 29.9676C26.3473 29.817 26.6504 29.6636 26.9678 29.5029C26.9973 29.488 27.0269 29.4731 27.0565 29.458C27.4051 29.2816 27.7691 29.0968 28.1395 28.9013C28.5099 28.7059 28.8731 28.5071 29.2245 28.3143C29.2498 28.3004 29.275 28.2865 29.3002 28.2727C29.6257 28.094 29.9402 27.9214 30.2455 27.7592C30.9065 27.408 31.5004 27.1187 32.0256 26.9384C32.5574 26.7558 32.9607 26.706 33.2614 26.7701C33.529 26.8271 33.7714 26.9857 33.9776 27.3766Z" fill="#C4C4C4" stroke="black"/>
<path d="M33.6499 27.5591C33.6619 27.5818 33.7007 27.6931 33.5652 27.9742C33.435 28.2444 33.1828 28.5827 32.8019 28.9659C32.0444 29.7279 30.8604 30.5854 29.427 31.3417C27.9936 32.0979 26.6174 32.5911 25.5609 32.7862C25.0295 32.8843 24.6079 32.9015 24.3114 32.8565C24.0029 32.8096 23.9329 32.7148 23.9209 32.692C23.9089 32.6692 23.8701 32.5579 24.0056 32.2768C24.1358 32.0067 24.388 31.6683 24.7689 31.2852C25.5264 30.5232 26.7104 29.6657 28.1438 28.9094C29.5772 28.1532 30.9534 27.6599 32.0099 27.4648C32.5413 27.3667 32.9629 27.3495 33.2594 27.3946C33.5679 27.4415 33.6379 27.5363 33.6499 27.5591Z" fill="#C4C4C4" stroke="black"/>
<path d="M28.5 32.5C28.5 34.0962 26.9978 35.5 25 35.5C23.0022 35.5 21.5 34.0962 21.5 32.5C21.5 30.9038 23.0022 29.5 25 29.5C26.9978 29.5 28.5 30.9038 28.5 32.5Z" fill="white" stroke="black"/>
<path d="M27 33C27 35.2091 28.933 36.5 27 36.5C25.067 36.5 20 35.2091 20 33C20 30.7909 22.567 27.5 24.5 27.5C26.433 27.5 27 30.7909 27 33Z" fill="white"/>
<path d="M14.7227 47.832C14.7227 47.694 14.6536 47.5859 14.5156 47.5078C14.3802 47.4271 14.1615 47.3555 13.8594 47.293C12.8542 47.082 12.3516 46.6549 12.3516 46.0117C12.3516 45.6367 12.5065 45.3242 12.8164 45.0742C13.1289 44.8216 13.5365 44.6953 14.0391 44.6953C14.5755 44.6953 15.0039 44.8216 15.3242 45.0742C15.6471 45.3268 15.8086 45.6549 15.8086 46.0586H14.6797C14.6797 45.8971 14.6276 45.7643 14.5234 45.6602C14.4193 45.5534 14.2565 45.5 14.0352 45.5C13.8451 45.5 13.6979 45.543 13.5938 45.6289C13.4896 45.7148 13.4375 45.8242 13.4375 45.957C13.4375 46.082 13.4961 46.1836 13.6133 46.2617C13.7331 46.3372 13.9336 46.4036 14.2148 46.4609C14.4961 46.5156 14.7331 46.5781 14.9258 46.6484C15.5221 46.8672 15.8203 47.2461 15.8203 47.7852C15.8203 48.1706 15.6549 48.4831 15.3242 48.7227C14.9935 48.9596 14.5664 49.0781 14.043 49.0781C13.6888 49.0781 13.3737 49.0156 13.0977 48.8906C12.8242 48.763 12.6094 48.5898 12.4531 48.3711C12.2969 48.1497 12.2188 47.9115 12.2188 47.6562H13.2891C13.2995 47.8568 13.3737 48.0104 13.5117 48.1172C13.6497 48.224 13.8346 48.2773 14.0664 48.2773C14.2826 48.2773 14.4453 48.237 14.5547 48.1562C14.6667 48.0729 14.7227 47.9648 14.7227 47.832ZM19.082 48.5703C18.8034 48.9089 18.418 49.0781 17.9258 49.0781C17.4727 49.0781 17.1263 48.9479 16.8867 48.6875C16.6497 48.4271 16.5286 48.0456 16.5234 47.543V44.7734H17.6523V47.5039C17.6523 47.944 17.8529 48.1641 18.2539 48.1641C18.6367 48.1641 18.8997 48.0312 19.043 47.7656V44.7734H20.1758V49H19.1133L19.082 48.5703ZM20.8633 46.8555C20.8633 46.207 21.0169 45.6849 21.3242 45.2891C21.6341 44.8932 22.0508 44.6953 22.5742 44.6953C23.0378 44.6953 23.3984 44.8542 23.6562 45.1719L23.7031 44.7734H24.7266V48.8594C24.7266 49.2292 24.6419 49.5508 24.4727 49.8242C24.306 50.0977 24.0703 50.306 23.7656 50.4492C23.4609 50.5924 23.1042 50.6641 22.6953 50.6641C22.3854 50.6641 22.0833 50.6016 21.7891 50.4766C21.4948 50.3542 21.2721 50.1953 21.1211 50L21.6211 49.3125C21.9023 49.6276 22.2435 49.7852 22.6445 49.7852C22.944 49.7852 23.1771 49.7044 23.3438 49.543C23.5104 49.3841 23.5938 49.1576 23.5938 48.8633V48.6367C23.3333 48.931 22.9909 49.0781 22.5664 49.0781C22.0586 49.0781 21.6471 48.8802 21.332 48.4844C21.0195 48.0859 20.8633 47.5586 20.8633 46.9023V46.8555ZM21.9922 46.9375C21.9922 47.3203 22.069 47.6211 22.2227 47.8398C22.3763 48.056 22.5872 48.1641 22.8555 48.1641C23.1992 48.1641 23.4453 48.0352 23.5938 47.7773V46C23.4427 45.7422 23.1992 45.6133 22.8633 45.6133C22.5924 45.6133 22.3789 45.724 22.2227 45.9453C22.069 46.1667 21.9922 46.4974 21.9922 46.9375ZM28.0469 49C27.9948 48.8984 27.957 48.7721 27.9336 48.6211C27.6602 48.9258 27.3047 49.0781 26.8672 49.0781C26.4531 49.0781 26.1094 48.9583 25.8359 48.7188C25.5651 48.4792 25.4297 48.1771 25.4297 47.8125C25.4297 47.3646 25.5951 47.0208 25.9258 46.7812C26.2591 46.5417 26.7396 46.4206 27.3672 46.418H27.8867V46.1758C27.8867 45.9805 27.8359 45.8242 27.7344 45.707C27.6354 45.5898 27.4779 45.5312 27.2617 45.5312C27.0716 45.5312 26.9219 45.5768 26.8125 45.668C26.7057 45.7591 26.6523 45.8841 26.6523 46.043H25.5234C25.5234 45.7982 25.599 45.5716 25.75 45.3633C25.901 45.1549 26.1146 44.9922 26.3906 44.875C26.6667 44.7552 26.9766 44.6953 27.3203 44.6953C27.8411 44.6953 28.2539 44.8268 28.5586 45.0898C28.8659 45.3503 29.0195 45.7174 29.0195 46.1914V48.0234C29.0221 48.4245 29.0781 48.7279 29.1875 48.9336V49H28.0469ZM27.1133 48.2148C27.2799 48.2148 27.4336 48.1784 27.5742 48.1055C27.7148 48.0299 27.819 47.9297 27.8867 47.8047V47.0781H27.4648C26.8997 47.0781 26.599 47.2734 26.5625 47.6641L26.5586 47.7305C26.5586 47.8711 26.6081 47.987 26.707 48.0781C26.806 48.1693 26.9414 48.2148 27.1133 48.2148ZM32.2617 45.832C32.1081 45.8112 31.9727 45.8008 31.8555 45.8008C31.4284 45.8008 31.1484 45.9453 31.0156 46.2344V49H29.8867V44.7734H30.9531L30.9844 45.2773C31.2109 44.8893 31.5247 44.6953 31.9258 44.6953C32.0508 44.6953 32.168 44.7122 32.2773 44.7461L32.2617 45.832Z" fill="black"/>
</g>
</g>
<defs>
<clipPath id="clip0">
<rect width="87" height="64" fill="white"/>
</clipPath>
<clipPath id="clip1">
<rect width="59" height="49" fill="white" transform="translate(-7 12)"/>
</clipPath>
</defs>
</svg>
