<svg width="87" height="64" viewBox="0 0 87 64" fill="none" xmlns="http://www.w3.org/2000/svg">
<g clip-path="url(#clip0)">
<path d="M2 5C2 3.34315 3.34315 2 5 2H82C83.6569 2 85 3.34315 85 5V62H2V5Z" fill="white"/>
<path d="M3 6C3 4.34315 4.34315 3 6 3H81C82.6569 3 84 4.34315 84 6V61H3V6Z" fill="black"/>
<path d="M3 6C3 4.34315 4.34315 3 6 3H81C82.6569 3 84 4.34315 84 6V8H3V6Z" fill="#4B4B4B"/>
<circle cx="7" cy="6" r="1" fill="#FF6464"/>
<circle cx="12" cy="6" r="1" fill="#FFBA52"/>
<circle cx="17" cy="6" r="1" fill="#54A800"/>
<rect x="34" y="4" width="2" height="2" rx="0.5" fill="#165579"/>
<path d="M36 4.5H37.5C37.7761 4.5 38 4.72386 38 5V6.5H36V4.5Z" fill="#165579"/>
<rect x="34" y="5" width="4" height="2" rx="0.5" fill="#5BADDC"/>
<path d="M13.9873 14.2871L8.17773 12.0107V10.3408L15.6836 13.6631V14.9463L8.17773 18.2773V16.5898L13.9873 14.2871ZM24.4902 21.3271H16.4395V20H24.4902V21.3271Z" fill="white"/>
<path d="M55.3271 33.5918H51.2139V45H49.5352V33.5918H45.4307V32.2031H55.3271V33.5918ZM60.0381 45.1758C58.749 45.1758 57.7002 44.7539 56.8916 43.9102C56.083 43.0605 55.6787 41.9268 55.6787 40.5088V40.21C55.6787 39.2666 55.8574 38.4258 56.2148 37.6875C56.5781 36.9434 57.082 36.3633 57.7266 35.9473C58.377 35.5254 59.0801 35.3145 59.8359 35.3145C61.0723 35.3145 62.0332 35.7217 62.7188 36.5361C63.4043 37.3506 63.7471 38.5166 63.7471 40.0342V40.7109H57.3047C57.3281 41.6484 57.6006 42.4072 58.1221 42.9873C58.6494 43.5615 59.3174 43.8486 60.126 43.8486C60.7002 43.8486 61.1865 43.7314 61.585 43.4971C61.9834 43.2627 62.332 42.9521 62.6309 42.5654L63.624 43.3389C62.8271 44.5635 61.6318 45.1758 60.0381 45.1758ZM59.8359 36.6504C59.1797 36.6504 58.6289 36.8906 58.1836 37.3711C57.7383 37.8457 57.4629 38.5137 57.3574 39.375H62.1211V39.252C62.0742 38.4258 61.8516 37.7871 61.4531 37.3359C61.0547 36.8789 60.5156 36.6504 59.8359 36.6504ZM71.5078 45C71.4141 44.8125 71.3379 44.4785 71.2793 43.998C70.5234 44.7832 69.6211 45.1758 68.5723 45.1758C67.6348 45.1758 66.8643 44.9121 66.2607 44.3848C65.6631 43.8516 65.3643 43.1777 65.3643 42.3633C65.3643 41.373 65.7393 40.6055 66.4893 40.0605C67.2451 39.5098 68.3057 39.2344 69.6709 39.2344H71.2529V38.4873C71.2529 37.9189 71.083 37.4678 70.7432 37.1338C70.4033 36.7939 69.9023 36.624 69.2402 36.624C68.6602 36.624 68.1738 36.7705 67.7812 37.0635C67.3887 37.3564 67.1924 37.7109 67.1924 38.127H65.5576C65.5576 37.6523 65.7246 37.1953 66.0586 36.7559C66.3984 36.3105 66.8555 35.959 67.4297 35.7012C68.0098 35.4434 68.6455 35.3145 69.3369 35.3145C70.4326 35.3145 71.291 35.5898 71.9121 36.1406C72.5332 36.6855 72.8555 37.4385 72.8789 38.3994V42.7764C72.8789 43.6494 72.9902 44.3438 73.2129 44.8594V45H71.5078ZM68.8096 43.7607C69.3193 43.7607 69.8027 43.6289 70.2598 43.3652C70.7168 43.1016 71.0479 42.7588 71.2529 42.3369V40.3857H69.9785C67.9863 40.3857 66.9902 40.9688 66.9902 42.1348C66.9902 42.6445 67.1602 43.043 67.5 43.3301C67.8398 43.6172 68.2764 43.7607 68.8096 43.7607Z" fill="white"/>
<rect x="12.5" y="27.5" width="22" height="15" fill="white" stroke="black" stroke-width="3"/>
<path d="M34.5 45C34.5 50.0723 29.761 54.5 23.5 54.5C17.239 54.5 12.5 50.0723 12.5 45C12.5 39.9277 17.239 35.5 23.5 35.5C29.761 35.5 34.5 39.9277 34.5 45Z" fill="white" stroke="black" stroke-width="3"/>
<rect x="14" y="34" width="19" height="12" rx="1" fill="#9F856D"/>
<ellipse cx="23.5" cy="45.5" rx="9.5" ry="7.5" fill="#9F856D"/>
</g>
<defs>
<clipPath id="clip0">
<rect width="87" height="64" fill="white"/>
</clipPath>
</defs>
</svg>
